{"glyphs":{"0":{"ha":833,"x_min":71,"x_max":763,"o":"m 417 -19 q 280 23 343 -19 q 169 142 217 65 q 97 324 122 219 q 71 556 71 429 q 97 787 71 682 q 169 969 122 892 q 280 1088 217 1046 q 417 1131 343 1131 q 553 1088 490 1131 q 664 969 617 1046 q 737 787 711 892 q 763 556 763 682 q 737 324 763 429 q 664 142 711 219 q 553 23 617 65 q 417 -19 490 -19 m 417 86 q 531 147 478 86 q 616 313 583 207 q 649 556 649 419 q 616 798 649 692 q 531 965 583 904 q 417 1025 478 1025 q 303 965 356 1025 q 217 798 250 904 q 185 556 185 692 q 217 313 185 419 q 303 147 250 207 q 417 86 356 86 m 417 469 q 351 493 376 469 q 325 556 325 517 q 351 616 325 593 q 417 639 376 639 q 483 616 458 639 q 508 556 508 593 q 483 493 508 517 q 417 469 458 469 z "},"1":{"ha":833,"x_min":135,"x_max":671,"o":"m 135 786 l 135 893 q 300 949 242 893 q 358 1111 358 1006 l 474 1111 q 432 938 474 1011 q 315 826 390 865 q 135 786 239 786 m 163 0 l 163 106 l 671 106 l 671 0 l 163 0 m 360 38 l 360 1111 l 474 1111 l 474 38 l 360 38 z "},"2":{"ha":833,"x_min":72,"x_max":758,"o":"m 75 0 l 75 85 q 106 203 75 149 q 188 306 136 257 q 299 401 239 354 q 420 495 360 447 q 532 594 481 543 q 614 706 583 646 q 644 838 644 765 q 624 952 644 911 q 554 1009 604 993 q 415 1025 504 1025 q 274 1007 324 1025 q 206 944 225 989 q 189 817 188 899 l 75 817 q 103 1003 72 935 q 209 1101 133 1071 q 415 1131 285 1131 q 619 1103 544 1131 q 726 1011 694 1075 q 758 838 758 947 q 730 685 758 754 q 653 559 701 617 q 547 452 606 501 q 430 359 489 403 q 319 274 371 315 q 234 192 268 233 q 192 106 200 150 l 756 106 l 756 0 l 75 0 z "},"3":{"ha":833,"x_min":90,"x_max":743,"o":"m 417 -19 q 222 8 293 -19 q 120 103 150 36 q 90 285 90 169 l 204 285 q 224 166 204 210 q 291 104 244 122 q 417 86 338 86 q 543 106 497 86 q 609 172 589 125 q 629 300 629 218 q 612 434 629 385 q 554 506 594 483 q 443 535 514 529 l 325 535 l 325 640 l 443 640 q 554 665 514 646 q 612 724 594 685 q 629 831 629 764 q 609 947 629 906 q 543 1007 589 989 q 417 1025 497 1025 q 291 1008 338 1025 q 225 950 244 990 q 206 838 206 910 l 90 838 q 120 1014 90 950 q 222 1104 150 1078 q 417 1131 293 1131 q 613 1103 542 1131 q 713 1011 683 1076 q 743 831 743 946 q 733 721 743 765 q 697 645 722 676 q 628 588 672 614 q 697 524 672 560 q 733 435 722 489 q 743 300 743 382 q 713 108 743 178 q 613 10 683 39 q 417 -19 542 -19 z "},"4":{"ha":833,"x_min":67,"x_max":763,"o":"m 546 0 l 546 290 l 67 290 l 67 381 l 563 1111 l 660 1111 l 660 396 l 763 396 l 763 290 l 660 290 l 660 0 l 546 0 m 213 396 l 546 396 l 546 886 l 213 396 z "},"5":{"ha":833,"x_min":81,"x_max":769,"o":"m 417 -19 q 214 8 288 -19 q 110 101 140 36 q 81 275 81 165 l 196 275 q 213 160 196 201 q 278 103 231 119 q 417 86 325 86 q 561 110 510 86 q 634 190 613 133 q 656 347 656 246 q 634 507 656 451 q 561 585 613 563 q 417 607 510 607 q 351 599 381 607 q 288 573 321 592 q 208 521 254 554 l 108 521 l 108 1111 l 735 1111 l 735 1007 l 222 1007 l 222 656 q 308 701 264 688 q 417 714 353 714 q 627 680 550 714 q 737 566 704 646 q 769 347 769 486 q 737 131 769 211 q 627 15 704 50 q 417 -19 550 -19 z "},"6":{"ha":833,"x_min":81,"x_max":753,"o":"m 417 -19 q 217 15 290 -19 q 112 128 143 50 q 81 340 81 207 l 81 743 q 112 972 81 888 q 217 1094 143 1057 q 417 1131 290 1131 q 613 1105 539 1131 q 719 1020 686 1079 q 753 858 753 961 l 636 858 q 616 959 636 922 q 548 1010 596 996 q 417 1025 500 1025 q 283 1000 331 1025 q 215 914 235 975 q 194 743 194 853 l 194 632 q 251 674 221 658 q 322 697 282 690 q 417 704 363 704 q 617 672 543 704 q 722 561 690 640 q 753 342 753 482 q 722 129 753 208 q 617 15 690 50 q 417 -19 543 -19 m 417 86 q 551 110 503 86 q 619 189 599 133 q 639 342 639 244 q 619 501 639 446 q 551 578 599 557 q 417 599 503 599 q 283 578 331 599 q 215 501 235 557 q 194 340 194 444 q 215 188 194 243 q 283 109 235 132 q 417 86 331 86 z "},"7":{"ha":833,"x_min":76,"x_max":750,"o":"m 196 0 q 302 340 239 176 q 447 668 365 504 q 625 1006 528 832 l 76 1006 l 76 1111 l 750 1111 l 750 1006 q 568 668 650 831 q 422 342 486 506 q 314 0 358 179 l 196 0 z "},"8":{"ha":833,"x_min":69,"x_max":764,"o":"m 417 -19 q 210 12 286 -19 q 102 116 135 43 q 69 310 69 189 q 82 443 69 390 q 124 531 94 496 q 203 592 153 565 q 143 648 165 618 q 111 722 121 678 q 101 833 101 767 q 131 1008 101 943 q 230 1102 161 1074 q 417 1131 299 1131 q 603 1102 535 1131 q 702 1008 672 1074 q 732 833 732 943 q 722 722 732 767 q 691 648 713 678 q 631 592 669 618 q 710 531 681 565 q 751 443 739 496 q 764 310 764 390 q 732 116 764 189 q 624 12 700 43 q 417 -19 547 -19 m 417 86 q 558 107 507 86 q 629 176 608 128 q 650 310 650 225 q 629 450 650 401 q 558 517 608 499 q 417 535 507 535 q 276 517 326 535 q 204 450 225 499 q 183 310 183 401 q 204 176 183 225 q 276 107 225 128 q 417 86 326 86 m 417 640 q 538 656 494 640 q 600 713 582 671 q 618 833 618 754 q 600 948 618 907 q 538 1007 582 989 q 417 1025 494 1025 q 295 1007 339 1025 q 233 948 251 989 q 215 833 215 907 q 233 713 215 754 q 295 656 251 671 q 417 640 339 640 z "},"9":{"ha":833,"x_min":81,"x_max":753,"o":"m 417 1131 q 617 1097 543 1131 q 722 983 690 1063 q 753 771 753 904 l 753 368 q 722 139 753 224 q 617 17 690 54 q 417 -19 543 -19 q 222 6 296 -19 q 114 92 147 32 q 81 253 81 151 l 197 253 q 217 153 197 189 q 286 101 238 117 q 417 86 335 86 q 551 111 503 86 q 619 198 599 136 q 639 368 639 260 l 639 479 q 582 437 613 453 q 511 414 551 421 q 417 407 471 407 q 217 440 290 407 q 112 551 143 472 q 81 769 81 631 q 112 982 81 903 q 217 1096 143 1061 q 417 1131 290 1131 m 417 1025 q 283 1001 331 1025 q 215 923 235 978 q 194 769 194 868 q 215 610 194 667 q 283 533 235 554 q 417 513 331 513 q 551 533 503 513 q 619 610 599 554 q 639 771 639 667 q 619 924 639 869 q 551 1002 599 979 q 417 1025 503 1025 z "},"A":{"ha":833,"x_min":46,"x_max":788,"o":"m 46 0 l 356 1111 l 478 1111 l 788 0 l 669 0 l 417 921 l 164 0 l 46 0 m 183 279 l 211 385 l 622 385 l 650 279 l 183 279 z "},"Á":{"ha":833,"x_min":46,"x_max":788,"o":"m 46 0 l 356 1111 l 478 1111 l 788 0 l 669 0 l 417 921 l 164 0 l 46 0 m 183 279 l 211 385 l 622 385 l 650 279 l 183 279 m 401 1196 l 325 1278 l 546 1469 l 622 1389 l 401 1196 z "},"Ă":{"ha":833,"x_min":46,"x_max":788,"o":"m 46 0 l 356 1111 l 478 1111 l 788 0 l 669 0 l 417 921 l 164 0 l 46 0 m 183 279 l 211 385 l 622 385 l 650 279 l 183 279 m 417 1188 q 260 1233 303 1188 q 222 1389 218 1278 l 338 1389 q 341 1329 336 1350 q 363 1301 346 1308 q 417 1293 381 1293 q 472 1301 454 1293 q 494 1329 489 1308 q 499 1389 500 1350 l 613 1389 q 575 1233 618 1278 q 417 1188 532 1188 z "},"Ắ":{"ha":833,"x_min":46,"x_max":788,"o":"m 46 0 l 356 1111 l 478 1111 l 788 0 l 669 0 l 417 921 l 164 0 l 46 0 m 183 279 l 211 385 l 622 385 l 650 279 l 183 279 m 415 1140 q 297 1155 340 1140 q 235 1207 253 1169 q 221 1314 218 1244 l 336 1314 q 348 1261 335 1276 q 415 1246 361 1246 q 485 1261 472 1246 q 499 1314 499 1276 l 613 1314 q 598 1207 615 1244 q 536 1155 581 1169 q 415 1140 492 1140 m 411 1283 l 333 1364 l 513 1518 l 588 1438 l 411 1283 z "},"Ặ":{"ha":833,"x_min":46,"x_max":788,"o":"m 46 0 l 356 1111 l 478 1111 l 788 0 l 669 0 l 417 921 l 164 0 l 46 0 m 183 279 l 211 385 l 622 385 l 650 279 l 183 279 m 417 -326 q 339 -306 360 -326 q 318 -233 318 -286 q 339 -159 318 -179 q 417 -139 360 -139 q 494 -159 474 -139 q 515 -233 515 -179 q 494 -306 515 -286 q 417 -326 474 -326 m 417 1188 q 260 1233 303 1188 q 222 1389 218 1278 l 338 1389 q 341 1329 336 1350 q 363 1301 346 1308 q 417 1293 381 1293 q 472 1301 454 1293 q 494 1329 489 1308 q 499 1389 500 1350 l 613 1389 q 575 1233 618 1278 q 417 1188 532 1188 z "},"Ằ":{"ha":833,"x_min":46,"x_max":788,"o":"m 46 0 l 356 1111 l 478 1111 l 788 0 l 669 0 l 417 921 l 164 0 l 46 0 m 183 279 l 211 385 l 622 385 l 650 279 l 183 279 m 415 1140 q 297 1155 340 1140 q 235 1207 253 1169 q 221 1314 218 1244 l 336 1314 q 348 1261 335 1276 q 415 1246 361 1246 q 485 1261 472 1246 q 499 1314 499 1276 l 613 1314 q 598 1207 615 1244 q 536 1155 581 1169 q 415 1140 492 1140 m 422 1283 l 244 1438 l 321 1518 l 499 1364 l 422 1283 z "},"Ẳ":{"ha":833,"x_min":46,"x_max":788,"o":"m 46 0 l 356 1111 l 478 1111 l 788 0 l 669 0 l 417 921 l 164 0 l 46 0 m 183 279 l 211 385 l 622 385 l 650 279 l 183 279 m 417 1188 q 260 1233 303 1188 q 222 1389 218 1278 l 338 1389 q 341 1329 336 1350 q 363 1301 346 1308 q 417 1293 381 1293 q 472 1301 454 1293 q 494 1329 489 1308 q 499 1389 500 1350 l 613 1389 q 575 1233 618 1278 q 417 1188 532 1188 m 378 1443 l 350 1546 q 419 1568 394 1553 q 444 1603 444 1583 q 433 1628 444 1618 q 404 1638 421 1638 q 344 1618 381 1638 q 275 1569 308 1599 l 275 1694 q 336 1731 300 1717 q 404 1744 372 1744 q 516 1708 474 1744 q 558 1611 558 1672 q 510 1505 558 1551 q 378 1443 461 1458 z "},"Ẵ":{"ha":833,"x_min":46,"x_max":788,"o":"m 46 0 l 356 1111 l 478 1111 l 788 0 l 669 0 l 417 921 l 164 0 l 46 0 m 183 279 l 211 385 l 622 385 l 650 279 l 183 279 m 417 1188 q 260 1233 303 1188 q 222 1389 218 1278 l 338 1389 q 341 1329 336 1350 q 363 1301 346 1308 q 417 1293 381 1293 q 472 1301 454 1293 q 494 1329 489 1308 q 499 1389 500 1350 l 613 1389 q 575 1233 618 1278 q 417 1188 532 1188 m 510 1492 q 456 1508 485 1492 q 401 1545 428 1524 q 353 1583 374 1567 q 324 1599 332 1599 q 304 1579 307 1599 q 307 1528 301 1560 l 189 1528 q 221 1656 183 1606 q 324 1706 258 1706 q 378 1690 350 1706 q 431 1652 406 1674 q 478 1615 457 1631 q 510 1599 499 1599 q 530 1617 528 1599 q 526 1665 532 1635 l 643 1665 q 613 1540 650 1589 q 510 1492 576 1492 z "},"Ǎ":{"ha":833,"x_min":46,"x_max":788,"o":"m 46 0 l 356 1111 l 478 1111 l 788 0 l 669 0 l 417 921 l 164 0 l 46 0 m 183 279 l 211 385 l 622 385 l 650 279 l 183 279 m 417 1181 l 203 1371 l 290 1440 l 417 1328 l 542 1443 l 631 1374 l 417 1181 z "},"Â":{"ha":833,"x_min":46,"x_max":788,"o":"m 46 0 l 356 1111 l 478 1111 l 788 0 l 669 0 l 417 921 l 164 0 l 46 0 m 183 279 l 211 385 l 622 385 l 650 279 l 183 279 m 542 1181 l 417 1294 l 290 1183 l 203 1251 l 417 1442 l 631 1249 l 542 1181 z "},"Ấ":{"ha":833,"x_min":46,"x_max":788,"o":"m 46 0 l 356 1111 l 478 1111 l 788 0 l 669 0 l 417 921 l 164 0 l 46 0 m 183 279 l 211 385 l 622 385 l 650 279 l 183 279 m 542 1181 l 417 1294 l 290 1183 l 203 1251 l 417 1442 l 631 1249 l 542 1181 m 401 1481 l 325 1563 l 546 1754 l 622 1674 l 401 1481 z "},"Ậ":{"ha":833,"x_min":46,"x_max":788,"o":"m 46 0 l 356 1111 l 478 1111 l 788 0 l 669 0 l 417 921 l 164 0 l 46 0 m 183 279 l 211 385 l 622 385 l 650 279 l 183 279 m 417 -326 q 339 -306 360 -326 q 318 -233 318 -286 q 339 -159 318 -179 q 417 -139 360 -139 q 494 -159 474 -139 q 515 -233 515 -179 q 494 -306 515 -286 q 417 -326 474 -326 m 542 1181 l 417 1294 l 290 1183 l 203 1251 l 417 1442 l 631 1249 l 542 1181 z "},"Ầ":{"ha":833,"x_min":46,"x_max":788,"o":"m 46 0 l 356 1111 l 478 1111 l 788 0 l 669 0 l 417 921 l 164 0 l 46 0 m 183 279 l 211 385 l 622 385 l 650 279 l 183 279 m 542 1181 l 417 1294 l 290 1183 l 203 1251 l 417 1442 l 631 1249 l 542 1181 m 432 1481 l 211 1674 l 288 1754 l 508 1563 l 432 1481 z "},"Ẩ":{"ha":833,"x_min":46,"x_max":788,"o":"m 46 0 l 356 1111 l 478 1111 l 788 0 l 669 0 l 417 921 l 164 0 l 46 0 m 183 279 l 211 385 l 622 385 l 650 279 l 183 279 m 542 1181 l 417 1294 l 290 1183 l 203 1251 l 417 1442 l 631 1249 l 542 1181 m 378 1454 l 350 1557 q 419 1579 394 1564 q 444 1614 444 1594 q 433 1639 444 1629 q 404 1649 421 1649 q 344 1629 381 1649 q 275 1581 308 1610 l 275 1706 q 336 1742 300 1728 q 404 1756 372 1756 q 516 1719 474 1756 q 558 1622 558 1683 q 510 1516 558 1563 q 378 1454 461 1469 z "},"Ẫ":{"ha":833,"x_min":46,"x_max":788,"o":"m 46 0 l 356 1111 l 478 1111 l 788 0 l 669 0 l 417 921 l 164 0 l 46 0 m 183 279 l 211 385 l 622 385 l 650 279 l 183 279 m 542 1181 l 417 1294 l 290 1183 l 203 1251 l 417 1442 l 631 1249 l 542 1181 m 510 1503 q 456 1519 485 1503 q 401 1556 428 1535 q 353 1594 374 1578 q 324 1610 332 1610 q 304 1590 307 1610 q 307 1539 301 1571 l 189 1539 q 221 1667 183 1617 q 324 1717 258 1717 q 378 1701 350 1717 q 431 1663 406 1685 q 478 1626 457 1642 q 510 1610 499 1610 q 530 1628 528 1610 q 526 1676 532 1646 l 643 1676 q 613 1551 650 1600 q 510 1503 576 1503 z "},"Ä":{"ha":833,"x_min":46,"x_max":788,"o":"m 46 0 l 356 1111 l 478 1111 l 788 0 l 669 0 l 417 921 l 164 0 l 46 0 m 183 279 l 211 385 l 622 385 l 650 279 l 183 279 m 567 1250 q 491 1271 514 1250 q 468 1343 468 1292 q 491 1413 468 1392 q 567 1433 514 1433 q 643 1413 621 1433 q 665 1343 665 1392 q 643 1271 665 1292 q 567 1250 621 1250 m 267 1250 q 191 1271 214 1250 q 168 1343 168 1292 q 191 1413 168 1392 q 267 1433 214 1433 q 343 1413 321 1433 q 365 1343 365 1392 q 343 1271 365 1292 q 267 1250 321 1250 z "},"Ạ":{"ha":833,"x_min":46,"x_max":788,"o":"m 46 0 l 356 1111 l 478 1111 l 788 0 l 669 0 l 417 921 l 164 0 l 46 0 m 183 279 l 211 385 l 622 385 l 650 279 l 183 279 m 417 -326 q 339 -306 360 -326 q 318 -233 318 -286 q 339 -159 318 -179 q 417 -139 360 -139 q 494 -159 474 -139 q 515 -233 515 -179 q 494 -306 515 -286 q 417 -326 474 -326 z "},"À":{"ha":833,"x_min":46,"x_max":788,"o":"m 46 0 l 356 1111 l 478 1111 l 788 0 l 669 0 l 417 921 l 164 0 l 46 0 m 183 279 l 211 385 l 622 385 l 650 279 l 183 279 m 432 1196 l 211 1389 l 288 1469 l 508 1278 l 432 1196 z "},"Ả":{"ha":833,"x_min":46,"x_max":788,"o":"m 46 0 l 356 1111 l 478 1111 l 788 0 l 669 0 l 417 921 l 164 0 l 46 0 m 183 279 l 211 385 l 622 385 l 650 279 l 183 279 m 378 1169 l 350 1272 q 419 1294 394 1279 q 444 1329 444 1310 q 433 1354 444 1344 q 404 1364 421 1364 q 344 1344 381 1364 q 275 1296 308 1325 l 275 1421 q 336 1457 300 1443 q 404 1471 372 1471 q 516 1435 474 1471 q 558 1338 558 1399 q 510 1231 558 1278 q 378 1169 461 1185 z "},"Ā":{"ha":833,"x_min":46,"x_max":788,"o":"m 46 0 l 356 1111 l 478 1111 l 788 0 l 669 0 l 417 921 l 164 0 l 46 0 m 183 279 l 211 385 l 622 385 l 650 279 l 183 279 m 204 1242 l 204 1347 l 629 1347 l 629 1242 l 204 1242 z "},"Ą":{"ha":833,"x_min":46,"x_max":806,"o":"m 46 0 l 356 1111 l 478 1111 l 788 0 l 669 0 l 417 921 l 164 0 l 46 0 m 183 279 l 211 385 l 622 385 l 650 279 l 183 279 m 657 -272 q 535 -241 582 -272 q 489 -156 489 -210 q 518 -84 489 -118 q 596 -24 547 -50 q 699 15 644 3 l 788 0 q 685 -51 726 -28 q 622 -92 643 -74 q 603 -132 601 -111 q 616 -157 603 -147 q 658 -167 629 -167 q 697 -158 678 -167 q 728 -139 715 -150 l 806 -214 q 741 -256 782 -240 q 657 -272 700 -272 z "},"Å":{"ha":833,"x_min":46,"x_max":788,"o":"m 46 0 l 356 1111 l 478 1111 l 788 0 l 669 0 l 417 921 l 164 0 l 46 0 m 183 279 l 211 385 l 622 385 l 650 279 l 183 279 m 417 1017 q 265 1058 308 1017 q 221 1197 221 1099 q 265 1338 221 1297 q 417 1378 308 1378 q 570 1338 526 1378 q 614 1197 614 1297 q 570 1057 614 1097 q 417 1017 526 1017 m 417 1122 q 483 1138 467 1122 q 499 1197 499 1153 q 483 1258 499 1243 q 417 1272 467 1272 q 352 1258 368 1272 q 336 1197 336 1243 q 352 1138 336 1153 q 417 1122 368 1122 z "},"Ã":{"ha":833,"x_min":46,"x_max":788,"o":"m 46 0 l 356 1111 l 478 1111 l 788 0 l 669 0 l 417 921 l 164 0 l 46 0 m 183 279 l 211 385 l 622 385 l 650 279 l 183 279 m 510 1218 q 456 1234 485 1218 q 401 1272 428 1250 q 353 1309 374 1293 q 324 1325 332 1325 q 304 1306 307 1325 q 307 1254 301 1286 l 189 1254 q 221 1382 183 1332 q 324 1432 258 1432 q 378 1416 350 1432 q 431 1378 406 1400 q 478 1341 457 1357 q 510 1325 499 1325 q 530 1343 528 1325 q 526 1392 532 1361 l 643 1392 q 613 1267 650 1315 q 510 1218 576 1218 z "},"Æ":{"ha":833,"x_min":6,"x_max":819,"o":"m 6 0 l 292 1111 l 819 1111 l 819 1006 l 522 1006 l 522 576 l 718 576 l 718 471 l 522 471 l 522 106 l 819 106 l 819 0 l 408 0 l 408 1006 l 382 1006 l 124 0 l 6 0 m 142 343 l 169 449 l 492 449 l 492 343 l 142 343 z "},"B":{"ha":833,"x_min":108,"x_max":750,"o":"m 108 0 l 108 1111 l 394 1111 q 585 1083 515 1111 q 685 993 656 1056 q 715 826 715 931 q 705 719 715 761 q 671 648 694 676 q 606 597 647 619 q 692 542 660 575 q 737 457 724 510 q 750 321 750 404 q 720 132 750 203 q 620 31 690 61 q 429 0 550 0 l 108 0 m 222 106 l 429 106 q 554 125 510 106 q 617 192 599 144 q 636 321 636 239 q 617 455 636 408 q 554 518 599 501 q 429 535 510 535 l 222 535 l 222 106 m 222 640 l 394 640 q 519 655 475 640 q 583 710 564 669 q 601 826 601 750 q 583 933 601 894 q 520 989 565 972 q 394 1006 475 1006 l 222 1006 l 222 640 z "},"C":{"ha":833,"x_min":81,"x_max":757,"o":"m 438 -19 q 267 11 336 -19 q 157 109 199 42 q 98 287 115 176 q 81 557 81 397 q 98 826 81 717 q 157 1003 115 936 q 267 1100 199 1069 q 438 1131 336 1131 q 590 1106 529 1131 q 689 1026 650 1082 q 757 872 728 969 l 647 833 q 599 950 625 908 q 536 1008 574 992 q 438 1025 499 1025 q 293 983 346 1025 q 217 838 240 940 q 194 557 194 736 q 217 275 194 378 q 293 129 240 172 q 438 86 346 86 q 536 103 499 86 q 599 160 574 119 q 647 274 625 200 l 757 236 q 689 84 728 140 q 590 4 650 28 q 438 -19 531 -19 z "},"Ć":{"ha":833,"x_min":81,"x_max":757,"o":"m 438 -19 q 267 11 336 -19 q 157 109 199 42 q 98 287 115 176 q 81 557 81 397 q 98 826 81 717 q 157 1003 115 936 q 267 1100 199 1069 q 438 1131 336 1131 q 590 1106 529 1131 q 689 1026 650 1082 q 757 872 728 969 l 647 833 q 599 950 625 908 q 536 1008 574 992 q 438 1025 499 1025 q 293 983 346 1025 q 217 838 240 940 q 194 557 194 736 q 217 275 194 378 q 293 129 240 172 q 438 86 346 86 q 536 103 499 86 q 599 160 574 119 q 647 274 625 200 l 757 236 q 689 84 728 140 q 590 4 650 28 q 438 -19 531 -19 m 401 1192 l 325 1274 l 546 1465 l 622 1385 l 401 1192 z "},"Č":{"ha":833,"x_min":81,"x_max":757,"o":"m 438 -19 q 267 11 336 -19 q 157 109 199 42 q 98 287 115 176 q 81 557 81 397 q 98 826 81 717 q 157 1003 115 936 q 267 1100 199 1069 q 438 1131 336 1131 q 590 1106 529 1131 q 689 1026 650 1082 q 757 872 728 969 l 647 833 q 599 950 625 908 q 536 1008 574 992 q 438 1025 499 1025 q 293 983 346 1025 q 217 838 240 940 q 194 557 194 736 q 217 275 194 378 q 293 129 240 172 q 438 86 346 86 q 536 103 499 86 q 599 160 574 119 q 647 274 625 200 l 757 236 q 689 84 728 140 q 590 4 650 28 q 438 -19 531 -19 m 417 1176 l 203 1367 l 290 1436 l 417 1324 l 542 1439 l 631 1369 l 417 1176 z "},"Ç":{"ha":833,"x_min":81,"x_max":757,"o":"m 438 -19 q 267 11 336 -19 q 157 109 199 42 q 98 287 115 176 q 81 557 81 397 q 98 826 81 717 q 157 1003 115 936 q 267 1100 199 1069 q 438 1131 336 1131 q 590 1106 529 1131 q 689 1026 650 1082 q 757 872 728 969 l 647 833 q 599 950 625 908 q 536 1008 574 992 q 438 1025 499 1025 q 293 983 346 1025 q 217 838 240 940 q 194 557 194 736 q 217 275 194 378 q 293 129 240 172 q 438 86 346 86 q 536 103 499 86 q 599 160 574 119 q 647 274 625 200 l 757 236 q 689 84 728 140 q 590 4 650 28 q 438 -19 531 -19 m 408 -314 q 323 -298 363 -314 q 264 -256 283 -282 l 310 -174 q 351 -197 324 -187 q 408 -207 378 -207 q 448 -198 433 -207 q 463 -175 463 -189 q 434 -147 463 -157 q 360 -136 406 -136 l 360 7 l 474 7 l 474 -62 q 548 -103 519 -72 q 576 -175 576 -133 q 531 -275 576 -236 q 408 -314 485 -314 z "},"Ĉ":{"ha":833,"x_min":81,"x_max":757,"o":"m 438 -19 q 267 11 336 -19 q 157 109 199 42 q 98 287 115 176 q 81 557 81 397 q 98 826 81 717 q 157 1003 115 936 q 267 1100 199 1069 q 438 1131 336 1131 q 590 1106 529 1131 q 689 1026 650 1082 q 757 872 728 969 l 647 833 q 599 950 625 908 q 536 1008 574 992 q 438 1025 499 1025 q 293 983 346 1025 q 217 838 240 940 q 194 557 194 736 q 217 275 194 378 q 293 129 240 172 q 438 86 346 86 q 536 103 499 86 q 599 160 574 119 q 647 274 625 200 l 757 236 q 689 84 728 140 q 590 4 650 28 q 438 -19 531 -19 m 542 1176 l 417 1290 l 290 1179 l 203 1247 l 417 1438 l 631 1244 l 542 1176 z "},"Ċ":{"ha":833,"x_min":81,"x_max":757,"o":"m 438 -19 q 267 11 336 -19 q 157 109 199 42 q 98 287 115 176 q 81 557 81 397 q 98 826 81 717 q 157 1003 115 936 q 267 1100 199 1069 q 438 1131 336 1131 q 590 1106 529 1131 q 689 1026 650 1082 q 757 872 728 969 l 647 833 q 599 950 625 908 q 536 1008 574 992 q 438 1025 499 1025 q 293 983 346 1025 q 217 838 240 940 q 194 557 194 736 q 217 275 194 378 q 293 129 240 172 q 438 86 346 86 q 536 103 499 86 q 599 160 574 119 q 647 274 625 200 l 757 236 q 689 84 728 140 q 590 4 650 28 q 438 -19 531 -19 m 417 1263 q 339 1283 360 1263 q 318 1356 318 1303 q 339 1430 318 1410 q 417 1450 360 1450 q 494 1430 474 1450 q 515 1356 515 1410 q 494 1283 515 1303 q 417 1263 474 1263 z "},"D":{"ha":833,"x_min":96,"x_max":774,"o":"m 96 0 l 96 1111 l 435 1111 q 596 1082 531 1111 q 701 988 661 1053 q 757 816 740 922 q 774 556 774 710 q 757 295 774 401 q 701 124 740 189 q 596 29 661 58 q 435 0 531 0 l 96 0 m 210 26 l 124 106 l 435 106 q 569 147 519 106 q 639 286 618 188 q 660 556 660 385 q 639 826 660 728 q 569 965 618 924 q 435 1006 519 1006 l 124 1006 l 210 1085 l 210 26 z "},"Ð":{"ha":833,"x_min":28,"x_max":778,"o":"m 100 0 l 100 1111 l 439 1111 q 600 1082 535 1111 q 705 988 665 1053 q 761 816 744 922 q 778 556 778 710 q 761 295 778 401 q 705 124 744 189 q 600 29 665 58 q 439 0 535 0 l 100 0 m 28 535 l 28 640 l 415 640 l 415 535 l 28 535 m 214 26 l 128 106 l 439 106 q 573 147 524 106 q 643 286 622 188 q 664 556 664 385 q 643 826 664 728 q 573 965 622 924 q 439 1006 524 1006 l 128 1006 l 214 1085 l 214 26 z "},"Ď":{"ha":833,"x_min":96,"x_max":774,"o":"m 96 0 l 96 1111 l 435 1111 q 596 1082 531 1111 q 701 988 661 1053 q 757 816 740 922 q 774 556 774 710 q 757 295 774 401 q 701 124 740 189 q 596 29 661 58 q 435 0 531 0 l 96 0 m 210 26 l 124 106 l 435 106 q 569 147 519 106 q 639 286 618 188 q 660 556 660 385 q 639 826 660 728 q 569 965 618 924 q 435 1006 519 1006 l 124 1006 l 210 1085 l 210 26 m 417 1176 l 203 1367 l 290 1436 l 417 1324 l 542 1439 l 631 1369 l 417 1176 z "},"Đ":{"ha":833,"x_min":28,"x_max":778,"o":"m 100 0 l 100 1111 l 439 1111 q 600 1082 535 1111 q 705 988 665 1053 q 761 816 744 922 q 778 556 778 710 q 761 295 778 401 q 705 124 744 189 q 600 29 665 58 q 439 0 535 0 l 100 0 m 28 535 l 28 640 l 415 640 l 415 535 l 28 535 m 214 26 l 128 106 l 439 106 q 573 147 524 106 q 643 286 622 188 q 664 556 664 385 q 643 826 664 728 q 573 965 622 924 q 439 1006 524 1006 l 128 1006 l 214 1085 l 214 26 z "},"E":{"ha":833,"x_min":119,"x_max":753,"o":"m 119 0 l 119 1111 l 753 1111 l 753 1006 l 153 1006 l 233 1086 l 233 564 l 153 640 l 567 640 l 567 535 l 153 535 l 233 611 l 233 29 l 157 106 l 753 106 l 753 0 l 119 0 z "},"É":{"ha":833,"x_min":119,"x_max":753,"o":"m 119 0 l 119 1111 l 753 1111 l 753 1006 l 153 1006 l 233 1086 l 233 564 l 153 640 l 567 640 l 567 535 l 153 535 l 233 611 l 233 29 l 157 106 l 753 106 l 753 0 l 119 0 m 421 1196 l 344 1278 l 565 1469 l 642 1389 l 421 1196 z "},"Ě":{"ha":833,"x_min":119,"x_max":753,"o":"m 119 0 l 119 1111 l 753 1111 l 753 1006 l 153 1006 l 233 1086 l 233 564 l 153 640 l 567 640 l 567 535 l 153 535 l 233 611 l 233 29 l 157 106 l 753 106 l 753 0 l 119 0 m 436 1181 l 222 1371 l 310 1440 l 436 1328 l 561 1443 l 650 1374 l 436 1181 z "},"Ê":{"ha":833,"x_min":119,"x_max":753,"o":"m 119 0 l 119 1111 l 753 1111 l 753 1006 l 153 1006 l 233 1086 l 233 564 l 153 640 l 567 640 l 567 535 l 153 535 l 233 611 l 233 29 l 157 106 l 753 106 l 753 0 l 119 0 m 561 1181 l 436 1294 l 310 1183 l 222 1251 l 436 1442 l 650 1249 l 561 1181 z "},"Ế":{"ha":833,"x_min":119,"x_max":753,"o":"m 119 0 l 119 1111 l 753 1111 l 753 1006 l 153 1006 l 233 1086 l 233 564 l 153 640 l 567 640 l 567 535 l 153 535 l 233 611 l 233 29 l 157 106 l 753 106 l 753 0 l 119 0 m 561 1181 l 436 1294 l 310 1183 l 222 1251 l 436 1442 l 650 1249 l 561 1181 m 421 1481 l 344 1563 l 565 1754 l 642 1674 l 421 1481 z "},"Ệ":{"ha":833,"x_min":119,"x_max":753,"o":"m 119 0 l 119 1111 l 753 1111 l 753 1006 l 153 1006 l 233 1086 l 233 564 l 153 640 l 567 640 l 567 535 l 153 535 l 233 611 l 233 29 l 157 106 l 753 106 l 753 0 l 119 0 m 436 -326 q 358 -306 379 -326 q 338 -233 338 -286 q 358 -159 338 -179 q 436 -139 379 -139 q 514 -159 493 -139 q 535 -233 535 -179 q 514 -306 535 -286 q 436 -326 493 -326 m 561 1181 l 436 1294 l 310 1183 l 222 1251 l 436 1442 l 650 1249 l 561 1181 z "},"Ề":{"ha":833,"x_min":119,"x_max":753,"o":"m 119 0 l 119 1111 l 753 1111 l 753 1006 l 153 1006 l 233 1086 l 233 564 l 153 640 l 567 640 l 567 535 l 153 535 l 233 611 l 233 29 l 157 106 l 753 106 l 753 0 l 119 0 m 561 1181 l 436 1294 l 310 1183 l 222 1251 l 436 1442 l 650 1249 l 561 1181 m 451 1481 l 231 1674 l 307 1754 l 528 1563 l 451 1481 z "},"Ể":{"ha":833,"x_min":119,"x_max":753,"o":"m 119 0 l 119 1111 l 753 1111 l 753 1006 l 153 1006 l 233 1086 l 233 564 l 153 640 l 567 640 l 567 535 l 153 535 l 233 611 l 233 29 l 157 106 l 753 106 l 753 0 l 119 0 m 561 1181 l 436 1294 l 310 1183 l 222 1251 l 436 1442 l 650 1249 l 561 1181 m 397 1454 l 369 1557 q 439 1579 414 1564 q 464 1614 464 1594 q 452 1639 464 1629 q 424 1649 440 1649 q 364 1629 400 1649 q 294 1581 328 1610 l 294 1706 q 356 1742 319 1728 q 424 1756 392 1756 q 535 1719 493 1756 q 578 1622 578 1683 q 529 1516 578 1563 q 397 1454 481 1469 z "},"Ễ":{"ha":833,"x_min":119,"x_max":753,"o":"m 119 0 l 119 1111 l 753 1111 l 753 1006 l 153 1006 l 233 1086 l 233 564 l 153 640 l 567 640 l 567 535 l 153 535 l 233 611 l 233 29 l 157 106 l 753 106 l 753 0 l 119 0 m 561 1181 l 436 1294 l 310 1183 l 222 1251 l 436 1442 l 650 1249 l 561 1181 m 529 1503 q 476 1519 504 1503 q 420 1556 447 1535 q 372 1594 393 1578 q 343 1610 351 1610 q 324 1590 326 1610 q 326 1539 321 1571 l 208 1539 q 240 1667 203 1617 q 343 1717 278 1717 q 397 1701 369 1717 q 451 1663 425 1685 q 497 1626 476 1642 q 529 1610 518 1610 q 549 1628 547 1610 q 546 1676 551 1646 l 663 1676 q 633 1551 669 1600 q 529 1503 596 1503 z "},"Ë":{"ha":833,"x_min":119,"x_max":753,"o":"m 119 0 l 119 1111 l 753 1111 l 753 1006 l 153 1006 l 233 1086 l 233 564 l 153 640 l 567 640 l 567 535 l 153 535 l 233 611 l 233 29 l 157 106 l 753 106 l 753 0 l 119 0 m 586 1250 q 510 1271 533 1250 q 488 1343 488 1292 q 510 1413 488 1392 q 586 1433 533 1433 q 663 1413 640 1433 q 685 1343 685 1392 q 663 1271 685 1292 q 586 1250 640 1250 m 286 1250 q 210 1271 233 1250 q 188 1343 188 1292 q 210 1413 188 1392 q 286 1433 233 1433 q 363 1413 340 1433 q 385 1343 385 1392 q 363 1271 385 1292 q 286 1250 340 1250 z "},"Ė":{"ha":833,"x_min":119,"x_max":753,"o":"m 119 0 l 119 1111 l 753 1111 l 753 1006 l 153 1006 l 233 1086 l 233 564 l 153 640 l 567 640 l 567 535 l 153 535 l 233 611 l 233 29 l 157 106 l 753 106 l 753 0 l 119 0 m 436 1267 q 358 1287 379 1267 q 338 1360 338 1307 q 358 1434 338 1414 q 436 1454 379 1454 q 514 1434 493 1454 q 535 1360 535 1414 q 514 1287 535 1307 q 436 1267 493 1267 z "},"Ẹ":{"ha":833,"x_min":119,"x_max":753,"o":"m 119 0 l 119 1111 l 753 1111 l 753 1006 l 153 1006 l 233 1086 l 233 564 l 153 640 l 567 640 l 567 535 l 153 535 l 233 611 l 233 29 l 157 106 l 753 106 l 753 0 l 119 0 m 436 -326 q 358 -306 379 -326 q 338 -233 338 -286 q 358 -159 338 -179 q 436 -139 379 -139 q 514 -159 493 -139 q 535 -233 535 -179 q 514 -306 535 -286 q 436 -326 493 -326 z "},"È":{"ha":833,"x_min":119,"x_max":753,"o":"m 119 0 l 119 1111 l 753 1111 l 753 1006 l 153 1006 l 233 1086 l 233 564 l 153 640 l 567 640 l 567 535 l 153 535 l 233 611 l 233 29 l 157 106 l 753 106 l 753 0 l 119 0 m 451 1196 l 231 1389 l 307 1469 l 528 1278 l 451 1196 z "},"Ẻ":{"ha":833,"x_min":119,"x_max":753,"o":"m 119 0 l 119 1111 l 753 1111 l 753 1006 l 153 1006 l 233 1086 l 233 564 l 153 640 l 567 640 l 567 535 l 153 535 l 233 611 l 233 29 l 157 106 l 753 106 l 753 0 l 119 0 m 397 1169 l 369 1272 q 439 1294 414 1279 q 464 1329 464 1310 q 452 1354 464 1344 q 424 1364 440 1364 q 364 1344 400 1364 q 294 1296 328 1325 l 294 1421 q 356 1457 319 1443 q 424 1471 392 1471 q 535 1435 493 1471 q 578 1338 578 1399 q 529 1231 578 1278 q 397 1169 481 1185 z "},"Ē":{"ha":833,"x_min":119,"x_max":753,"o":"m 119 0 l 119 1111 l 753 1111 l 753 1006 l 153 1006 l 233 1086 l 233 564 l 153 640 l 567 640 l 567 535 l 153 535 l 233 611 l 233 29 l 157 106 l 753 106 l 753 0 l 119 0 m 224 1242 l 224 1347 l 649 1347 l 649 1242 l 224 1242 z "},"Ę":{"ha":833,"x_min":119,"x_max":771,"o":"m 119 0 l 119 1111 l 753 1111 l 753 1006 l 153 1006 l 233 1086 l 233 564 l 153 640 l 567 640 l 567 535 l 153 535 l 233 611 l 233 29 l 157 106 l 753 106 l 753 0 l 119 0 m 622 -272 q 501 -241 547 -272 q 454 -156 454 -210 q 483 -84 454 -118 q 561 -24 513 -50 q 664 15 610 3 l 753 0 q 650 -51 692 -28 q 588 -92 608 -74 q 568 -132 567 -111 q 581 -157 568 -147 q 624 -167 594 -167 q 662 -158 643 -167 q 693 -139 681 -150 l 771 -214 q 706 -256 747 -240 q 622 -272 665 -272 z "},"Ẽ":{"ha":833,"x_min":119,"x_max":753,"o":"m 119 0 l 119 1111 l 753 1111 l 753 1006 l 153 1006 l 233 1086 l 233 564 l 153 640 l 567 640 l 567 535 l 153 535 l 233 611 l 233 29 l 157 106 l 753 106 l 753 0 l 119 0 m 529 1218 q 476 1234 504 1218 q 420 1272 447 1250 q 372 1309 393 1293 q 343 1325 351 1325 q 324 1306 326 1325 q 326 1254 321 1286 l 208 1254 q 240 1382 203 1332 q 343 1432 278 1432 q 397 1416 369 1432 q 451 1378 425 1400 q 497 1341 476 1357 q 529 1325 518 1325 q 549 1343 547 1325 q 546 1392 551 1361 l 663 1392 q 633 1267 669 1315 q 529 1218 596 1218 z "},"F":{"ha":833,"x_min":121,"x_max":754,"o":"m 121 0 l 121 1111 l 754 1111 l 754 1006 l 154 1006 l 235 1086 l 235 494 l 154 576 l 568 576 l 568 471 l 154 471 l 235 553 l 235 0 l 121 0 z "},"G":{"ha":833,"x_min":74,"x_max":778,"o":"m 443 -19 q 266 9 338 -19 q 152 103 194 38 q 92 281 110 169 q 74 556 74 392 q 92 831 74 719 q 152 1008 110 942 q 266 1102 194 1074 q 443 1131 338 1131 q 606 1104 543 1131 q 709 1015 669 1078 q 778 843 749 953 l 667 815 q 619 940 647 894 q 550 1006 592 986 q 443 1025 508 1025 q 291 982 347 1025 q 211 837 235 939 q 188 556 188 735 q 211 275 188 378 q 291 129 235 172 q 443 86 347 86 q 538 101 500 86 q 601 150 575 115 q 649 243 628 185 l 649 471 l 407 471 l 407 576 l 763 576 l 763 228 q 694 81 733 135 q 594 3 654 26 q 443 -19 535 -19 z "},"Ğ":{"ha":833,"x_min":74,"x_max":778,"o":"m 443 -19 q 266 9 338 -19 q 152 103 194 38 q 92 281 110 169 q 74 556 74 392 q 92 831 74 719 q 152 1008 110 942 q 266 1102 194 1074 q 443 1131 338 1131 q 606 1104 543 1131 q 709 1015 669 1078 q 778 843 749 953 l 667 815 q 619 940 647 894 q 550 1006 592 986 q 443 1025 508 1025 q 291 982 347 1025 q 211 837 235 939 q 188 556 188 735 q 211 275 188 378 q 291 129 235 172 q 443 86 347 86 q 538 101 500 86 q 601 150 575 115 q 649 243 628 185 l 649 471 l 407 471 l 407 576 l 763 576 l 763 228 q 694 81 733 135 q 594 3 654 26 q 443 -19 535 -19 m 417 1183 q 260 1228 303 1183 q 222 1385 218 1274 l 338 1385 q 341 1325 336 1346 q 363 1297 346 1304 q 417 1289 381 1289 q 472 1297 454 1289 q 494 1325 489 1304 q 499 1385 500 1346 l 613 1385 q 575 1228 618 1274 q 417 1183 532 1183 z "},"Ĝ":{"ha":833,"x_min":74,"x_max":778,"o":"m 443 -19 q 266 9 338 -19 q 152 103 194 38 q 92 281 110 169 q 74 556 74 392 q 92 831 74 719 q 152 1008 110 942 q 266 1102 194 1074 q 443 1131 338 1131 q 606 1104 543 1131 q 709 1015 669 1078 q 778 843 749 953 l 667 815 q 619 940 647 894 q 550 1006 592 986 q 443 1025 508 1025 q 291 982 347 1025 q 211 837 235 939 q 188 556 188 735 q 211 275 188 378 q 291 129 235 172 q 443 86 347 86 q 538 101 500 86 q 601 150 575 115 q 649 243 628 185 l 649 471 l 407 471 l 407 576 l 763 576 l 763 228 q 694 81 733 135 q 594 3 654 26 q 443 -19 535 -19 m 542 1176 l 417 1290 l 290 1179 l 203 1247 l 417 1438 l 631 1244 l 542 1176 z "},"Ģ":{"ha":833,"x_min":74,"x_max":778,"o":"m 443 -19 q 266 9 338 -19 q 152 103 194 38 q 92 281 110 169 q 74 556 74 392 q 92 831 74 719 q 152 1008 110 942 q 266 1102 194 1074 q 443 1131 338 1131 q 606 1104 543 1131 q 709 1015 669 1078 q 778 843 749 953 l 667 815 q 619 940 647 894 q 550 1006 592 986 q 443 1025 508 1025 q 291 982 347 1025 q 211 837 235 939 q 188 556 188 735 q 211 275 188 378 q 291 129 235 172 q 443 86 347 86 q 538 101 500 86 q 601 150 575 115 q 649 243 628 185 l 649 471 l 407 471 l 407 576 l 763 576 l 763 228 q 694 81 733 135 q 594 3 654 26 q 443 -19 535 -19 m 325 -342 l 392 -168 q 360 -106 360 -156 q 377 -52 360 -68 q 435 -36 394 -36 q 492 -52 475 -36 q 508 -106 508 -68 q 492 -176 508 -135 q 451 -260 475 -217 q 403 -342 426 -304 l 325 -342 z "},"Ġ":{"ha":833,"x_min":74,"x_max":778,"o":"m 443 -19 q 266 9 338 -19 q 152 103 194 38 q 92 281 110 169 q 74 556 74 392 q 92 831 74 719 q 152 1008 110 942 q 266 1102 194 1074 q 443 1131 338 1131 q 606 1104 543 1131 q 709 1015 669 1078 q 778 843 749 953 l 667 815 q 619 940 647 894 q 550 1006 592 986 q 443 1025 508 1025 q 291 982 347 1025 q 211 837 235 939 q 188 556 188 735 q 211 275 188 378 q 291 129 235 172 q 443 86 347 86 q 538 101 500 86 q 601 150 575 115 q 649 243 628 185 l 649 471 l 407 471 l 407 576 l 763 576 l 763 228 q 694 81 733 135 q 594 3 654 26 q 443 -19 535 -19 m 417 1263 q 339 1283 360 1263 q 318 1356 318 1303 q 339 1430 318 1410 q 417 1450 360 1450 q 494 1430 474 1450 q 515 1356 515 1410 q 494 1283 515 1303 q 417 1263 474 1263 z "},"H":{"ha":833,"x_min":94,"x_max":739,"o":"m 625 0 l 625 1111 l 739 1111 l 739 0 l 625 0 m 94 0 l 94 1111 l 208 1111 l 208 0 l 94 0 m 135 535 l 135 640 l 699 640 l 699 535 l 135 535 z "},"Ħ":{"ha":833,"x_min":28,"x_max":806,"o":"m 28 767 l 28 872 l 806 872 l 806 767 l 28 767 m 625 0 l 625 1111 l 739 1111 l 739 0 l 625 0 m 94 0 l 94 1111 l 208 1111 l 208 0 l 94 0 m 135 535 l 135 640 l 699 640 l 699 535 l 135 535 z "},"Ĥ":{"ha":833,"x_min":94,"x_max":739,"o":"m 625 0 l 625 1111 l 739 1111 l 739 0 l 625 0 m 94 0 l 94 1111 l 208 1111 l 208 0 l 94 0 m 135 535 l 135 640 l 699 640 l 699 535 l 135 535 m 542 1176 l 417 1290 l 290 1179 l 203 1247 l 417 1438 l 631 1244 l 542 1176 z "},"I":{"ha":833,"x_min":135,"x_max":699,"o":"m 360 0 l 360 1111 l 474 1111 l 474 0 l 360 0 m 135 0 l 135 106 l 699 106 l 699 0 l 135 0 m 135 1006 l 135 1111 l 699 1111 l 699 1006 l 135 1006 z "},"Ĳ":{"ha":833,"x_min":32,"x_max":804,"o":"m 257 0 l 257 1111 l 372 1111 l 372 0 l 257 0 m 32 0 l 32 106 l 315 106 l 315 0 l 32 0 m 32 1006 l 32 1111 l 597 1111 l 597 1006 l 32 1006 m 233 -157 l 311 -75 q 368 -104 335 -96 q 447 -112 401 -112 q 592 -75 539 -112 q 667 53 644 -37 q 689 306 689 143 l 689 1006 l 507 1006 l 507 1111 l 804 1111 l 804 306 q 771 -6 804 110 q 660 -169 738 -121 q 447 -218 582 -218 q 323 -203 375 -218 q 233 -157 271 -189 z "},"Í":{"ha":833,"x_min":135,"x_max":699,"o":"m 360 0 l 360 1111 l 474 1111 l 474 0 l 360 0 m 135 0 l 135 106 l 699 106 l 699 0 l 135 0 m 135 1006 l 135 1111 l 699 1111 l 699 1006 l 135 1006 m 401 1196 l 325 1278 l 546 1469 l 622 1389 l 401 1196 z "},"Ǐ":{"ha":833,"x_min":135,"x_max":699,"o":"m 360 0 l 360 1111 l 474 1111 l 474 0 l 360 0 m 135 0 l 135 106 l 699 106 l 699 0 l 135 0 m 135 1006 l 135 1111 l 699 1111 l 699 1006 l 135 1006 m 417 1181 l 203 1371 l 290 1440 l 417 1328 l 542 1443 l 631 1374 l 417 1181 z "},"Î":{"ha":833,"x_min":135,"x_max":699,"o":"m 360 0 l 360 1111 l 474 1111 l 474 0 l 360 0 m 135 0 l 135 106 l 699 106 l 699 0 l 135 0 m 135 1006 l 135 1111 l 699 1111 l 699 1006 l 135 1006 m 542 1181 l 417 1294 l 290 1183 l 203 1251 l 417 1442 l 631 1249 l 542 1181 z "},"Ï":{"ha":833,"x_min":135,"x_max":699,"o":"m 360 0 l 360 1111 l 474 1111 l 474 0 l 360 0 m 135 0 l 135 106 l 699 106 l 699 0 l 135 0 m 135 1006 l 135 1111 l 699 1111 l 699 1006 l 135 1006 m 567 1250 q 491 1271 514 1250 q 468 1343 468 1292 q 491 1413 468 1392 q 567 1433 514 1433 q 643 1413 621 1433 q 665 1343 665 1392 q 643 1271 665 1292 q 567 1250 621 1250 m 267 1250 q 191 1271 214 1250 q 168 1343 168 1292 q 191 1413 168 1392 q 267 1433 214 1433 q 343 1413 321 1433 q 365 1343 365 1392 q 343 1271 365 1292 q 267 1250 321 1250 z "},"İ":{"ha":833,"x_min":135,"x_max":699,"o":"m 360 0 l 360 1111 l 474 1111 l 474 0 l 360 0 m 135 0 l 135 106 l 699 106 l 699 0 l 135 0 m 135 1006 l 135 1111 l 699 1111 l 699 1006 l 135 1006 m 417 1267 q 339 1287 360 1267 q 318 1360 318 1307 q 339 1434 318 1414 q 417 1454 360 1454 q 494 1434 474 1454 q 515 1360 515 1414 q 494 1287 515 1307 q 417 1267 474 1267 z "},"Ị":{"ha":833,"x_min":135,"x_max":699,"o":"m 360 0 l 360 1111 l 474 1111 l 474 0 l 360 0 m 135 0 l 135 106 l 699 106 l 699 0 l 135 0 m 135 1006 l 135 1111 l 699 1111 l 699 1006 l 135 1006 m 417 -326 q 339 -306 360 -326 q 318 -233 318 -286 q 339 -159 318 -179 q 417 -139 360 -139 q 494 -159 474 -139 q 515 -233 515 -179 q 494 -306 515 -286 q 417 -326 474 -326 z "},"Ì":{"ha":833,"x_min":135,"x_max":699,"o":"m 360 0 l 360 1111 l 474 1111 l 474 0 l 360 0 m 135 0 l 135 106 l 699 106 l 699 0 l 135 0 m 135 1006 l 135 1111 l 699 1111 l 699 1006 l 135 1006 m 432 1196 l 211 1389 l 288 1469 l 508 1278 l 432 1196 z "},"Ỉ":{"ha":833,"x_min":135,"x_max":699,"o":"m 360 0 l 360 1111 l 474 1111 l 474 0 l 360 0 m 135 0 l 135 106 l 699 106 l 699 0 l 135 0 m 135 1006 l 135 1111 l 699 1111 l 699 1006 l 135 1006 m 378 1169 l 350 1272 q 419 1294 394 1279 q 444 1329 444 1310 q 433 1354 444 1344 q 404 1364 421 1364 q 344 1344 381 1364 q 275 1296 308 1325 l 275 1421 q 336 1457 300 1443 q 404 1471 372 1471 q 516 1435 474 1471 q 558 1338 558 1399 q 510 1231 558 1278 q 378 1169 461 1185 z "},"Ī":{"ha":833,"x_min":135,"x_max":699,"o":"m 360 0 l 360 1111 l 474 1111 l 474 0 l 360 0 m 135 0 l 135 106 l 699 106 l 699 0 l 135 0 m 135 1006 l 135 1111 l 699 1111 l 699 1006 l 135 1006 m 204 1242 l 204 1347 l 629 1347 l 629 1242 l 204 1242 z "},"Į":{"ha":833,"x_min":135,"x_max":699,"o":"m 360 0 l 360 1111 l 474 1111 l 474 0 l 360 0 m 135 0 l 135 106 l 699 106 l 699 0 l 135 0 m 135 1006 l 135 1111 l 699 1111 l 699 1006 l 135 1006 m 411 -272 q 290 -241 336 -272 q 243 -156 243 -210 q 272 -84 243 -118 q 350 -24 301 -50 q 453 15 399 3 l 542 0 q 439 -51 481 -28 q 376 -92 397 -74 q 357 -132 356 -111 q 370 -157 357 -147 q 413 -167 383 -167 q 451 -158 432 -167 q 482 -139 469 -150 l 560 -214 q 495 -256 536 -240 q 411 -272 454 -272 z "},"Ĩ":{"ha":833,"x_min":135,"x_max":699,"o":"m 360 0 l 360 1111 l 474 1111 l 474 0 l 360 0 m 135 0 l 135 106 l 699 106 l 699 0 l 135 0 m 135 1006 l 135 1111 l 699 1111 l 699 1006 l 135 1006 m 510 1218 q 456 1234 485 1218 q 401 1272 428 1250 q 353 1309 374 1293 q 324 1325 332 1325 q 304 1306 307 1325 q 307 1254 301 1286 l 189 1254 q 221 1382 183 1332 q 324 1432 258 1432 q 378 1416 350 1432 q 431 1378 406 1400 q 478 1341 457 1357 q 510 1325 499 1325 q 530 1343 528 1325 q 526 1392 532 1361 l 643 1392 q 613 1267 650 1315 q 510 1218 576 1218 z "},"J":{"ha":833,"x_min":49,"x_max":722,"o":"m 367 -19 q 213 4 274 -19 q 115 84 153 28 q 49 238 78 140 l 157 267 q 203 158 178 197 q 266 102 228 118 q 367 86 304 86 q 511 124 458 86 q 586 252 564 161 q 608 504 608 343 l 608 1006 l 426 1006 l 426 1111 l 722 1111 l 722 504 q 690 194 722 308 q 579 30 657 79 q 367 -19 501 -19 z "},"Ĵ":{"ha":833,"x_min":49,"x_max":797,"o":"m 367 -19 q 213 4 274 -19 q 115 84 153 28 q 49 238 78 140 l 157 267 q 203 158 178 197 q 266 102 228 118 q 367 86 304 86 q 511 124 458 86 q 586 252 564 161 q 608 504 608 343 l 608 1006 l 426 1006 l 426 1111 l 722 1111 l 722 504 q 690 194 722 308 q 579 30 657 79 q 367 -19 501 -19 m 707 1176 l 582 1290 l 456 1179 l 368 1247 l 582 1438 l 796 1244 l 707 1176 z "},"K":{"ha":833,"x_min":103,"x_max":811,"o":"m 139 535 l 139 640 l 271 640 l 668 1111 l 811 1111 l 325 535 l 139 535 m 103 0 l 103 1111 l 217 1111 l 217 0 l 103 0 m 678 0 l 289 588 l 365 675 l 811 0 l 678 0 z "},"Ķ":{"ha":833,"x_min":103,"x_max":811,"o":"m 139 535 l 139 640 l 271 640 l 668 1111 l 811 1111 l 325 535 l 139 535 m 103 0 l 103 1111 l 217 1111 l 217 0 l 103 0 m 678 0 l 289 588 l 365 675 l 811 0 l 678 0 m 325 -342 l 392 -168 q 360 -106 360 -156 q 377 -52 360 -68 q 435 -36 394 -36 q 492 -52 475 -36 q 508 -106 508 -68 q 492 -176 508 -135 q 451 -260 475 -217 q 403 -342 426 -304 l 325 -342 z "},"L":{"ha":833,"x_min":146,"x_max":725,"o":"m 146 0 l 146 1111 l 260 1111 l 260 106 l 725 106 l 725 0 l 146 0 z "},"Ĺ":{"ha":833,"x_min":142,"x_max":725,"o":"m 146 0 l 146 1111 l 260 1111 l 260 106 l 725 106 l 725 0 l 146 0 m 218 1192 l 142 1274 l 363 1465 l 439 1385 l 218 1192 z "},"Ľ":{"ha":833,"x_min":146,"x_max":725,"o":"m 146 0 l 146 1111 l 260 1111 l 260 106 l 725 106 l 725 0 l 146 0 m 432 736 l 418 1111 l 535 1111 l 522 736 l 432 736 z "},"Ļ":{"ha":833,"x_min":146,"x_max":725,"o":"m 146 0 l 146 1111 l 260 1111 l 260 106 l 725 106 l 725 0 l 146 0 m 325 -342 l 392 -168 q 360 -106 360 -156 q 377 -52 360 -68 q 435 -36 394 -36 q 492 -52 475 -36 q 508 -106 508 -68 q 492 -176 508 -135 q 451 -260 475 -217 q 403 -342 426 -304 l 325 -342 z "},"Ł":{"ha":833,"x_min":51,"x_max":767,"o":"m 188 0 l 188 1111 l 301 1111 l 301 106 l 767 106 l 767 0 l 188 0 m 51 528 l 51 639 l 488 817 l 488 706 l 51 528 z "},"M":{"ha":833,"x_min":61,"x_max":772,"o":"m 61 0 l 81 1111 l 190 1111 l 417 528 l 643 1111 l 753 1111 l 772 0 l 658 0 l 643 815 l 468 343 l 365 343 l 190 815 l 175 0 l 61 0 z "},"N":{"ha":833,"x_min":97,"x_max":736,"o":"m 97 0 l 97 1111 l 219 1111 l 736 0 l 622 0 l 622 1111 l 736 1111 l 736 0 l 614 0 l 97 1111 l 211 1111 l 211 0 l 97 0 z "},"Ń":{"ha":833,"x_min":97,"x_max":736,"o":"m 97 0 l 97 1111 l 219 1111 l 736 0 l 622 0 l 622 1111 l 736 1111 l 736 0 l 614 0 l 97 1111 l 211 1111 l 211 0 l 97 0 m 401 1196 l 325 1278 l 546 1469 l 622 1389 l 401 1196 z "},"Ň":{"ha":833,"x_min":97,"x_max":736,"o":"m 97 0 l 97 1111 l 219 1111 l 736 0 l 622 0 l 622 1111 l 736 1111 l 736 0 l 614 0 l 97 1111 l 211 1111 l 211 0 l 97 0 m 417 1181 l 203 1371 l 290 1440 l 417 1328 l 542 1443 l 631 1374 l 417 1181 z "},"Ņ":{"ha":833,"x_min":97,"x_max":736,"o":"m 97 0 l 97 1111 l 219 1111 l 736 0 l 622 0 l 622 1111 l 736 1111 l 736 0 l 614 0 l 97 1111 l 211 1111 l 211 0 l 97 0 m 325 -346 l 392 -172 q 360 -110 360 -160 q 377 -56 360 -72 q 435 -40 394 -40 q 492 -56 475 -40 q 508 -110 508 -72 q 492 -180 508 -139 q 451 -265 475 -221 q 403 -346 426 -308 l 325 -346 z "},"Ŋ":{"ha":833,"x_min":97,"x_max":736,"o":"m 494 -236 l 494 -129 q 581 -107 553 -129 q 617 -54 610 -85 q 614 0 624 -24 l 736 0 q 726 -103 736 -60 q 688 -176 715 -147 q 614 -221 661 -206 q 494 -236 567 -236 m 97 0 l 97 1111 l 219 1111 l 736 0 l 622 0 l 622 1111 l 736 1111 l 736 0 l 614 0 l 97 1111 l 211 1111 l 211 0 l 97 0 z "},"Ñ":{"ha":833,"x_min":97,"x_max":736,"o":"m 97 0 l 97 1111 l 219 1111 l 736 0 l 622 0 l 622 1111 l 736 1111 l 736 0 l 614 0 l 97 1111 l 211 1111 l 211 0 l 97 0 m 510 1218 q 456 1234 485 1218 q 401 1272 428 1250 q 353 1309 374 1293 q 324 1325 332 1325 q 304 1306 307 1325 q 307 1254 301 1286 l 189 1254 q 221 1382 183 1332 q 324 1432 258 1432 q 378 1416 350 1432 q 431 1378 406 1400 q 478 1341 457 1357 q 510 1325 499 1325 q 530 1343 528 1325 q 526 1392 532 1361 l 643 1392 q 613 1267 650 1315 q 510 1218 576 1218 z "},"O":{"ha":833,"x_min":71,"x_max":763,"o":"m 417 -19 q 210 31 286 -19 q 103 194 135 81 q 71 500 71 308 l 71 611 q 103 917 71 803 q 210 1081 135 1031 q 417 1131 286 1131 q 623 1081 547 1131 q 731 917 699 1031 q 763 611 763 803 l 763 500 q 731 194 763 308 q 623 31 699 81 q 417 -19 547 -19 m 417 86 q 556 124 506 86 q 627 252 606 161 q 649 500 649 343 l 649 611 q 627 860 649 769 q 556 988 606 950 q 417 1025 506 1025 q 277 988 328 1025 q 206 860 226 950 q 185 611 185 769 l 185 500 q 207 252 186 343 q 278 124 228 161 q 417 86 329 86 z "},"Ó":{"ha":833,"x_min":71,"x_max":763,"o":"m 417 -19 q 210 31 286 -19 q 103 194 135 81 q 71 500 71 308 l 71 611 q 103 917 71 803 q 210 1081 135 1031 q 417 1131 286 1131 q 623 1081 547 1131 q 731 917 699 1031 q 763 611 763 803 l 763 500 q 731 194 763 308 q 623 31 699 81 q 417 -19 547 -19 m 417 86 q 556 124 506 86 q 627 252 606 161 q 649 500 649 343 l 649 611 q 627 860 649 769 q 556 988 606 950 q 417 1025 506 1025 q 277 988 328 1025 q 206 860 226 950 q 185 611 185 769 l 185 500 q 207 252 186 343 q 278 124 228 161 q 417 86 329 86 m 401 1196 l 325 1278 l 546 1469 l 622 1389 l 401 1196 z "},"Ǒ":{"ha":833,"x_min":71,"x_max":763,"o":"m 417 -19 q 210 31 286 -19 q 103 194 135 81 q 71 500 71 308 l 71 611 q 103 917 71 803 q 210 1081 135 1031 q 417 1131 286 1131 q 623 1081 547 1131 q 731 917 699 1031 q 763 611 763 803 l 763 500 q 731 194 763 308 q 623 31 699 81 q 417 -19 547 -19 m 417 86 q 556 124 506 86 q 627 252 606 161 q 649 500 649 343 l 649 611 q 627 860 649 769 q 556 988 606 950 q 417 1025 506 1025 q 277 988 328 1025 q 206 860 226 950 q 185 611 185 769 l 185 500 q 207 252 186 343 q 278 124 228 161 q 417 86 329 86 m 417 1181 l 203 1371 l 290 1440 l 417 1328 l 542 1443 l 631 1374 l 417 1181 z "},"Ô":{"ha":833,"x_min":71,"x_max":763,"o":"m 417 -19 q 210 31 286 -19 q 103 194 135 81 q 71 500 71 308 l 71 611 q 103 917 71 803 q 210 1081 135 1031 q 417 1131 286 1131 q 623 1081 547 1131 q 731 917 699 1031 q 763 611 763 803 l 763 500 q 731 194 763 308 q 623 31 699 81 q 417 -19 547 -19 m 417 86 q 556 124 506 86 q 627 252 606 161 q 649 500 649 343 l 649 611 q 627 860 649 769 q 556 988 606 950 q 417 1025 506 1025 q 277 988 328 1025 q 206 860 226 950 q 185 611 185 769 l 185 500 q 207 252 186 343 q 278 124 228 161 q 417 86 329 86 m 542 1181 l 417 1294 l 290 1183 l 203 1251 l 417 1442 l 631 1249 l 542 1181 z "},"Ố":{"ha":833,"x_min":71,"x_max":763,"o":"m 417 -19 q 210 31 286 -19 q 103 194 135 81 q 71 500 71 308 l 71 611 q 103 917 71 803 q 210 1081 135 1031 q 417 1131 286 1131 q 623 1081 547 1131 q 731 917 699 1031 q 763 611 763 803 l 763 500 q 731 194 763 308 q 623 31 699 81 q 417 -19 547 -19 m 417 86 q 556 124 506 86 q 627 252 606 161 q 649 500 649 343 l 649 611 q 627 860 649 769 q 556 988 606 950 q 417 1025 506 1025 q 277 988 328 1025 q 206 860 226 950 q 185 611 185 769 l 185 500 q 207 252 186 343 q 278 124 228 161 q 417 86 329 86 m 542 1181 l 417 1294 l 290 1183 l 203 1251 l 417 1442 l 631 1249 l 542 1181 m 401 1481 l 325 1563 l 546 1754 l 622 1674 l 401 1481 z "},"Ộ":{"ha":833,"x_min":71,"x_max":763,"o":"m 417 -19 q 210 31 286 -19 q 103 194 135 81 q 71 500 71 308 l 71 611 q 103 917 71 803 q 210 1081 135 1031 q 417 1131 286 1131 q 623 1081 547 1131 q 731 917 699 1031 q 763 611 763 803 l 763 500 q 731 194 763 308 q 623 31 699 81 q 417 -19 547 -19 m 417 86 q 556 124 506 86 q 627 252 606 161 q 649 500 649 343 l 649 611 q 627 860 649 769 q 556 988 606 950 q 417 1025 506 1025 q 277 988 328 1025 q 206 860 226 950 q 185 611 185 769 l 185 500 q 207 252 186 343 q 278 124 228 161 q 417 86 329 86 m 417 -326 q 339 -306 360 -326 q 318 -233 318 -286 q 339 -159 318 -179 q 417 -139 360 -139 q 494 -159 474 -139 q 515 -233 515 -179 q 494 -306 515 -286 q 417 -326 474 -326 m 542 1181 l 417 1294 l 290 1183 l 203 1251 l 417 1442 l 631 1249 l 542 1181 z "},"Ồ":{"ha":833,"x_min":71,"x_max":763,"o":"m 417 -19 q 210 31 286 -19 q 103 194 135 81 q 71 500 71 308 l 71 611 q 103 917 71 803 q 210 1081 135 1031 q 417 1131 286 1131 q 623 1081 547 1131 q 731 917 699 1031 q 763 611 763 803 l 763 500 q 731 194 763 308 q 623 31 699 81 q 417 -19 547 -19 m 417 86 q 556 124 506 86 q 627 252 606 161 q 649 500 649 343 l 649 611 q 627 860 649 769 q 556 988 606 950 q 417 1025 506 1025 q 277 988 328 1025 q 206 860 226 950 q 185 611 185 769 l 185 500 q 207 252 186 343 q 278 124 228 161 q 417 86 329 86 m 542 1181 l 417 1294 l 290 1183 l 203 1251 l 417 1442 l 631 1249 l 542 1181 m 432 1481 l 211 1674 l 288 1754 l 508 1563 l 432 1481 z "},"Ổ":{"ha":833,"x_min":71,"x_max":763,"o":"m 417 -19 q 210 31 286 -19 q 103 194 135 81 q 71 500 71 308 l 71 611 q 103 917 71 803 q 210 1081 135 1031 q 417 1131 286 1131 q 623 1081 547 1131 q 731 917 699 1031 q 763 611 763 803 l 763 500 q 731 194 763 308 q 623 31 699 81 q 417 -19 547 -19 m 417 86 q 556 124 506 86 q 627 252 606 161 q 649 500 649 343 l 649 611 q 627 860 649 769 q 556 988 606 950 q 417 1025 506 1025 q 277 988 328 1025 q 206 860 226 950 q 185 611 185 769 l 185 500 q 207 252 186 343 q 278 124 228 161 q 417 86 329 86 m 542 1181 l 417 1294 l 290 1183 l 203 1251 l 417 1442 l 631 1249 l 542 1181 m 378 1454 l 350 1557 q 419 1579 394 1564 q 444 1614 444 1594 q 433 1639 444 1629 q 404 1649 421 1649 q 344 1629 381 1649 q 275 1581 308 1610 l 275 1706 q 336 1742 300 1728 q 404 1756 372 1756 q 516 1719 474 1756 q 558 1622 558 1683 q 510 1516 558 1563 q 378 1454 461 1469 z "},"Ỗ":{"ha":833,"x_min":71,"x_max":763,"o":"m 417 -19 q 210 31 286 -19 q 103 194 135 81 q 71 500 71 308 l 71 611 q 103 917 71 803 q 210 1081 135 1031 q 417 1131 286 1131 q 623 1081 547 1131 q 731 917 699 1031 q 763 611 763 803 l 763 500 q 731 194 763 308 q 623 31 699 81 q 417 -19 547 -19 m 417 86 q 556 124 506 86 q 627 252 606 161 q 649 500 649 343 l 649 611 q 627 860 649 769 q 556 988 606 950 q 417 1025 506 1025 q 277 988 328 1025 q 206 860 226 950 q 185 611 185 769 l 185 500 q 207 252 186 343 q 278 124 228 161 q 417 86 329 86 m 542 1181 l 417 1294 l 290 1183 l 203 1251 l 417 1442 l 631 1249 l 542 1181 m 510 1503 q 456 1519 485 1503 q 401 1556 428 1535 q 353 1594 374 1578 q 324 1610 332 1610 q 304 1590 307 1610 q 307 1539 301 1571 l 189 1539 q 221 1667 183 1617 q 324 1717 258 1717 q 378 1701 350 1717 q 431 1663 406 1685 q 478 1626 457 1642 q 510 1610 499 1610 q 530 1628 528 1610 q 526 1676 532 1646 l 643 1676 q 613 1551 650 1600 q 510 1503 576 1503 z "},"Ö":{"ha":833,"x_min":71,"x_max":763,"o":"m 417 -19 q 210 31 286 -19 q 103 194 135 81 q 71 500 71 308 l 71 611 q 103 917 71 803 q 210 1081 135 1031 q 417 1131 286 1131 q 623 1081 547 1131 q 731 917 699 1031 q 763 611 763 803 l 763 500 q 731 194 763 308 q 623 31 699 81 q 417 -19 547 -19 m 417 86 q 556 124 506 86 q 627 252 606 161 q 649 500 649 343 l 649 611 q 627 860 649 769 q 556 988 606 950 q 417 1025 506 1025 q 277 988 328 1025 q 206 860 226 950 q 185 611 185 769 l 185 500 q 207 252 186 343 q 278 124 228 161 q 417 86 329 86 m 567 1250 q 491 1271 514 1250 q 468 1343 468 1292 q 491 1413 468 1392 q 567 1433 514 1433 q 643 1413 621 1433 q 665 1343 665 1392 q 643 1271 665 1292 q 567 1250 621 1250 m 267 1250 q 191 1271 214 1250 q 168 1343 168 1292 q 191 1413 168 1392 q 267 1433 214 1433 q 343 1413 321 1433 q 365 1343 365 1392 q 343 1271 365 1292 q 267 1250 321 1250 z "},"Ọ":{"ha":833,"x_min":71,"x_max":763,"o":"m 417 -19 q 210 31 286 -19 q 103 194 135 81 q 71 500 71 308 l 71 611 q 103 917 71 803 q 210 1081 135 1031 q 417 1131 286 1131 q 623 1081 547 1131 q 731 917 699 1031 q 763 611 763 803 l 763 500 q 731 194 763 308 q 623 31 699 81 q 417 -19 547 -19 m 417 86 q 556 124 506 86 q 627 252 606 161 q 649 500 649 343 l 649 611 q 627 860 649 769 q 556 988 606 950 q 417 1025 506 1025 q 277 988 328 1025 q 206 860 226 950 q 185 611 185 769 l 185 500 q 207 252 186 343 q 278 124 228 161 q 417 86 329 86 m 417 -326 q 339 -306 360 -326 q 318 -233 318 -286 q 339 -159 318 -179 q 417 -139 360 -139 q 494 -159 474 -139 q 515 -233 515 -179 q 494 -306 515 -286 q 417 -326 474 -326 z "},"Ò":{"ha":833,"x_min":71,"x_max":763,"o":"m 417 -19 q 210 31 286 -19 q 103 194 135 81 q 71 500 71 308 l 71 611 q 103 917 71 803 q 210 1081 135 1031 q 417 1131 286 1131 q 623 1081 547 1131 q 731 917 699 1031 q 763 611 763 803 l 763 500 q 731 194 763 308 q 623 31 699 81 q 417 -19 547 -19 m 417 86 q 556 124 506 86 q 627 252 606 161 q 649 500 649 343 l 649 611 q 627 860 649 769 q 556 988 606 950 q 417 1025 506 1025 q 277 988 328 1025 q 206 860 226 950 q 185 611 185 769 l 185 500 q 207 252 186 343 q 278 124 228 161 q 417 86 329 86 m 432 1196 l 211 1389 l 288 1469 l 508 1278 l 432 1196 z "},"Ỏ":{"ha":833,"x_min":71,"x_max":763,"o":"m 417 -19 q 210 31 286 -19 q 103 194 135 81 q 71 500 71 308 l 71 611 q 103 917 71 803 q 210 1081 135 1031 q 417 1131 286 1131 q 623 1081 547 1131 q 731 917 699 1031 q 763 611 763 803 l 763 500 q 731 194 763 308 q 623 31 699 81 q 417 -19 547 -19 m 417 86 q 556 124 506 86 q 627 252 606 161 q 649 500 649 343 l 649 611 q 627 860 649 769 q 556 988 606 950 q 417 1025 506 1025 q 277 988 328 1025 q 206 860 226 950 q 185 611 185 769 l 185 500 q 207 252 186 343 q 278 124 228 161 q 417 86 329 86 m 378 1169 l 350 1272 q 419 1294 394 1279 q 444 1329 444 1310 q 433 1354 444 1344 q 404 1364 421 1364 q 344 1344 381 1364 q 275 1296 308 1325 l 275 1421 q 336 1457 300 1443 q 404 1471 372 1471 q 516 1435 474 1471 q 558 1338 558 1399 q 510 1231 558 1278 q 378 1169 461 1185 z "},"Ơ":{"ha":833,"x_min":71,"x_max":954,"o":"m 417 -19 q 210 31 286 -19 q 103 194 135 81 q 71 500 71 308 l 71 611 q 103 917 71 803 q 210 1081 135 1031 q 417 1131 286 1131 q 623 1081 547 1131 q 731 917 699 1031 q 763 611 763 803 l 763 500 q 731 194 763 308 q 623 31 699 81 q 417 -19 547 -19 m 417 86 q 556 124 506 86 q 627 252 606 161 q 649 500 649 343 l 649 611 q 627 860 649 769 q 556 988 606 950 q 417 1025 506 1025 q 277 988 328 1025 q 206 860 226 950 q 185 611 185 769 l 185 500 q 207 252 186 343 q 278 124 228 161 q 417 86 329 86 m 783 878 q 722 892 754 878 q 669 929 690 907 l 669 1036 q 727 992 697 1001 q 774 983 757 983 q 823 1006 807 983 q 839 1068 839 1029 l 839 1269 l 954 1269 l 954 1068 q 907 931 954 983 q 783 878 860 878 z "},"Ớ":{"ha":833,"x_min":71,"x_max":954,"o":"m 417 -19 q 210 31 286 -19 q 103 194 135 81 q 71 500 71 308 l 71 611 q 103 917 71 803 q 210 1081 135 1031 q 417 1131 286 1131 q 623 1081 547 1131 q 731 917 699 1031 q 763 611 763 803 l 763 500 q 731 194 763 308 q 623 31 699 81 q 417 -19 547 -19 m 417 86 q 556 124 506 86 q 627 252 606 161 q 649 500 649 343 l 649 611 q 627 860 649 769 q 556 988 606 950 q 417 1025 506 1025 q 277 988 328 1025 q 206 860 226 950 q 185 611 185 769 l 185 500 q 207 252 186 343 q 278 124 228 161 q 417 86 329 86 m 783 878 q 722 892 754 878 q 669 929 690 907 l 669 1036 q 727 992 697 1001 q 774 983 757 983 q 823 1006 807 983 q 839 1068 839 1029 l 839 1269 l 954 1269 l 954 1068 q 907 931 954 983 q 783 878 860 878 m 401 1196 l 325 1278 l 546 1469 l 622 1389 l 401 1196 z "},"Ợ":{"ha":833,"x_min":71,"x_max":954,"o":"m 417 -19 q 210 31 286 -19 q 103 194 135 81 q 71 500 71 308 l 71 611 q 103 917 71 803 q 210 1081 135 1031 q 417 1131 286 1131 q 623 1081 547 1131 q 731 917 699 1031 q 763 611 763 803 l 763 500 q 731 194 763 308 q 623 31 699 81 q 417 -19 547 -19 m 417 86 q 556 124 506 86 q 627 252 606 161 q 649 500 649 343 l 649 611 q 627 860 649 769 q 556 988 606 950 q 417 1025 506 1025 q 277 988 328 1025 q 206 860 226 950 q 185 611 185 769 l 185 500 q 207 252 186 343 q 278 124 228 161 q 417 86 329 86 m 783 878 q 722 892 754 878 q 669 929 690 907 l 669 1036 q 727 992 697 1001 q 774 983 757 983 q 823 1006 807 983 q 839 1068 839 1029 l 839 1269 l 954 1269 l 954 1068 q 907 931 954 983 q 783 878 860 878 m 417 -326 q 339 -306 360 -326 q 318 -233 318 -286 q 339 -159 318 -179 q 417 -139 360 -139 q 494 -159 474 -139 q 515 -233 515 -179 q 494 -306 515 -286 q 417 -326 474 -326 z "},"Ờ":{"ha":833,"x_min":71,"x_max":954,"o":"m 417 -19 q 210 31 286 -19 q 103 194 135 81 q 71 500 71 308 l 71 611 q 103 917 71 803 q 210 1081 135 1031 q 417 1131 286 1131 q 623 1081 547 1131 q 731 917 699 1031 q 763 611 763 803 l 763 500 q 731 194 763 308 q 623 31 699 81 q 417 -19 547 -19 m 417 86 q 556 124 506 86 q 627 252 606 161 q 649 500 649 343 l 649 611 q 627 860 649 769 q 556 988 606 950 q 417 1025 506 1025 q 277 988 328 1025 q 206 860 226 950 q 185 611 185 769 l 185 500 q 207 252 186 343 q 278 124 228 161 q 417 86 329 86 m 783 878 q 722 892 754 878 q 669 929 690 907 l 669 1036 q 727 992 697 1001 q 774 983 757 983 q 823 1006 807 983 q 839 1068 839 1029 l 839 1269 l 954 1269 l 954 1068 q 907 931 954 983 q 783 878 860 878 m 432 1196 l 211 1389 l 288 1469 l 508 1278 l 432 1196 z "},"Ở":{"ha":833,"x_min":71,"x_max":954,"o":"m 417 -19 q 210 31 286 -19 q 103 194 135 81 q 71 500 71 308 l 71 611 q 103 917 71 803 q 210 1081 135 1031 q 417 1131 286 1131 q 623 1081 547 1131 q 731 917 699 1031 q 763 611 763 803 l 763 500 q 731 194 763 308 q 623 31 699 81 q 417 -19 547 -19 m 417 86 q 556 124 506 86 q 627 252 606 161 q 649 500 649 343 l 649 611 q 627 860 649 769 q 556 988 606 950 q 417 1025 506 1025 q 277 988 328 1025 q 206 860 226 950 q 185 611 185 769 l 185 500 q 207 252 186 343 q 278 124 228 161 q 417 86 329 86 m 783 878 q 722 892 754 878 q 669 929 690 907 l 669 1036 q 727 992 697 1001 q 774 983 757 983 q 823 1006 807 983 q 839 1068 839 1029 l 839 1269 l 954 1269 l 954 1068 q 907 931 954 983 q 783 878 860 878 m 378 1169 l 350 1272 q 419 1294 394 1279 q 444 1329 444 1310 q 433 1354 444 1344 q 404 1364 421 1364 q 344 1344 381 1364 q 275 1296 308 1325 l 275 1421 q 336 1457 300 1443 q 404 1471 372 1471 q 516 1435 474 1471 q 558 1338 558 1399 q 510 1231 558 1278 q 378 1169 461 1185 z "},"Ỡ":{"ha":833,"x_min":71,"x_max":954,"o":"m 417 -19 q 210 31 286 -19 q 103 194 135 81 q 71 500 71 308 l 71 611 q 103 917 71 803 q 210 1081 135 1031 q 417 1131 286 1131 q 623 1081 547 1131 q 731 917 699 1031 q 763 611 763 803 l 763 500 q 731 194 763 308 q 623 31 699 81 q 417 -19 547 -19 m 417 86 q 556 124 506 86 q 627 252 606 161 q 649 500 649 343 l 649 611 q 627 860 649 769 q 556 988 606 950 q 417 1025 506 1025 q 277 988 328 1025 q 206 860 226 950 q 185 611 185 769 l 185 500 q 207 252 186 343 q 278 124 228 161 q 417 86 329 86 m 783 878 q 722 892 754 878 q 669 929 690 907 l 669 1036 q 727 992 697 1001 q 774 983 757 983 q 823 1006 807 983 q 839 1068 839 1029 l 839 1269 l 954 1269 l 954 1068 q 907 931 954 983 q 783 878 860 878 m 510 1218 q 456 1234 485 1218 q 401 1272 428 1250 q 353 1309 374 1293 q 324 1325 332 1325 q 304 1306 307 1325 q 307 1254 301 1286 l 189 1254 q 221 1382 183 1332 q 324 1432 258 1432 q 378 1416 350 1432 q 431 1378 406 1400 q 478 1341 457 1357 q 510 1325 499 1325 q 530 1343 528 1325 q 526 1392 532 1361 l 643 1392 q 613 1267 650 1315 q 510 1218 576 1218 z "},"Ő":{"ha":833,"x_min":71,"x_max":763,"o":"m 417 -19 q 210 31 286 -19 q 103 194 135 81 q 71 500 71 308 l 71 611 q 103 917 71 803 q 210 1081 135 1031 q 417 1131 286 1131 q 623 1081 547 1131 q 731 917 699 1031 q 763 611 763 803 l 763 500 q 731 194 763 308 q 623 31 699 81 q 417 -19 547 -19 m 417 86 q 556 124 506 86 q 627 252 606 161 q 649 500 649 343 l 649 611 q 627 860 649 769 q 556 988 606 950 q 417 1025 506 1025 q 277 988 328 1025 q 206 860 226 950 q 185 611 185 769 l 185 500 q 207 252 186 343 q 278 124 228 161 q 417 86 329 86 m 496 1196 l 419 1278 l 640 1469 l 717 1389 l 496 1196 m 193 1196 l 117 1278 l 338 1469 l 414 1389 l 193 1196 z "},"Ō":{"ha":833,"x_min":71,"x_max":763,"o":"m 417 -19 q 210 31 286 -19 q 103 194 135 81 q 71 500 71 308 l 71 611 q 103 917 71 803 q 210 1081 135 1031 q 417 1131 286 1131 q 623 1081 547 1131 q 731 917 699 1031 q 763 611 763 803 l 763 500 q 731 194 763 308 q 623 31 699 81 q 417 -19 547 -19 m 417 86 q 556 124 506 86 q 627 252 606 161 q 649 500 649 343 l 649 611 q 627 860 649 769 q 556 988 606 950 q 417 1025 506 1025 q 277 988 328 1025 q 206 860 226 950 q 185 611 185 769 l 185 500 q 207 252 186 343 q 278 124 228 161 q 417 86 329 86 m 204 1242 l 204 1347 l 629 1347 l 629 1242 l 204 1242 z "},"Ø":{"ha":833,"x_min":56,"x_max":778,"o":"m 56 -69 l 651 1181 l 778 1181 l 182 -69 l 56 -69 m 417 -19 q 210 31 286 -19 q 103 194 135 81 q 71 500 71 308 l 71 611 q 103 917 71 803 q 210 1081 135 1031 q 417 1131 286 1131 q 623 1081 547 1131 q 731 917 699 1031 q 763 611 763 803 l 763 500 q 731 194 763 308 q 623 31 699 81 q 417 -19 547 -19 m 417 86 q 556 124 506 86 q 627 252 606 161 q 649 500 649 343 l 649 611 q 627 860 649 769 q 556 988 606 950 q 417 1025 506 1025 q 278 988 329 1025 q 206 860 228 950 q 185 611 185 769 l 185 500 q 206 252 185 343 q 278 124 228 161 q 417 86 329 86 z "},"Õ":{"ha":833,"x_min":71,"x_max":763,"o":"m 417 -19 q 210 31 286 -19 q 103 194 135 81 q 71 500 71 308 l 71 611 q 103 917 71 803 q 210 1081 135 1031 q 417 1131 286 1131 q 623 1081 547 1131 q 731 917 699 1031 q 763 611 763 803 l 763 500 q 731 194 763 308 q 623 31 699 81 q 417 -19 547 -19 m 417 86 q 556 124 506 86 q 627 252 606 161 q 649 500 649 343 l 649 611 q 627 860 649 769 q 556 988 606 950 q 417 1025 506 1025 q 277 988 328 1025 q 206 860 226 950 q 185 611 185 769 l 185 500 q 207 252 186 343 q 278 124 228 161 q 417 86 329 86 m 510 1218 q 456 1234 485 1218 q 401 1272 428 1250 q 353 1309 374 1293 q 324 1325 332 1325 q 304 1306 307 1325 q 307 1254 301 1286 l 189 1254 q 221 1382 183 1332 q 324 1432 258 1432 q 378 1416 350 1432 q 431 1378 406 1400 q 478 1341 457 1357 q 510 1325 499 1325 q 530 1343 528 1325 q 526 1392 532 1361 l 643 1392 q 613 1267 650 1315 q 510 1218 576 1218 z "},"Œ":{"ha":833,"x_min":1,"x_max":832,"o":"m 268 -19 q 110 35 168 -19 q 26 216 51 90 q 1 554 1 342 q 26 894 1 768 q 110 1076 51 1021 q 268 1131 168 1131 q 399 1100 347 1131 q 480 1001 450 1069 q 522 822 510 933 q 533 550 533 711 q 511 214 533 339 q 431 35 489 89 q 268 -19 374 -19 m 268 86 q 361 129 329 86 q 406 275 393 172 q 419 554 419 378 q 406 835 419 732 q 361 981 393 938 q 268 1025 329 1025 q 180 981 213 1025 q 132 835 147 938 q 117 554 117 732 q 132 275 117 378 q 180 129 147 172 q 268 86 213 86 m 419 0 l 419 1111 l 832 1111 l 832 1006 l 464 1006 l 533 1076 l 533 568 l 464 640 l 717 640 l 717 535 l 464 535 l 533 607 l 533 35 l 464 106 l 832 106 l 832 0 l 419 0 z "},"P":{"ha":833,"x_min":125,"x_max":765,"o":"m 125 0 l 125 1111 l 444 1111 q 635 1081 565 1111 q 735 979 706 1050 q 765 789 765 908 q 735 596 765 665 q 635 497 706 526 q 444 468 565 468 l 164 468 l 164 574 l 444 574 q 569 591 525 574 q 633 655 614 608 q 651 789 651 701 q 633 920 651 874 q 569 986 614 967 q 444 1006 525 1006 l 140 1006 l 239 1104 l 239 0 l 125 0 z "},"Þ":{"ha":833,"x_min":125,"x_max":738,"o":"m 165 251 l 165 357 l 417 357 q 542 374 497 357 q 605 435 586 392 q 624 556 624 479 q 605 676 624 633 q 542 737 586 719 q 417 754 497 754 l 165 754 l 165 860 l 417 860 q 608 831 538 860 q 708 736 678 803 q 738 556 738 669 q 708 375 738 442 q 608 280 678 308 q 417 251 538 251 l 165 251 m 125 0 l 125 1111 l 239 1111 l 239 0 l 125 0 z "},"Q":{"ha":833,"x_min":71,"x_max":849,"o":"m 417 -19 q 210 31 286 -19 q 103 194 135 81 q 71 500 71 308 l 71 611 q 103 917 71 803 q 210 1081 135 1031 q 417 1131 286 1131 q 623 1081 547 1131 q 731 917 699 1031 q 763 611 763 803 l 763 500 q 731 194 763 308 q 623 31 699 81 q 417 -19 547 -19 m 583 -233 q 494 -221 529 -233 q 429 -192 458 -208 q 367 -164 400 -176 q 288 -151 335 -151 l 226 -151 l 226 -43 q 322 -26 285 -49 q 379 42 358 -4 l 485 49 q 476 -15 490 21 q 439 -75 463 -50 q 484 -94 460 -82 q 534 -117 508 -107 q 583 -128 560 -128 q 668 -116 624 -128 q 758 -94 713 -104 q 849 -89 804 -85 l 849 -194 q 784 -197 814 -192 q 726 -210 754 -201 q 663 -226 697 -219 q 583 -233 628 -233 m 417 86 q 556 124 506 86 q 627 252 606 161 q 649 500 649 343 l 649 611 q 627 860 649 769 q 556 988 606 950 q 417 1025 506 1025 q 277 988 328 1025 q 206 860 226 950 q 185 611 185 769 l 185 500 q 207 252 186 343 q 278 124 228 161 q 417 86 329 86 z "},"R":{"ha":833,"x_min":114,"x_max":799,"o":"m 114 0 l 114 1111 l 433 1111 q 624 1081 554 1111 q 724 979 694 1050 q 754 789 754 908 q 724 596 754 665 q 624 497 694 526 q 433 468 554 468 l 147 468 l 147 574 l 433 574 q 558 591 514 574 q 622 655 603 608 q 640 789 640 701 q 622 920 640 874 q 558 986 603 967 q 433 1006 514 1006 l 228 1006 l 228 0 l 114 0 m 665 0 l 300 540 l 435 540 l 799 0 l 665 0 z "},"Ŕ":{"ha":833,"x_min":114,"x_max":799,"o":"m 114 0 l 114 1111 l 433 1111 q 624 1081 554 1111 q 724 979 694 1050 q 754 789 754 908 q 724 596 754 665 q 624 497 694 526 q 433 468 554 468 l 147 468 l 147 574 l 433 574 q 558 591 514 574 q 622 655 603 608 q 640 789 640 701 q 622 920 640 874 q 558 986 603 967 q 433 1006 514 1006 l 228 1006 l 228 0 l 114 0 m 665 0 l 300 540 l 435 540 l 799 0 l 665 0 m 401 1192 l 325 1274 l 546 1465 l 622 1385 l 401 1192 z "},"Ř":{"ha":833,"x_min":114,"x_max":799,"o":"m 114 0 l 114 1111 l 433 1111 q 624 1081 554 1111 q 724 979 694 1050 q 754 789 754 908 q 724 596 754 665 q 624 497 694 526 q 433 468 554 468 l 147 468 l 147 574 l 433 574 q 558 591 514 574 q 622 655 603 608 q 640 789 640 701 q 622 920 640 874 q 558 986 603 967 q 433 1006 514 1006 l 228 1006 l 228 0 l 114 0 m 665 0 l 300 540 l 435 540 l 799 0 l 665 0 m 417 1176 l 203 1367 l 290 1436 l 417 1324 l 542 1439 l 631 1369 l 417 1176 z "},"Ŗ":{"ha":833,"x_min":114,"x_max":799,"o":"m 114 0 l 114 1111 l 433 1111 q 624 1081 554 1111 q 724 979 694 1050 q 754 789 754 908 q 724 596 754 665 q 624 497 694 526 q 433 468 554 468 l 147 468 l 147 574 l 433 574 q 558 591 514 574 q 622 655 603 608 q 640 789 640 701 q 622 920 640 874 q 558 986 603 967 q 433 1006 514 1006 l 228 1006 l 228 0 l 114 0 m 665 0 l 300 540 l 435 540 l 799 0 l 665 0 m 325 -342 l 392 -168 q 360 -106 360 -156 q 377 -52 360 -68 q 435 -36 394 -36 q 492 -52 475 -36 q 508 -106 508 -68 q 492 -176 508 -135 q 451 -260 475 -217 q 403 -342 426 -304 l 325 -342 z "},"S":{"ha":833,"x_min":71,"x_max":750,"o":"m 417 -19 q 256 -3 321 -19 q 148 53 190 14 q 71 157 106 92 l 160 240 q 212 147 183 181 q 288 100 240 114 q 417 86 336 86 q 549 107 501 86 q 616 176 596 128 q 636 310 636 225 q 616 410 636 372 q 547 476 596 449 q 410 532 497 504 q 226 610 293 571 q 131 701 160 649 q 103 833 103 754 q 132 1009 103 944 q 230 1102 161 1074 q 417 1131 299 1131 q 565 1117 506 1131 q 666 1069 625 1103 q 739 976 707 1035 l 657 888 q 606 972 633 942 q 535 1013 578 1001 q 417 1025 492 1025 q 296 1008 339 1025 q 235 949 253 990 q 217 833 217 907 q 235 747 217 781 q 298 691 253 714 q 424 643 343 668 q 618 562 547 604 q 719 460 689 519 q 750 310 750 401 q 719 115 750 188 q 615 12 689 43 q 417 -19 542 -19 z "},"Ś":{"ha":833,"x_min":71,"x_max":750,"o":"m 417 -19 q 256 -3 321 -19 q 148 53 190 14 q 71 157 106 92 l 160 240 q 212 147 183 181 q 288 100 240 114 q 417 86 336 86 q 549 107 501 86 q 616 176 596 128 q 636 310 636 225 q 616 410 636 372 q 547 476 596 449 q 410 532 497 504 q 226 610 293 571 q 131 701 160 649 q 103 833 103 754 q 132 1009 103 944 q 230 1102 161 1074 q 417 1131 299 1131 q 565 1117 506 1131 q 666 1069 625 1103 q 739 976 707 1035 l 657 888 q 606 972 633 942 q 535 1013 578 1001 q 417 1025 492 1025 q 296 1008 339 1025 q 235 949 253 990 q 217 833 217 907 q 235 747 217 781 q 298 691 253 714 q 424 643 343 668 q 618 562 547 604 q 719 460 689 519 q 750 310 750 401 q 719 115 750 188 q 615 12 689 43 q 417 -19 542 -19 m 401 1196 l 325 1278 l 546 1469 l 622 1389 l 401 1196 z "},"Š":{"ha":833,"x_min":71,"x_max":750,"o":"m 417 -19 q 256 -3 321 -19 q 148 53 190 14 q 71 157 106 92 l 160 240 q 212 147 183 181 q 288 100 240 114 q 417 86 336 86 q 549 107 501 86 q 616 176 596 128 q 636 310 636 225 q 616 410 636 372 q 547 476 596 449 q 410 532 497 504 q 226 610 293 571 q 131 701 160 649 q 103 833 103 754 q 132 1009 103 944 q 230 1102 161 1074 q 417 1131 299 1131 q 565 1117 506 1131 q 666 1069 625 1103 q 739 976 707 1035 l 657 888 q 606 972 633 942 q 535 1013 578 1001 q 417 1025 492 1025 q 296 1008 339 1025 q 235 949 253 990 q 217 833 217 907 q 235 747 217 781 q 298 691 253 714 q 424 643 343 668 q 618 562 547 604 q 719 460 689 519 q 750 310 750 401 q 719 115 750 188 q 615 12 689 43 q 417 -19 542 -19 m 417 1181 l 203 1371 l 290 1440 l 417 1328 l 542 1443 l 631 1374 l 417 1181 z "},"Ş":{"ha":833,"x_min":71,"x_max":750,"o":"m 417 -19 q 256 -3 321 -19 q 148 53 190 14 q 71 157 106 92 l 160 240 q 212 147 183 181 q 288 100 240 114 q 417 86 336 86 q 549 107 501 86 q 616 176 596 128 q 636 310 636 225 q 616 410 636 372 q 547 476 596 449 q 410 532 497 504 q 226 610 293 571 q 131 701 160 649 q 103 833 103 754 q 132 1009 103 944 q 230 1102 161 1074 q 417 1131 299 1131 q 565 1117 506 1131 q 666 1069 625 1103 q 739 976 707 1035 l 657 888 q 606 972 633 942 q 535 1013 578 1001 q 417 1025 492 1025 q 296 1008 339 1025 q 235 949 253 990 q 217 833 217 907 q 235 747 217 781 q 298 691 253 714 q 424 643 343 668 q 618 562 547 604 q 719 460 689 519 q 750 310 750 401 q 719 115 750 188 q 615 12 689 43 q 417 -19 542 -19 m 408 -314 q 323 -298 363 -314 q 264 -256 283 -282 l 310 -174 q 351 -197 324 -187 q 408 -207 378 -207 q 448 -198 433 -207 q 463 -175 463 -189 q 434 -147 463 -157 q 360 -136 406 -136 l 360 7 l 474 7 l 474 -62 q 548 -103 519 -72 q 576 -175 576 -133 q 531 -275 576 -236 q 408 -314 485 -314 z "},"Ŝ":{"ha":833,"x_min":71,"x_max":750,"o":"m 417 -19 q 256 -3 321 -19 q 148 53 190 14 q 71 157 106 92 l 160 240 q 212 147 183 181 q 288 100 240 114 q 417 86 336 86 q 549 107 501 86 q 616 176 596 128 q 636 310 636 225 q 616 410 636 372 q 547 476 596 449 q 410 532 497 504 q 226 610 293 571 q 131 701 160 649 q 103 833 103 754 q 132 1009 103 944 q 230 1102 161 1074 q 417 1131 299 1131 q 565 1117 506 1131 q 666 1069 625 1103 q 739 976 707 1035 l 657 888 q 606 972 633 942 q 535 1013 578 1001 q 417 1025 492 1025 q 296 1008 339 1025 q 235 949 253 990 q 217 833 217 907 q 235 747 217 781 q 298 691 253 714 q 424 643 343 668 q 618 562 547 604 q 719 460 689 519 q 750 310 750 401 q 719 115 750 188 q 615 12 689 43 q 417 -19 542 -19 m 542 1181 l 417 1294 l 290 1183 l 203 1251 l 417 1442 l 631 1249 l 542 1181 z "},"Ș":{"ha":833,"x_min":71,"x_max":750,"o":"m 417 -19 q 256 -3 321 -19 q 148 53 190 14 q 71 157 106 92 l 160 240 q 212 147 183 181 q 288 100 240 114 q 417 86 336 86 q 549 107 501 86 q 616 176 596 128 q 636 310 636 225 q 616 410 636 372 q 547 476 596 449 q 410 532 497 504 q 226 610 293 571 q 131 701 160 649 q 103 833 103 754 q 132 1009 103 944 q 230 1102 161 1074 q 417 1131 299 1131 q 565 1117 506 1131 q 666 1069 625 1103 q 739 976 707 1035 l 657 888 q 606 972 633 942 q 535 1013 578 1001 q 417 1025 492 1025 q 296 1008 339 1025 q 235 949 253 990 q 217 833 217 907 q 235 747 217 781 q 298 691 253 714 q 424 643 343 668 q 618 562 547 604 q 719 460 689 519 q 750 310 750 401 q 719 115 750 188 q 615 12 689 43 q 417 -19 542 -19 m 325 -342 l 392 -168 q 360 -106 360 -156 q 377 -52 360 -68 q 435 -36 394 -36 q 492 -52 475 -36 q 508 -106 508 -68 q 492 -176 508 -135 q 451 -260 475 -217 q 403 -342 426 -304 l 325 -342 z "},"ẞ":{"ha":833,"x_min":18,"x_max":824,"o":"m 18 0 l 18 775 q 117 1022 18 932 q 389 1111 217 1111 l 824 1111 l 472 551 l 339 551 l 625 1006 l 381 1006 q 201 942 269 1006 q 133 775 133 879 l 133 0 l 18 0 m 489 -19 q 340 3 394 -19 q 263 76 286 25 q 240 217 240 128 l 356 217 q 385 115 356 143 q 489 86 414 86 q 608 106 564 86 q 669 176 651 125 q 686 319 686 226 q 669 456 686 406 q 608 529 651 507 q 489 551 564 551 l 438 551 l 438 657 l 489 657 q 676 625 608 657 q 773 519 744 593 q 801 319 801 446 q 773 113 801 186 q 676 10 744 39 q 489 -19 608 -19 z "},"T":{"ha":833,"x_min":22,"x_max":811,"o":"m 360 0 l 360 1111 l 474 1111 l 474 0 l 360 0 m 22 1006 l 22 1111 l 811 1111 l 811 1006 l 22 1006 z "},"Ŧ":{"ha":833,"x_min":22,"x_max":811,"o":"m 157 535 l 157 640 l 676 640 l 676 535 l 157 535 m 360 0 l 360 1111 l 474 1111 l 474 0 l 360 0 m 22 1006 l 22 1111 l 811 1111 l 811 1006 l 22 1006 z "},"Ť":{"ha":833,"x_min":22,"x_max":811,"o":"m 360 0 l 360 1111 l 474 1111 l 474 0 l 360 0 m 22 1006 l 22 1111 l 811 1111 l 811 1006 l 22 1006 m 417 1176 l 203 1367 l 290 1436 l 417 1324 l 542 1439 l 631 1369 l 417 1176 z "},"Ţ":{"ha":833,"x_min":22,"x_max":811,"o":"m 360 0 l 360 1111 l 474 1111 l 474 0 l 360 0 m 22 1006 l 22 1111 l 811 1111 l 811 1006 l 22 1006 m 408 -314 q 323 -298 363 -314 q 264 -256 283 -282 l 310 -174 q 351 -197 324 -187 q 408 -207 378 -207 q 448 -198 433 -207 q 463 -175 463 -189 q 434 -147 463 -157 q 360 -136 406 -136 l 360 7 l 474 7 l 474 -62 q 548 -103 519 -72 q 576 -175 576 -133 q 531 -275 576 -236 q 408 -314 485 -314 z "},"Ț":{"ha":833,"x_min":22,"x_max":811,"o":"m 360 0 l 360 1111 l 474 1111 l 474 0 l 360 0 m 22 1006 l 22 1111 l 811 1111 l 811 1006 l 22 1006 m 325 -342 l 392 -168 q 360 -106 360 -156 q 377 -52 360 -68 q 435 -36 394 -36 q 492 -52 475 -36 q 508 -106 508 -68 q 492 -176 508 -135 q 451 -260 475 -217 q 403 -342 426 -304 l 325 -342 z "},"U":{"ha":833,"x_min":100,"x_max":733,"o":"m 417 -19 q 228 22 299 -19 q 129 160 158 64 q 100 419 100 257 l 100 1111 l 214 1111 l 214 419 q 233 219 214 292 q 296 116 251 146 q 417 86 340 86 q 538 116 494 86 q 601 219 582 146 q 619 419 619 292 l 619 1111 l 733 1111 l 733 419 q 704 160 733 257 q 606 22 675 64 q 417 -19 536 -19 z "},"Ú":{"ha":833,"x_min":100,"x_max":733,"o":"m 417 -19 q 228 22 299 -19 q 129 160 158 64 q 100 419 100 257 l 100 1111 l 214 1111 l 214 419 q 233 219 214 292 q 296 116 251 146 q 417 86 340 86 q 538 116 494 86 q 601 219 582 146 q 619 419 619 292 l 619 1111 l 733 1111 l 733 419 q 704 160 733 257 q 606 22 675 64 q 417 -19 536 -19 m 401 1196 l 325 1278 l 546 1469 l 622 1389 l 401 1196 z "},"Ŭ":{"ha":833,"x_min":100,"x_max":733,"o":"m 417 -19 q 228 22 299 -19 q 129 160 158 64 q 100 419 100 257 l 100 1111 l 214 1111 l 214 419 q 233 219 214 292 q 296 116 251 146 q 417 86 340 86 q 538 116 494 86 q 601 219 582 146 q 619 419 619 292 l 619 1111 l 733 1111 l 733 419 q 704 160 733 257 q 606 22 675 64 q 417 -19 536 -19 m 417 1188 q 260 1233 303 1188 q 222 1389 218 1278 l 338 1389 q 341 1329 336 1350 q 363 1301 346 1308 q 417 1293 381 1293 q 472 1301 454 1293 q 494 1329 489 1308 q 499 1389 500 1350 l 613 1389 q 575 1233 618 1278 q 417 1188 532 1188 z "},"Ǔ":{"ha":833,"x_min":100,"x_max":733,"o":"m 417 -19 q 228 22 299 -19 q 129 160 158 64 q 100 419 100 257 l 100 1111 l 214 1111 l 214 419 q 233 219 214 292 q 296 116 251 146 q 417 86 340 86 q 538 116 494 86 q 601 219 582 146 q 619 419 619 292 l 619 1111 l 733 1111 l 733 419 q 704 160 733 257 q 606 22 675 64 q 417 -19 536 -19 m 417 1181 l 203 1371 l 290 1440 l 417 1328 l 542 1443 l 631 1374 l 417 1181 z "},"Û":{"ha":833,"x_min":100,"x_max":733,"o":"m 417 -19 q 228 22 299 -19 q 129 160 158 64 q 100 419 100 257 l 100 1111 l 214 1111 l 214 419 q 233 219 214 292 q 296 116 251 146 q 417 86 340 86 q 538 116 494 86 q 601 219 582 146 q 619 419 619 292 l 619 1111 l 733 1111 l 733 419 q 704 160 733 257 q 606 22 675 64 q 417 -19 536 -19 m 542 1181 l 417 1294 l 290 1183 l 203 1251 l 417 1442 l 631 1249 l 542 1181 z "},"Ü":{"ha":833,"x_min":100,"x_max":733,"o":"m 417 -19 q 228 22 299 -19 q 129 160 158 64 q 100 419 100 257 l 100 1111 l 214 1111 l 214 419 q 233 219 214 292 q 296 116 251 146 q 417 86 340 86 q 538 116 494 86 q 601 219 582 146 q 619 419 619 292 l 619 1111 l 733 1111 l 733 419 q 704 160 733 257 q 606 22 675 64 q 417 -19 536 -19 m 567 1250 q 491 1271 514 1250 q 468 1343 468 1292 q 491 1413 468 1392 q 567 1433 514 1433 q 643 1413 621 1433 q 665 1343 665 1392 q 643 1271 665 1292 q 567 1250 621 1250 m 267 1250 q 191 1271 214 1250 q 168 1343 168 1292 q 191 1413 168 1392 q 267 1433 214 1433 q 343 1413 321 1433 q 365 1343 365 1392 q 343 1271 365 1292 q 267 1250 321 1250 z "},"Ǘ":{"ha":833,"x_min":100,"x_max":733,"o":"m 417 -19 q 228 22 299 -19 q 129 160 158 64 q 100 419 100 257 l 100 1111 l 214 1111 l 214 419 q 233 219 214 292 q 296 116 251 146 q 417 86 340 86 q 538 116 494 86 q 601 219 582 146 q 619 419 619 292 l 619 1111 l 733 1111 l 733 419 q 704 160 733 257 q 606 22 675 64 q 417 -19 536 -19 m 567 1131 q 491 1151 514 1131 q 468 1224 468 1172 q 491 1293 468 1272 q 567 1314 514 1314 q 643 1293 621 1314 q 665 1224 665 1272 q 643 1151 665 1172 q 567 1131 621 1131 m 267 1131 q 191 1151 214 1131 q 168 1224 168 1172 q 191 1293 168 1272 q 267 1314 214 1314 q 343 1293 321 1314 q 365 1224 365 1272 q 343 1151 365 1172 q 267 1131 321 1131 m 401 1288 l 325 1369 l 546 1561 l 622 1481 l 401 1288 z "},"Ǚ":{"ha":833,"x_min":100,"x_max":733,"o":"m 417 -19 q 228 22 299 -19 q 129 160 158 64 q 100 419 100 257 l 100 1111 l 214 1111 l 214 419 q 233 219 214 292 q 296 116 251 146 q 417 86 340 86 q 538 116 494 86 q 601 219 582 146 q 619 419 619 292 l 619 1111 l 733 1111 l 733 419 q 704 160 733 257 q 606 22 675 64 q 417 -19 536 -19 m 567 1131 q 491 1151 514 1131 q 468 1224 468 1172 q 491 1293 468 1272 q 567 1314 514 1314 q 643 1293 621 1314 q 665 1224 665 1272 q 643 1151 665 1172 q 567 1131 621 1131 m 267 1131 q 191 1151 214 1131 q 168 1224 168 1172 q 191 1293 168 1272 q 267 1314 214 1314 q 343 1293 321 1314 q 365 1224 365 1272 q 343 1151 365 1172 q 267 1131 321 1131 m 417 1303 l 203 1493 l 290 1563 l 417 1450 l 542 1565 l 631 1496 l 417 1303 z "},"Ǜ":{"ha":833,"x_min":100,"x_max":733,"o":"m 417 -19 q 228 22 299 -19 q 129 160 158 64 q 100 419 100 257 l 100 1111 l 214 1111 l 214 419 q 233 219 214 292 q 296 116 251 146 q 417 86 340 86 q 538 116 494 86 q 601 219 582 146 q 619 419 619 292 l 619 1111 l 733 1111 l 733 419 q 704 160 733 257 q 606 22 675 64 q 417 -19 536 -19 m 567 1131 q 491 1151 514 1131 q 468 1224 468 1172 q 491 1293 468 1272 q 567 1314 514 1314 q 643 1293 621 1314 q 665 1224 665 1272 q 643 1151 665 1172 q 567 1131 621 1131 m 267 1131 q 191 1151 214 1131 q 168 1224 168 1172 q 191 1293 168 1272 q 267 1314 214 1314 q 343 1293 321 1314 q 365 1224 365 1272 q 343 1151 365 1172 q 267 1131 321 1131 m 432 1288 l 211 1481 l 288 1561 l 508 1369 l 432 1288 z "},"Ǖ":{"ha":833,"x_min":100,"x_max":733,"o":"m 417 -19 q 228 22 299 -19 q 129 160 158 64 q 100 419 100 257 l 100 1111 l 214 1111 l 214 419 q 233 219 214 292 q 296 116 251 146 q 417 86 340 86 q 538 116 494 86 q 601 219 582 146 q 619 419 619 292 l 619 1111 l 733 1111 l 733 419 q 704 160 733 257 q 606 22 675 64 q 417 -19 536 -19 m 567 1131 q 491 1151 514 1131 q 468 1224 468 1172 q 491 1293 468 1272 q 567 1314 514 1314 q 643 1293 621 1314 q 665 1224 665 1272 q 643 1151 665 1172 q 567 1131 621 1131 m 267 1131 q 191 1151 214 1131 q 168 1224 168 1172 q 191 1293 168 1272 q 267 1314 214 1314 q 343 1293 321 1314 q 365 1224 365 1272 q 343 1151 365 1172 q 267 1131 321 1131 m 204 1421 l 204 1526 l 629 1526 l 629 1421 l 204 1421 z "},"Ụ":{"ha":833,"x_min":100,"x_max":733,"o":"m 417 -19 q 228 22 299 -19 q 129 160 158 64 q 100 419 100 257 l 100 1111 l 214 1111 l 214 419 q 233 219 214 292 q 296 116 251 146 q 417 86 340 86 q 538 116 494 86 q 601 219 582 146 q 619 419 619 292 l 619 1111 l 733 1111 l 733 419 q 704 160 733 257 q 606 22 675 64 q 417 -19 536 -19 m 417 -326 q 339 -306 360 -326 q 318 -233 318 -286 q 339 -159 318 -179 q 417 -139 360 -139 q 494 -159 474 -139 q 515 -233 515 -179 q 494 -306 515 -286 q 417 -326 474 -326 z "},"Ù":{"ha":833,"x_min":100,"x_max":733,"o":"m 417 -19 q 228 22 299 -19 q 129 160 158 64 q 100 419 100 257 l 100 1111 l 214 1111 l 214 419 q 233 219 214 292 q 296 116 251 146 q 417 86 340 86 q 538 116 494 86 q 601 219 582 146 q 619 419 619 292 l 619 1111 l 733 1111 l 733 419 q 704 160 733 257 q 606 22 675 64 q 417 -19 536 -19 m 432 1196 l 211 1389 l 288 1469 l 508 1278 l 432 1196 z "},"Ủ":{"ha":833,"x_min":100,"x_max":733,"o":"m 417 -19 q 228 22 299 -19 q 129 160 158 64 q 100 419 100 257 l 100 1111 l 214 1111 l 214 419 q 233 219 214 292 q 296 116 251 146 q 417 86 340 86 q 538 116 494 86 q 601 219 582 146 q 619 419 619 292 l 619 1111 l 733 1111 l 733 419 q 704 160 733 257 q 606 22 675 64 q 417 -19 536 -19 m 378 1169 l 350 1272 q 419 1294 394 1279 q 444 1329 444 1310 q 433 1354 444 1344 q 404 1364 421 1364 q 344 1344 381 1364 q 275 1296 308 1325 l 275 1421 q 336 1457 300 1443 q 404 1471 372 1471 q 516 1435 474 1471 q 558 1338 558 1399 q 510 1231 558 1278 q 378 1169 461 1185 z "},"Ư":{"ha":833,"x_min":100,"x_max":954,"o":"m 417 -19 q 228 22 299 -19 q 129 160 158 64 q 100 419 100 257 l 100 1111 l 214 1111 l 214 419 q 233 219 214 292 q 296 116 251 146 q 417 86 340 86 q 538 116 494 86 q 601 219 582 146 q 619 419 619 292 l 619 1111 l 733 1111 l 733 419 q 704 160 733 257 q 606 22 675 64 q 417 -19 536 -19 m 783 953 q 722 967 754 953 q 669 1004 690 982 l 669 1111 q 727 1067 697 1076 q 774 1058 757 1058 q 823 1081 807 1058 q 839 1143 839 1104 l 839 1344 l 954 1344 l 954 1143 q 907 1006 954 1058 q 783 953 860 953 z "},"Ứ":{"ha":833,"x_min":100,"x_max":954,"o":"m 417 -19 q 228 22 299 -19 q 129 160 158 64 q 100 419 100 257 l 100 1111 l 214 1111 l 214 419 q 233 219 214 292 q 296 116 251 146 q 417 86 340 86 q 538 116 494 86 q 601 219 582 146 q 619 419 619 292 l 619 1111 l 733 1111 l 733 419 q 704 160 733 257 q 606 22 675 64 q 417 -19 536 -19 m 783 953 q 722 967 754 953 q 669 1004 690 982 l 669 1111 q 727 1067 697 1076 q 774 1058 757 1058 q 823 1081 807 1058 q 839 1143 839 1104 l 839 1344 l 954 1344 l 954 1143 q 907 1006 954 1058 q 783 953 860 953 m 401 1196 l 325 1278 l 546 1469 l 622 1389 l 401 1196 z "},"Ự":{"ha":833,"x_min":100,"x_max":954,"o":"m 417 -19 q 228 22 299 -19 q 129 160 158 64 q 100 419 100 257 l 100 1111 l 214 1111 l 214 419 q 233 219 214 292 q 296 116 251 146 q 417 86 340 86 q 538 116 494 86 q 601 219 582 146 q 619 419 619 292 l 619 1111 l 733 1111 l 733 419 q 704 160 733 257 q 606 22 675 64 q 417 -19 536 -19 m 783 953 q 722 967 754 953 q 669 1004 690 982 l 669 1111 q 727 1067 697 1076 q 774 1058 757 1058 q 823 1081 807 1058 q 839 1143 839 1104 l 839 1344 l 954 1344 l 954 1143 q 907 1006 954 1058 q 783 953 860 953 m 417 -326 q 339 -306 360 -326 q 318 -233 318 -286 q 339 -159 318 -179 q 417 -139 360 -139 q 494 -159 474 -139 q 515 -233 515 -179 q 494 -306 515 -286 q 417 -326 474 -326 z "},"Ừ":{"ha":833,"x_min":100,"x_max":954,"o":"m 417 -19 q 228 22 299 -19 q 129 160 158 64 q 100 419 100 257 l 100 1111 l 214 1111 l 214 419 q 233 219 214 292 q 296 116 251 146 q 417 86 340 86 q 538 116 494 86 q 601 219 582 146 q 619 419 619 292 l 619 1111 l 733 1111 l 733 419 q 704 160 733 257 q 606 22 675 64 q 417 -19 536 -19 m 783 953 q 722 967 754 953 q 669 1004 690 982 l 669 1111 q 727 1067 697 1076 q 774 1058 757 1058 q 823 1081 807 1058 q 839 1143 839 1104 l 839 1344 l 954 1344 l 954 1143 q 907 1006 954 1058 q 783 953 860 953 m 432 1196 l 211 1389 l 288 1469 l 508 1278 l 432 1196 z "},"Ử":{"ha":833,"x_min":100,"x_max":954,"o":"m 417 -19 q 228 22 299 -19 q 129 160 158 64 q 100 419 100 257 l 100 1111 l 214 1111 l 214 419 q 233 219 214 292 q 296 116 251 146 q 417 86 340 86 q 538 116 494 86 q 601 219 582 146 q 619 419 619 292 l 619 1111 l 733 1111 l 733 419 q 704 160 733 257 q 606 22 675 64 q 417 -19 536 -19 m 783 953 q 722 967 754 953 q 669 1004 690 982 l 669 1111 q 727 1067 697 1076 q 774 1058 757 1058 q 823 1081 807 1058 q 839 1143 839 1104 l 839 1344 l 954 1344 l 954 1143 q 907 1006 954 1058 q 783 953 860 953 m 378 1169 l 350 1272 q 419 1294 394 1279 q 444 1329 444 1310 q 433 1354 444 1344 q 404 1364 421 1364 q 344 1344 381 1364 q 275 1296 308 1325 l 275 1421 q 336 1457 300 1443 q 404 1471 372 1471 q 516 1435 474 1471 q 558 1338 558 1399 q 510 1231 558 1278 q 378 1169 461 1185 z "},"Ữ":{"ha":833,"x_min":100,"x_max":954,"o":"m 417 -19 q 228 22 299 -19 q 129 160 158 64 q 100 419 100 257 l 100 1111 l 214 1111 l 214 419 q 233 219 214 292 q 296 116 251 146 q 417 86 340 86 q 538 116 494 86 q 601 219 582 146 q 619 419 619 292 l 619 1111 l 733 1111 l 733 419 q 704 160 733 257 q 606 22 675 64 q 417 -19 536 -19 m 783 953 q 722 967 754 953 q 669 1004 690 982 l 669 1111 q 727 1067 697 1076 q 774 1058 757 1058 q 823 1081 807 1058 q 839 1143 839 1104 l 839 1344 l 954 1344 l 954 1143 q 907 1006 954 1058 q 783 953 860 953 m 510 1218 q 456 1234 485 1218 q 401 1272 428 1250 q 353 1309 374 1293 q 324 1325 332 1325 q 304 1306 307 1325 q 307 1254 301 1286 l 189 1254 q 221 1382 183 1332 q 324 1432 258 1432 q 378 1416 350 1432 q 431 1378 406 1400 q 478 1341 457 1357 q 510 1325 499 1325 q 530 1343 528 1325 q 526 1392 532 1361 l 643 1392 q 613 1267 650 1315 q 510 1218 576 1218 z "},"Ű":{"ha":833,"x_min":100,"x_max":733,"o":"m 417 -19 q 228 22 299 -19 q 129 160 158 64 q 100 419 100 257 l 100 1111 l 214 1111 l 214 419 q 233 219 214 292 q 296 116 251 146 q 417 86 340 86 q 538 116 494 86 q 601 219 582 146 q 619 419 619 292 l 619 1111 l 733 1111 l 733 419 q 704 160 733 257 q 606 22 675 64 q 417 -19 536 -19 m 496 1196 l 419 1278 l 640 1469 l 717 1389 l 496 1196 m 193 1196 l 117 1278 l 338 1469 l 414 1389 l 193 1196 z "},"Ū":{"ha":833,"x_min":100,"x_max":733,"o":"m 417 -19 q 228 22 299 -19 q 129 160 158 64 q 100 419 100 257 l 100 1111 l 214 1111 l 214 419 q 233 219 214 292 q 296 116 251 146 q 417 86 340 86 q 538 116 494 86 q 601 219 582 146 q 619 419 619 292 l 619 1111 l 733 1111 l 733 419 q 704 160 733 257 q 606 22 675 64 q 417 -19 536 -19 m 204 1242 l 204 1347 l 629 1347 l 629 1242 l 204 1242 z "},"Ų":{"ha":833,"x_min":100,"x_max":733,"o":"m 417 -19 q 228 22 299 -19 q 129 160 158 64 q 100 419 100 257 l 100 1111 l 214 1111 l 214 419 q 233 219 214 292 q 296 116 251 146 q 417 86 340 86 q 538 116 494 86 q 601 219 582 146 q 619 419 619 292 l 619 1111 l 733 1111 l 733 419 q 704 160 733 257 q 606 22 675 64 q 417 -19 536 -19 m 421 -272 q 299 -241 346 -272 q 253 -156 253 -210 q 282 -84 253 -118 q 360 -24 311 -50 q 463 15 408 3 l 551 0 q 449 -51 490 -28 q 386 -92 407 -74 q 367 -132 365 -111 q 380 -157 367 -147 q 422 -167 393 -167 q 460 -158 442 -167 q 492 -139 479 -150 l 569 -214 q 505 -256 546 -240 q 421 -272 464 -272 z "},"Ů":{"ha":833,"x_min":100,"x_max":733,"o":"m 417 -19 q 228 22 299 -19 q 129 160 158 64 q 100 419 100 257 l 100 1111 l 214 1111 l 214 419 q 233 219 214 292 q 296 116 251 146 q 417 86 340 86 q 538 116 494 86 q 601 219 582 146 q 619 419 619 292 l 619 1111 l 733 1111 l 733 419 q 704 160 733 257 q 606 22 675 64 q 417 -19 536 -19 m 417 1017 q 265 1058 308 1017 q 221 1197 221 1099 q 265 1338 221 1297 q 417 1378 308 1378 q 570 1338 526 1378 q 614 1197 614 1297 q 570 1057 614 1097 q 417 1017 526 1017 m 417 1122 q 483 1138 467 1122 q 499 1197 499 1153 q 483 1258 499 1243 q 417 1272 467 1272 q 352 1258 368 1272 q 336 1197 336 1243 q 352 1138 336 1153 q 417 1122 368 1122 z "},"Ũ":{"ha":833,"x_min":100,"x_max":733,"o":"m 417 -19 q 228 22 299 -19 q 129 160 158 64 q 100 419 100 257 l 100 1111 l 214 1111 l 214 419 q 233 219 214 292 q 296 116 251 146 q 417 86 340 86 q 538 116 494 86 q 601 219 582 146 q 619 419 619 292 l 619 1111 l 733 1111 l 733 419 q 704 160 733 257 q 606 22 675 64 q 417 -19 536 -19 m 510 1218 q 456 1234 485 1218 q 401 1272 428 1250 q 353 1309 374 1293 q 324 1325 332 1325 q 304 1306 307 1325 q 307 1254 301 1286 l 189 1254 q 221 1382 183 1332 q 324 1432 258 1432 q 378 1416 350 1432 q 431 1378 406 1400 q 478 1341 457 1357 q 510 1325 499 1325 q 530 1343 528 1325 q 526 1392 532 1361 l 643 1392 q 613 1267 650 1315 q 510 1218 576 1218 z "},"V":{"ha":833,"x_min":46,"x_max":788,"o":"m 360 0 l 46 1111 l 168 1111 l 417 213 l 665 1111 l 788 1111 l 474 0 l 360 0 z "},"W":{"ha":833,"x_min":24,"x_max":810,"o":"m 176 0 l 24 1111 l 140 1111 l 250 286 l 364 765 l 469 765 l 583 286 l 693 1111 l 810 1111 l 657 0 l 547 0 l 417 521 l 290 0 l 176 0 z "},"Ẃ":{"ha":833,"x_min":24,"x_max":810,"o":"m 176 0 l 24 1111 l 140 1111 l 250 286 l 364 765 l 469 765 l 583 286 l 693 1111 l 810 1111 l 657 0 l 547 0 l 417 521 l 290 0 l 176 0 m 401 1196 l 325 1278 l 546 1469 l 622 1389 l 401 1196 z "},"Ŵ":{"ha":833,"x_min":24,"x_max":810,"o":"m 176 0 l 24 1111 l 140 1111 l 250 286 l 364 765 l 469 765 l 583 286 l 693 1111 l 810 1111 l 657 0 l 547 0 l 417 521 l 290 0 l 176 0 m 542 1181 l 417 1294 l 290 1183 l 203 1251 l 417 1442 l 631 1249 l 542 1181 z "},"Ẅ":{"ha":833,"x_min":24,"x_max":810,"o":"m 176 0 l 24 1111 l 140 1111 l 250 286 l 364 765 l 469 765 l 583 286 l 693 1111 l 810 1111 l 657 0 l 547 0 l 417 521 l 290 0 l 176 0 m 567 1250 q 491 1271 514 1250 q 468 1343 468 1292 q 491 1413 468 1392 q 567 1433 514 1433 q 643 1413 621 1433 q 665 1343 665 1392 q 643 1271 665 1292 q 567 1250 621 1250 m 267 1250 q 191 1271 214 1250 q 168 1343 168 1292 q 191 1413 168 1392 q 267 1433 214 1433 q 343 1413 321 1433 q 365 1343 365 1392 q 343 1271 365 1292 q 267 1250 321 1250 z "},"Ẁ":{"ha":833,"x_min":24,"x_max":810,"o":"m 176 0 l 24 1111 l 140 1111 l 250 286 l 364 765 l 469 765 l 583 286 l 693 1111 l 810 1111 l 657 0 l 547 0 l 417 521 l 290 0 l 176 0 m 432 1196 l 211 1389 l 288 1469 l 508 1278 l 432 1196 z "},"X":{"ha":833,"x_min":49,"x_max":785,"o":"m 657 0 l 49 1111 l 176 1111 l 785 0 l 657 0 m 49 0 l 657 1111 l 785 1111 l 176 0 l 49 0 z "},"Y":{"ha":833,"x_min":24,"x_max":810,"o":"m 360 0 l 360 414 l 24 1111 l 150 1111 l 417 558 l 683 1111 l 810 1111 l 474 414 l 474 0 l 360 0 z "},"Ý":{"ha":833,"x_min":24,"x_max":810,"o":"m 360 0 l 360 414 l 24 1111 l 150 1111 l 417 558 l 683 1111 l 810 1111 l 474 414 l 474 0 l 360 0 m 401 1196 l 325 1278 l 546 1469 l 622 1389 l 401 1196 z "},"Ŷ":{"ha":833,"x_min":24,"x_max":810,"o":"m 360 0 l 360 414 l 24 1111 l 150 1111 l 417 558 l 683 1111 l 810 1111 l 474 414 l 474 0 l 360 0 m 542 1181 l 417 1294 l 290 1183 l 203 1251 l 417 1442 l 631 1249 l 542 1181 z "},"Ÿ":{"ha":833,"x_min":24,"x_max":810,"o":"m 360 0 l 360 414 l 24 1111 l 150 1111 l 417 558 l 683 1111 l 810 1111 l 474 414 l 474 0 l 360 0 m 567 1250 q 491 1271 514 1250 q 468 1343 468 1292 q 491 1413 468 1392 q 567 1433 514 1433 q 643 1413 621 1433 q 665 1343 665 1392 q 643 1271 665 1292 q 567 1250 621 1250 m 267 1250 q 191 1271 214 1250 q 168 1343 168 1292 q 191 1413 168 1392 q 267 1433 214 1433 q 343 1413 321 1433 q 365 1343 365 1392 q 343 1271 365 1292 q 267 1250 321 1250 z "},"Ỵ":{"ha":833,"x_min":24,"x_max":810,"o":"m 360 0 l 360 414 l 24 1111 l 150 1111 l 417 558 l 683 1111 l 810 1111 l 474 414 l 474 0 l 360 0 m 417 -326 q 339 -306 360 -326 q 318 -233 318 -286 q 339 -159 318 -179 q 417 -139 360 -139 q 494 -159 474 -139 q 515 -233 515 -179 q 494 -306 515 -286 q 417 -326 474 -326 z "},"Ỳ":{"ha":833,"x_min":24,"x_max":810,"o":"m 360 0 l 360 414 l 24 1111 l 150 1111 l 417 558 l 683 1111 l 810 1111 l 474 414 l 474 0 l 360 0 m 432 1196 l 211 1389 l 288 1469 l 508 1278 l 432 1196 z "},"Ỷ":{"ha":833,"x_min":24,"x_max":810,"o":"m 360 0 l 360 414 l 24 1111 l 150 1111 l 417 558 l 683 1111 l 810 1111 l 474 414 l 474 0 l 360 0 m 378 1169 l 350 1272 q 419 1294 394 1279 q 444 1329 444 1310 q 433 1354 444 1344 q 404 1364 421 1364 q 344 1344 381 1364 q 275 1296 308 1325 l 275 1421 q 336 1457 300 1443 q 404 1471 372 1471 q 516 1435 474 1471 q 558 1338 558 1399 q 510 1231 558 1278 q 378 1169 461 1185 z "},"Ỹ":{"ha":833,"x_min":24,"x_max":810,"o":"m 360 0 l 360 414 l 24 1111 l 150 1111 l 417 558 l 683 1111 l 810 1111 l 474 414 l 474 0 l 360 0 m 510 1218 q 456 1234 485 1218 q 401 1272 428 1250 q 353 1309 374 1293 q 324 1325 332 1325 q 304 1306 307 1325 q 307 1254 301 1286 l 189 1254 q 221 1382 183 1332 q 324 1432 258 1432 q 378 1416 350 1432 q 431 1378 406 1400 q 478 1341 457 1357 q 510 1325 499 1325 q 530 1343 528 1325 q 526 1392 532 1361 l 643 1392 q 613 1267 650 1315 q 510 1218 576 1218 z "},"Z":{"ha":833,"x_min":60,"x_max":774,"o":"m 60 0 l 60 83 l 631 1006 l 63 1006 l 63 1111 l 774 1111 l 774 1026 l 203 106 l 771 106 l 771 0 l 60 0 z "},"Ź":{"ha":833,"x_min":60,"x_max":774,"o":"m 60 0 l 60 83 l 631 1006 l 63 1006 l 63 1111 l 774 1111 l 774 1026 l 203 106 l 771 106 l 771 0 l 60 0 m 401 1192 l 325 1274 l 546 1465 l 622 1385 l 401 1192 z "},"Ž":{"ha":833,"x_min":60,"x_max":774,"o":"m 60 0 l 60 83 l 631 1006 l 63 1006 l 63 1111 l 774 1111 l 774 1026 l 203 106 l 771 106 l 771 0 l 60 0 m 417 1176 l 203 1367 l 290 1436 l 417 1324 l 542 1439 l 631 1369 l 417 1176 z "},"Ż":{"ha":833,"x_min":60,"x_max":774,"o":"m 60 0 l 60 83 l 631 1006 l 63 1006 l 63 1111 l 774 1111 l 774 1026 l 203 106 l 771 106 l 771 0 l 60 0 m 417 1263 q 339 1283 360 1263 q 318 1356 318 1303 q 339 1430 318 1410 q 417 1450 360 1450 q 494 1430 474 1450 q 515 1356 515 1410 q 494 1283 515 1303 q 417 1263 474 1263 z "},"a":{"ha":833,"x_min":83,"x_max":814,"o":"m 394 -19 q 210 6 278 -19 q 113 88 142 31 q 83 242 83 146 q 113 406 83 347 q 210 489 142 465 q 394 513 278 513 l 592 513 l 592 572 q 574 687 592 646 q 513 745 556 728 q 394 763 471 763 q 301 751 336 763 q 247 707 267 739 q 211 619 226 675 l 100 647 q 158 781 124 731 q 249 855 192 832 q 394 878 306 878 q 580 847 511 878 q 677 748 649 815 q 706 572 706 681 l 706 228 q 715 147 706 174 q 748 113 724 121 q 814 107 772 106 l 814 1 q 693 17 736 -1 q 631 86 650 35 q 574 24 606 47 q 498 -10 542 0 q 394 -19 454 -19 m 394 86 q 513 106 471 86 q 574 175 556 126 q 592 310 592 224 l 592 407 l 394 407 q 275 394 318 407 q 215 347 232 382 q 197 242 197 311 q 215 149 197 182 q 275 101 232 115 q 394 86 318 86 z "},"á":{"ha":833,"x_min":83,"x_max":814,"o":"m 394 -19 q 210 6 278 -19 q 113 88 142 31 q 83 242 83 146 q 113 406 83 347 q 210 489 142 465 q 394 513 278 513 l 592 513 l 592 572 q 574 687 592 646 q 513 745 556 728 q 394 763 471 763 q 301 751 336 763 q 247 707 267 739 q 211 619 226 675 l 100 647 q 158 781 124 731 q 249 855 192 832 q 394 878 306 878 q 580 847 511 878 q 677 748 649 815 q 706 572 706 681 l 706 228 q 715 147 706 174 q 748 113 724 121 q 814 107 772 106 l 814 1 q 693 17 736 -1 q 631 86 650 35 q 574 24 606 47 q 498 -10 542 0 q 394 -19 454 -19 m 394 86 q 513 106 471 86 q 574 175 556 126 q 592 310 592 224 l 592 407 l 394 407 q 275 394 318 407 q 215 347 232 382 q 197 242 197 311 q 215 149 197 182 q 275 101 232 115 q 394 86 318 86 m 415 939 l 339 1021 l 560 1213 l 636 1132 l 415 939 z "},"ă":{"ha":833,"x_min":83,"x_max":814,"o":"m 394 -19 q 210 6 278 -19 q 113 88 142 31 q 83 242 83 146 q 113 406 83 347 q 210 489 142 465 q 394 513 278 513 l 592 513 l 592 572 q 574 687 592 646 q 513 745 556 728 q 394 763 471 763 q 301 751 336 763 q 247 707 267 739 q 211 619 226 675 l 100 647 q 158 781 124 731 q 249 855 192 832 q 394 878 306 878 q 580 847 511 878 q 677 748 649 815 q 706 572 706 681 l 706 228 q 715 147 706 174 q 748 113 724 121 q 814 107 772 106 l 814 1 q 693 17 736 -1 q 631 86 650 35 q 574 24 606 47 q 498 -10 542 0 q 394 -19 454 -19 m 394 86 q 513 106 471 86 q 574 175 556 126 q 592 310 592 224 l 592 407 l 394 407 q 275 394 318 407 q 215 347 232 382 q 197 242 197 311 q 215 149 197 182 q 275 101 232 115 q 394 86 318 86 m 431 931 q 274 976 317 931 q 236 1132 232 1021 l 351 1132 q 355 1072 350 1093 q 377 1044 360 1051 q 431 1036 394 1036 q 485 1044 468 1036 q 508 1072 503 1051 q 513 1132 514 1093 l 626 1132 q 589 976 632 1021 q 431 931 546 931 z "},"ắ":{"ha":833,"x_min":83,"x_max":814,"o":"m 394 -19 q 210 6 278 -19 q 113 88 142 31 q 83 242 83 146 q 113 406 83 347 q 210 489 142 465 q 394 513 278 513 l 592 513 l 592 572 q 574 687 592 646 q 513 745 556 728 q 394 763 471 763 q 301 751 336 763 q 247 707 267 739 q 211 619 226 675 l 100 647 q 158 781 124 731 q 249 855 192 832 q 394 878 306 878 q 580 847 511 878 q 677 748 649 815 q 706 572 706 681 l 706 228 q 715 147 706 174 q 748 113 724 121 q 814 107 772 106 l 814 1 q 693 17 736 -1 q 631 86 650 35 q 574 24 606 47 q 498 -10 542 0 q 394 -19 454 -19 m 394 86 q 513 106 471 86 q 574 175 556 126 q 592 310 592 224 l 592 407 l 394 407 q 275 394 318 407 q 215 347 232 382 q 197 242 197 311 q 215 149 197 182 q 275 101 232 115 q 394 86 318 86 m 431 931 q 274 976 317 931 q 236 1132 232 1021 l 351 1132 q 355 1072 350 1093 q 377 1044 360 1051 q 431 1036 394 1036 q 485 1044 468 1036 q 508 1072 503 1051 q 513 1132 514 1093 l 626 1132 q 589 976 632 1021 q 431 931 546 931 m 415 1213 l 339 1294 l 560 1486 l 636 1406 l 415 1213 z "},"ặ":{"ha":833,"x_min":83,"x_max":814,"o":"m 394 -19 q 210 6 278 -19 q 113 88 142 31 q 83 242 83 146 q 113 406 83 347 q 210 489 142 465 q 394 513 278 513 l 592 513 l 592 572 q 574 687 592 646 q 513 745 556 728 q 394 763 471 763 q 301 751 336 763 q 247 707 267 739 q 211 619 226 675 l 100 647 q 158 781 124 731 q 249 855 192 832 q 394 878 306 878 q 580 847 511 878 q 677 748 649 815 q 706 572 706 681 l 706 228 q 715 147 706 174 q 748 113 724 121 q 814 107 772 106 l 814 1 q 693 17 736 -1 q 631 86 650 35 q 574 24 606 47 q 498 -10 542 0 q 394 -19 454 -19 m 394 86 q 513 106 471 86 q 574 175 556 126 q 592 310 592 224 l 592 407 l 394 407 q 275 394 318 407 q 215 347 232 382 q 197 242 197 311 q 215 149 197 182 q 275 101 232 115 q 394 86 318 86 m 431 -322 q 353 -302 374 -322 q 332 -229 332 -282 q 353 -155 332 -175 q 431 -135 374 -135 q 508 -155 488 -135 q 529 -229 529 -175 q 508 -302 529 -282 q 431 -322 488 -322 m 431 931 q 274 976 317 931 q 236 1132 232 1021 l 351 1132 q 355 1072 350 1093 q 377 1044 360 1051 q 431 1036 394 1036 q 485 1044 468 1036 q 508 1072 503 1051 q 513 1132 514 1093 l 626 1132 q 589 976 632 1021 q 431 931 546 931 z "},"ằ":{"ha":833,"x_min":83,"x_max":814,"o":"m 394 -19 q 210 6 278 -19 q 113 88 142 31 q 83 242 83 146 q 113 406 83 347 q 210 489 142 465 q 394 513 278 513 l 592 513 l 592 572 q 574 687 592 646 q 513 745 556 728 q 394 763 471 763 q 301 751 336 763 q 247 707 267 739 q 211 619 226 675 l 100 647 q 158 781 124 731 q 249 855 192 832 q 394 878 306 878 q 580 847 511 878 q 677 748 649 815 q 706 572 706 681 l 706 228 q 715 147 706 174 q 748 113 724 121 q 814 107 772 106 l 814 1 q 693 17 736 -1 q 631 86 650 35 q 574 24 606 47 q 498 -10 542 0 q 394 -19 454 -19 m 394 86 q 513 106 471 86 q 574 175 556 126 q 592 310 592 224 l 592 407 l 394 407 q 275 394 318 407 q 215 347 232 382 q 197 242 197 311 q 215 149 197 182 q 275 101 232 115 q 394 86 318 86 m 431 931 q 274 976 317 931 q 236 1132 232 1021 l 351 1132 q 355 1072 350 1093 q 377 1044 360 1051 q 431 1036 394 1036 q 485 1044 468 1036 q 508 1072 503 1051 q 513 1132 514 1093 l 626 1132 q 589 976 632 1021 q 431 931 546 931 m 446 1213 l 225 1406 l 301 1486 l 522 1294 l 446 1213 z "},"ẳ":{"ha":833,"x_min":83,"x_max":814,"o":"m 394 -19 q 210 6 278 -19 q 113 88 142 31 q 83 242 83 146 q 113 406 83 347 q 210 489 142 465 q 394 513 278 513 l 592 513 l 592 572 q 574 687 592 646 q 513 745 556 728 q 394 763 471 763 q 301 751 336 763 q 247 707 267 739 q 211 619 226 675 l 100 647 q 158 781 124 731 q 249 855 192 832 q 394 878 306 878 q 580 847 511 878 q 677 748 649 815 q 706 572 706 681 l 706 228 q 715 147 706 174 q 748 113 724 121 q 814 107 772 106 l 814 1 q 693 17 736 -1 q 631 86 650 35 q 574 24 606 47 q 498 -10 542 0 q 394 -19 454 -19 m 394 86 q 513 106 471 86 q 574 175 556 126 q 592 310 592 224 l 592 407 l 394 407 q 275 394 318 407 q 215 347 232 382 q 197 242 197 311 q 215 149 197 182 q 275 101 232 115 q 394 86 318 86 m 431 931 q 274 976 317 931 q 236 1132 232 1021 l 351 1132 q 355 1072 350 1093 q 377 1044 360 1051 q 431 1036 394 1036 q 485 1044 468 1036 q 508 1072 503 1051 q 513 1132 514 1093 l 626 1132 q 589 976 632 1021 q 431 931 546 931 m 392 1186 l 364 1289 q 433 1311 408 1296 q 458 1346 458 1326 q 447 1371 458 1361 q 418 1381 435 1381 q 358 1361 394 1381 q 289 1313 322 1342 l 289 1438 q 350 1474 314 1460 q 418 1488 386 1488 q 530 1451 488 1488 q 572 1354 572 1415 q 524 1248 572 1294 q 392 1186 475 1201 z "},"ẵ":{"ha":833,"x_min":83,"x_max":814,"o":"m 394 -19 q 210 6 278 -19 q 113 88 142 31 q 83 242 83 146 q 113 406 83 347 q 210 489 142 465 q 394 513 278 513 l 592 513 l 592 572 q 574 687 592 646 q 513 745 556 728 q 394 763 471 763 q 301 751 336 763 q 247 707 267 739 q 211 619 226 675 l 100 647 q 158 781 124 731 q 249 855 192 832 q 394 878 306 878 q 580 847 511 878 q 677 748 649 815 q 706 572 706 681 l 706 228 q 715 147 706 174 q 748 113 724 121 q 814 107 772 106 l 814 1 q 693 17 736 -1 q 631 86 650 35 q 574 24 606 47 q 498 -10 542 0 q 394 -19 454 -19 m 394 86 q 513 106 471 86 q 574 175 556 126 q 592 310 592 224 l 592 407 l 394 407 q 275 394 318 407 q 215 347 232 382 q 197 242 197 311 q 215 149 197 182 q 275 101 232 115 q 394 86 318 86 m 431 931 q 274 976 317 931 q 236 1132 232 1021 l 351 1132 q 355 1072 350 1093 q 377 1044 360 1051 q 431 1036 394 1036 q 485 1044 468 1036 q 508 1072 503 1051 q 513 1132 514 1093 l 626 1132 q 589 976 632 1021 q 431 931 546 931 m 524 1235 q 470 1251 499 1235 q 415 1288 442 1267 q 367 1326 388 1310 q 338 1342 346 1342 q 318 1322 321 1342 q 321 1271 315 1303 l 203 1271 q 235 1399 197 1349 q 338 1449 272 1449 q 392 1433 364 1449 q 445 1395 419 1417 q 492 1358 471 1374 q 524 1342 513 1342 q 544 1360 542 1342 q 540 1408 546 1378 l 657 1408 q 627 1283 664 1332 q 524 1235 590 1235 z "},"ǎ":{"ha":833,"x_min":83,"x_max":814,"o":"m 394 -19 q 210 6 278 -19 q 113 88 142 31 q 83 242 83 146 q 113 406 83 347 q 210 489 142 465 q 394 513 278 513 l 592 513 l 592 572 q 574 687 592 646 q 513 745 556 728 q 394 763 471 763 q 301 751 336 763 q 247 707 267 739 q 211 619 226 675 l 100 647 q 158 781 124 731 q 249 855 192 832 q 394 878 306 878 q 580 847 511 878 q 677 748 649 815 q 706 572 706 681 l 706 228 q 715 147 706 174 q 748 113 724 121 q 814 107 772 106 l 814 1 q 693 17 736 -1 q 631 86 650 35 q 574 24 606 47 q 498 -10 542 0 q 394 -19 454 -19 m 394 86 q 513 106 471 86 q 574 175 556 126 q 592 310 592 224 l 592 407 l 394 407 q 275 394 318 407 q 215 347 232 382 q 197 242 197 311 q 215 149 197 182 q 275 101 232 115 q 394 86 318 86 m 431 924 l 217 1114 l 304 1183 l 431 1071 l 556 1186 l 644 1117 l 431 924 z "},"â":{"ha":833,"x_min":83,"x_max":814,"o":"m 394 -19 q 210 6 278 -19 q 113 88 142 31 q 83 242 83 146 q 113 406 83 347 q 210 489 142 465 q 394 513 278 513 l 592 513 l 592 572 q 574 687 592 646 q 513 745 556 728 q 394 763 471 763 q 301 751 336 763 q 247 707 267 739 q 211 619 226 675 l 100 647 q 158 781 124 731 q 249 855 192 832 q 394 878 306 878 q 580 847 511 878 q 677 748 649 815 q 706 572 706 681 l 706 228 q 715 147 706 174 q 748 113 724 121 q 814 107 772 106 l 814 1 q 693 17 736 -1 q 631 86 650 35 q 574 24 606 47 q 498 -10 542 0 q 394 -19 454 -19 m 394 86 q 513 106 471 86 q 574 175 556 126 q 592 310 592 224 l 592 407 l 394 407 q 275 394 318 407 q 215 347 232 382 q 197 242 197 311 q 215 149 197 182 q 275 101 232 115 q 394 86 318 86 m 556 924 l 431 1038 l 304 926 l 217 994 l 431 1185 l 644 992 l 556 924 z "},"ấ":{"ha":833,"x_min":83,"x_max":814,"o":"m 394 -19 q 210 6 278 -19 q 113 88 142 31 q 83 242 83 146 q 113 406 83 347 q 210 489 142 465 q 394 513 278 513 l 592 513 l 592 572 q 574 687 592 646 q 513 745 556 728 q 394 763 471 763 q 301 751 336 763 q 247 707 267 739 q 211 619 226 675 l 100 647 q 158 781 124 731 q 249 855 192 832 q 394 878 306 878 q 580 847 511 878 q 677 748 649 815 q 706 572 706 681 l 706 228 q 715 147 706 174 q 748 113 724 121 q 814 107 772 106 l 814 1 q 693 17 736 -1 q 631 86 650 35 q 574 24 606 47 q 498 -10 542 0 q 394 -19 454 -19 m 394 86 q 513 106 471 86 q 574 175 556 126 q 592 310 592 224 l 592 407 l 394 407 q 275 394 318 407 q 215 347 232 382 q 197 242 197 311 q 215 149 197 182 q 275 101 232 115 q 394 86 318 86 m 556 924 l 431 1038 l 304 926 l 217 994 l 431 1185 l 644 992 l 556 924 m 415 1224 l 339 1306 l 560 1497 l 636 1417 l 415 1224 z "},"ậ":{"ha":833,"x_min":83,"x_max":814,"o":"m 394 -19 q 210 6 278 -19 q 113 88 142 31 q 83 242 83 146 q 113 406 83 347 q 210 489 142 465 q 394 513 278 513 l 592 513 l 592 572 q 574 687 592 646 q 513 745 556 728 q 394 763 471 763 q 301 751 336 763 q 247 707 267 739 q 211 619 226 675 l 100 647 q 158 781 124 731 q 249 855 192 832 q 394 878 306 878 q 580 847 511 878 q 677 748 649 815 q 706 572 706 681 l 706 228 q 715 147 706 174 q 748 113 724 121 q 814 107 772 106 l 814 1 q 693 17 736 -1 q 631 86 650 35 q 574 24 606 47 q 498 -10 542 0 q 394 -19 454 -19 m 394 86 q 513 106 471 86 q 574 175 556 126 q 592 310 592 224 l 592 407 l 394 407 q 275 394 318 407 q 215 347 232 382 q 197 242 197 311 q 215 149 197 182 q 275 101 232 115 q 394 86 318 86 m 431 -322 q 353 -302 374 -322 q 332 -229 332 -282 q 353 -155 332 -175 q 431 -135 374 -135 q 508 -155 488 -135 q 529 -229 529 -175 q 508 -302 529 -282 q 431 -322 488 -322 m 556 924 l 431 1038 l 304 926 l 217 994 l 431 1185 l 644 992 l 556 924 z "},"ầ":{"ha":833,"x_min":83,"x_max":814,"o":"m 394 -19 q 210 6 278 -19 q 113 88 142 31 q 83 242 83 146 q 113 406 83 347 q 210 489 142 465 q 394 513 278 513 l 592 513 l 592 572 q 574 687 592 646 q 513 745 556 728 q 394 763 471 763 q 301 751 336 763 q 247 707 267 739 q 211 619 226 675 l 100 647 q 158 781 124 731 q 249 855 192 832 q 394 878 306 878 q 580 847 511 878 q 677 748 649 815 q 706 572 706 681 l 706 228 q 715 147 706 174 q 748 113 724 121 q 814 107 772 106 l 814 1 q 693 17 736 -1 q 631 86 650 35 q 574 24 606 47 q 498 -10 542 0 q 394 -19 454 -19 m 394 86 q 513 106 471 86 q 574 175 556 126 q 592 310 592 224 l 592 407 l 394 407 q 275 394 318 407 q 215 347 232 382 q 197 242 197 311 q 215 149 197 182 q 275 101 232 115 q 394 86 318 86 m 556 924 l 431 1038 l 304 926 l 217 994 l 431 1185 l 644 992 l 556 924 m 446 1224 l 225 1417 l 301 1497 l 522 1306 l 446 1224 z "},"ẩ":{"ha":833,"x_min":83,"x_max":814,"o":"m 394 -19 q 210 6 278 -19 q 113 88 142 31 q 83 242 83 146 q 113 406 83 347 q 210 489 142 465 q 394 513 278 513 l 592 513 l 592 572 q 574 687 592 646 q 513 745 556 728 q 394 763 471 763 q 301 751 336 763 q 247 707 267 739 q 211 619 226 675 l 100 647 q 158 781 124 731 q 249 855 192 832 q 394 878 306 878 q 580 847 511 878 q 677 748 649 815 q 706 572 706 681 l 706 228 q 715 147 706 174 q 748 113 724 121 q 814 107 772 106 l 814 1 q 693 17 736 -1 q 631 86 650 35 q 574 24 606 47 q 498 -10 542 0 q 394 -19 454 -19 m 394 86 q 513 106 471 86 q 574 175 556 126 q 592 310 592 224 l 592 407 l 394 407 q 275 394 318 407 q 215 347 232 382 q 197 242 197 311 q 215 149 197 182 q 275 101 232 115 q 394 86 318 86 m 556 924 l 431 1038 l 304 926 l 217 994 l 431 1185 l 644 992 l 556 924 m 392 1197 l 364 1300 q 433 1322 408 1307 q 458 1357 458 1338 q 447 1382 458 1372 q 418 1392 435 1392 q 358 1372 394 1392 q 289 1324 322 1353 l 289 1449 q 350 1485 314 1471 q 418 1499 386 1499 q 530 1463 488 1499 q 572 1365 572 1426 q 524 1259 572 1306 q 392 1197 475 1213 z "},"ẫ":{"ha":833,"x_min":83,"x_max":814,"o":"m 394 -19 q 210 6 278 -19 q 113 88 142 31 q 83 242 83 146 q 113 406 83 347 q 210 489 142 465 q 394 513 278 513 l 592 513 l 592 572 q 574 687 592 646 q 513 745 556 728 q 394 763 471 763 q 301 751 336 763 q 247 707 267 739 q 211 619 226 675 l 100 647 q 158 781 124 731 q 249 855 192 832 q 394 878 306 878 q 580 847 511 878 q 677 748 649 815 q 706 572 706 681 l 706 228 q 715 147 706 174 q 748 113 724 121 q 814 107 772 106 l 814 1 q 693 17 736 -1 q 631 86 650 35 q 574 24 606 47 q 498 -10 542 0 q 394 -19 454 -19 m 394 86 q 513 106 471 86 q 574 175 556 126 q 592 310 592 224 l 592 407 l 394 407 q 275 394 318 407 q 215 347 232 382 q 197 242 197 311 q 215 149 197 182 q 275 101 232 115 q 394 86 318 86 m 556 924 l 431 1038 l 304 926 l 217 994 l 431 1185 l 644 992 l 556 924 m 524 1246 q 470 1262 499 1246 q 415 1299 442 1278 q 367 1337 388 1321 q 338 1353 346 1353 q 318 1333 321 1353 q 321 1282 315 1314 l 203 1282 q 235 1410 197 1360 q 338 1460 272 1460 q 392 1444 364 1460 q 445 1406 419 1428 q 492 1369 471 1385 q 524 1353 513 1353 q 544 1371 542 1353 q 540 1419 546 1389 l 657 1419 q 627 1294 664 1343 q 524 1246 590 1246 z "},"ä":{"ha":833,"x_min":83,"x_max":814,"o":"m 394 -19 q 210 6 278 -19 q 113 88 142 31 q 83 242 83 146 q 113 406 83 347 q 210 489 142 465 q 394 513 278 513 l 592 513 l 592 572 q 574 687 592 646 q 513 745 556 728 q 394 763 471 763 q 301 751 336 763 q 247 707 267 739 q 211 619 226 675 l 100 647 q 158 781 124 731 q 249 855 192 832 q 394 878 306 878 q 580 847 511 878 q 677 748 649 815 q 706 572 706 681 l 706 228 q 715 147 706 174 q 748 113 724 121 q 814 107 772 106 l 814 1 q 693 17 736 -1 q 631 86 650 35 q 574 24 606 47 q 498 -10 542 0 q 394 -19 454 -19 m 394 86 q 513 106 471 86 q 574 175 556 126 q 592 310 592 224 l 592 407 l 394 407 q 275 394 318 407 q 215 347 232 382 q 197 242 197 311 q 215 149 197 182 q 275 101 232 115 q 394 86 318 86 m 581 993 q 505 1014 528 993 q 482 1086 482 1035 q 505 1156 482 1135 q 581 1176 528 1176 q 657 1156 635 1176 q 679 1086 679 1135 q 657 1014 679 1035 q 581 993 635 993 m 281 993 q 205 1014 228 993 q 182 1086 182 1035 q 205 1156 182 1135 q 281 1176 228 1176 q 357 1156 335 1176 q 379 1086 379 1135 q 357 1014 379 1035 q 281 993 335 993 z "},"ạ":{"ha":833,"x_min":83,"x_max":814,"o":"m 394 -19 q 210 6 278 -19 q 113 88 142 31 q 83 242 83 146 q 113 406 83 347 q 210 489 142 465 q 394 513 278 513 l 592 513 l 592 572 q 574 687 592 646 q 513 745 556 728 q 394 763 471 763 q 301 751 336 763 q 247 707 267 739 q 211 619 226 675 l 100 647 q 158 781 124 731 q 249 855 192 832 q 394 878 306 878 q 580 847 511 878 q 677 748 649 815 q 706 572 706 681 l 706 228 q 715 147 706 174 q 748 113 724 121 q 814 107 772 106 l 814 1 q 693 17 736 -1 q 631 86 650 35 q 574 24 606 47 q 498 -10 542 0 q 394 -19 454 -19 m 394 86 q 513 106 471 86 q 574 175 556 126 q 592 310 592 224 l 592 407 l 394 407 q 275 394 318 407 q 215 347 232 382 q 197 242 197 311 q 215 149 197 182 q 275 101 232 115 q 394 86 318 86 m 431 -322 q 353 -302 374 -322 q 332 -229 332 -282 q 353 -155 332 -175 q 431 -135 374 -135 q 508 -155 488 -135 q 529 -229 529 -175 q 508 -302 529 -282 q 431 -322 488 -322 z "},"à":{"ha":833,"x_min":83,"x_max":814,"o":"m 394 -19 q 210 6 278 -19 q 113 88 142 31 q 83 242 83 146 q 113 406 83 347 q 210 489 142 465 q 394 513 278 513 l 592 513 l 592 572 q 574 687 592 646 q 513 745 556 728 q 394 763 471 763 q 301 751 336 763 q 247 707 267 739 q 211 619 226 675 l 100 647 q 158 781 124 731 q 249 855 192 832 q 394 878 306 878 q 580 847 511 878 q 677 748 649 815 q 706 572 706 681 l 706 228 q 715 147 706 174 q 748 113 724 121 q 814 107 772 106 l 814 1 q 693 17 736 -1 q 631 86 650 35 q 574 24 606 47 q 498 -10 542 0 q 394 -19 454 -19 m 394 86 q 513 106 471 86 q 574 175 556 126 q 592 310 592 224 l 592 407 l 394 407 q 275 394 318 407 q 215 347 232 382 q 197 242 197 311 q 215 149 197 182 q 275 101 232 115 q 394 86 318 86 m 446 939 l 225 1132 l 301 1213 l 522 1021 l 446 939 z "},"ả":{"ha":833,"x_min":83,"x_max":814,"o":"m 394 -19 q 210 6 278 -19 q 113 88 142 31 q 83 242 83 146 q 113 406 83 347 q 210 489 142 465 q 394 513 278 513 l 592 513 l 592 572 q 574 687 592 646 q 513 745 556 728 q 394 763 471 763 q 301 751 336 763 q 247 707 267 739 q 211 619 226 675 l 100 647 q 158 781 124 731 q 249 855 192 832 q 394 878 306 878 q 580 847 511 878 q 677 748 649 815 q 706 572 706 681 l 706 228 q 715 147 706 174 q 748 113 724 121 q 814 107 772 106 l 814 1 q 693 17 736 -1 q 631 86 650 35 q 574 24 606 47 q 498 -10 542 0 q 394 -19 454 -19 m 394 86 q 513 106 471 86 q 574 175 556 126 q 592 310 592 224 l 592 407 l 394 407 q 275 394 318 407 q 215 347 232 382 q 197 242 197 311 q 215 149 197 182 q 275 101 232 115 q 394 86 318 86 m 392 913 l 364 1015 q 433 1038 408 1022 q 458 1072 458 1053 q 447 1097 458 1088 q 418 1107 435 1107 q 358 1088 394 1107 q 289 1039 322 1068 l 289 1164 q 350 1200 314 1186 q 418 1214 386 1214 q 530 1178 488 1214 q 572 1081 572 1142 q 524 974 572 1021 q 392 913 475 928 z "},"ā":{"ha":833,"x_min":83,"x_max":814,"o":"m 394 -19 q 210 6 278 -19 q 113 88 142 31 q 83 242 83 146 q 113 406 83 347 q 210 489 142 465 q 394 513 278 513 l 592 513 l 592 572 q 574 687 592 646 q 513 745 556 728 q 394 763 471 763 q 301 751 336 763 q 247 707 267 739 q 211 619 226 675 l 100 647 q 158 781 124 731 q 249 855 192 832 q 394 878 306 878 q 580 847 511 878 q 677 748 649 815 q 706 572 706 681 l 706 228 q 715 147 706 174 q 748 113 724 121 q 814 107 772 106 l 814 1 q 693 17 736 -1 q 631 86 650 35 q 574 24 606 47 q 498 -10 542 0 q 394 -19 454 -19 m 394 86 q 513 106 471 86 q 574 175 556 126 q 592 310 592 224 l 592 407 l 394 407 q 275 394 318 407 q 215 347 232 382 q 197 242 197 311 q 215 149 197 182 q 275 101 232 115 q 394 86 318 86 m 218 985 l 218 1090 l 643 1090 l 643 985 l 218 985 z "},"ą":{"ha":833,"x_min":83,"x_max":833,"o":"m 394 -19 q 210 6 278 -19 q 113 88 142 31 q 83 242 83 146 q 113 406 83 347 q 210 489 142 465 q 394 513 278 513 l 592 513 l 592 572 q 574 687 592 646 q 513 745 556 728 q 394 763 471 763 q 301 751 336 763 q 247 707 267 739 q 211 619 226 675 l 100 647 q 158 781 124 731 q 249 855 192 832 q 394 878 306 878 q 580 847 511 878 q 677 748 649 815 q 706 572 706 681 l 706 228 q 715 147 706 174 q 748 113 724 121 q 814 107 772 106 l 814 1 q 693 17 736 -1 q 631 86 650 35 q 574 24 606 47 q 498 -10 542 0 q 394 -19 454 -19 m 394 86 q 513 106 471 86 q 574 175 556 126 q 592 310 592 224 l 592 407 l 394 407 q 275 394 318 407 q 215 347 232 382 q 197 242 197 311 q 215 149 197 182 q 275 101 232 115 q 394 86 318 86 m 683 -271 q 562 -240 608 -271 q 515 -154 515 -208 q 544 -83 515 -117 q 622 -22 574 -49 q 725 17 671 4 l 814 1 q 711 -49 753 -26 q 649 -91 669 -72 q 629 -131 628 -110 q 642 -156 629 -146 q 685 -165 656 -165 q 723 -157 704 -165 q 754 -137 742 -149 l 832 -212 q 767 -255 808 -239 q 683 -271 726 -271 z "},"å":{"ha":833,"x_min":83,"x_max":814,"o":"m 394 -19 q 210 6 278 -19 q 113 88 142 31 q 83 242 83 146 q 113 406 83 347 q 210 489 142 465 q 394 513 278 513 l 592 513 l 592 572 q 574 687 592 646 q 513 745 556 728 q 394 763 471 763 q 301 751 336 763 q 247 707 267 739 q 211 619 226 675 l 100 647 q 158 781 124 731 q 249 855 192 832 q 394 878 306 878 q 580 847 511 878 q 677 748 649 815 q 706 572 706 681 l 706 228 q 715 147 706 174 q 748 113 724 121 q 814 107 772 106 l 814 1 q 693 17 736 -1 q 631 86 650 35 q 574 24 606 47 q 498 -10 542 0 q 394 -19 454 -19 m 394 86 q 513 106 471 86 q 574 175 556 126 q 592 310 592 224 l 592 407 l 394 407 q 275 394 318 407 q 215 347 232 382 q 197 242 197 311 q 215 149 197 182 q 275 101 232 115 q 394 86 318 86 m 431 963 q 278 1003 322 963 q 235 1143 235 1044 q 278 1284 235 1243 q 431 1325 322 1325 q 583 1285 539 1325 q 628 1143 628 1244 q 584 1003 628 1043 q 431 963 540 963 m 431 1069 q 497 1084 481 1069 q 513 1143 513 1099 q 497 1203 513 1189 q 431 1218 481 1218 q 366 1203 382 1218 q 350 1143 350 1189 q 366 1084 350 1099 q 431 1069 382 1069 z "},"ã":{"ha":833,"x_min":83,"x_max":814,"o":"m 394 -19 q 210 6 278 -19 q 113 88 142 31 q 83 242 83 146 q 113 406 83 347 q 210 489 142 465 q 394 513 278 513 l 592 513 l 592 572 q 574 687 592 646 q 513 745 556 728 q 394 763 471 763 q 301 751 336 763 q 247 707 267 739 q 211 619 226 675 l 100 647 q 158 781 124 731 q 249 855 192 832 q 394 878 306 878 q 580 847 511 878 q 677 748 649 815 q 706 572 706 681 l 706 228 q 715 147 706 174 q 748 113 724 121 q 814 107 772 106 l 814 1 q 693 17 736 -1 q 631 86 650 35 q 574 24 606 47 q 498 -10 542 0 q 394 -19 454 -19 m 394 86 q 513 106 471 86 q 574 175 556 126 q 592 310 592 224 l 592 407 l 394 407 q 275 394 318 407 q 215 347 232 382 q 197 242 197 311 q 215 149 197 182 q 275 101 232 115 q 394 86 318 86 m 524 961 q 470 977 499 961 q 415 1015 442 993 q 367 1052 388 1036 q 338 1068 346 1068 q 318 1049 321 1068 q 321 997 315 1029 l 203 997 q 235 1125 197 1075 q 338 1175 272 1175 q 392 1159 364 1175 q 445 1122 419 1143 q 492 1084 471 1100 q 524 1068 513 1068 q 544 1086 542 1068 q 540 1135 546 1104 l 657 1135 q 627 1010 664 1058 q 524 961 590 961 z "},"æ":{"ha":833,"x_min":7,"x_max":826,"o":"m 226 -19 q 98 6 146 -19 q 28 88 50 31 q 7 240 7 146 q 32 406 7 346 q 114 489 57 465 q 268 513 171 513 l 358 513 l 358 579 q 347 695 358 653 q 308 755 336 738 q 226 772 279 772 q 183 760 200 772 q 154 717 165 749 q 132 628 143 686 l 18 656 q 58 788 33 739 q 123 857 82 836 q 226 878 164 878 q 347 852 301 878 q 418 763 392 826 q 487 852 444 826 q 606 878 529 878 q 738 833 690 878 q 806 684 786 788 q 826 407 826 581 l 472 407 q 486 216 474 286 q 527 116 499 146 q 606 86 556 86 q 673 111 643 86 q 732 210 703 136 l 826 147 q 741 17 793 54 q 606 -19 689 -19 q 497 8 539 -19 q 422 103 454 36 q 350 8 396 36 q 226 -19 304 -19 m 226 86 q 307 106 279 86 q 347 174 335 125 q 358 310 358 224 l 358 407 l 268 407 q 180 394 211 407 q 135 346 149 382 q 122 240 122 310 q 144 118 122 150 q 226 86 167 86 m 472 513 l 711 513 q 699 667 710 611 q 666 748 689 724 q 606 772 643 772 q 526 748 556 772 q 485 667 497 724 q 472 513 474 611 z "},"b":{"ha":833,"x_min":121,"x_max":744,"o":"m 433 -19 q 301 -7 357 -19 q 203 35 246 6 q 121 114 160 65 l 121 1111 l 235 1111 l 235 803 q 318 861 268 844 q 433 878 368 878 q 619 835 551 878 q 716 692 688 792 q 744 428 744 593 q 716 165 744 264 q 619 24 688 67 q 433 -19 551 -19 m 433 86 q 551 117 508 86 q 613 223 594 149 q 631 428 631 297 q 613 635 631 560 q 551 741 594 710 q 433 772 508 772 q 314 753 357 772 q 253 688 271 735 q 235 554 235 640 l 235 150 q 317 100 275 114 q 433 86 358 86 z "},"c":{"ha":833,"x_min":93,"x_max":749,"o":"m 442 -19 q 233 24 310 -19 q 125 165 157 67 q 93 429 93 264 q 126 693 93 594 q 236 835 158 792 q 447 878 314 878 q 573 862 521 878 q 667 809 625 846 q 749 708 708 772 l 653 651 q 594 725 621 699 q 533 762 567 751 q 447 772 499 772 q 303 741 356 772 q 229 635 251 710 q 207 429 207 561 q 228 224 207 299 q 301 117 250 149 q 442 86 351 86 q 527 97 492 86 q 592 135 563 108 q 653 208 621 161 l 749 151 q 665 50 708 88 q 569 -3 622 13 q 442 -19 517 -19 z "},"ć":{"ha":833,"x_min":93,"x_max":749,"o":"m 442 -19 q 233 24 310 -19 q 125 165 157 67 q 93 429 93 264 q 126 693 93 594 q 236 835 158 792 q 447 878 314 878 q 573 862 521 878 q 667 809 625 846 q 749 708 708 772 l 653 651 q 594 725 621 699 q 533 762 567 751 q 447 772 499 772 q 303 741 356 772 q 229 635 251 710 q 207 429 207 561 q 228 224 207 299 q 301 117 250 149 q 442 86 351 86 q 527 97 492 86 q 592 135 563 108 q 653 208 621 161 l 749 151 q 665 50 708 88 q 569 -3 622 13 q 442 -19 517 -19 m 401 939 l 325 1021 l 546 1213 l 622 1132 l 401 939 z "},"č":{"ha":833,"x_min":93,"x_max":749,"o":"m 442 -19 q 233 24 310 -19 q 125 165 157 67 q 93 429 93 264 q 126 693 93 594 q 236 835 158 792 q 447 878 314 878 q 573 862 521 878 q 667 809 625 846 q 749 708 708 772 l 653 651 q 594 725 621 699 q 533 762 567 751 q 447 772 499 772 q 303 741 356 772 q 229 635 251 710 q 207 429 207 561 q 228 224 207 299 q 301 117 250 149 q 442 86 351 86 q 527 97 492 86 q 592 135 563 108 q 653 208 621 161 l 749 151 q 665 50 708 88 q 569 -3 622 13 q 442 -19 517 -19 m 417 924 l 203 1114 l 290 1183 l 417 1071 l 542 1186 l 631 1117 l 417 924 z "},"ç":{"ha":833,"x_min":93,"x_max":749,"o":"m 442 -19 q 233 24 310 -19 q 125 165 157 67 q 93 429 93 264 q 126 693 93 594 q 236 835 158 792 q 447 878 314 878 q 573 862 521 878 q 667 809 625 846 q 749 708 708 772 l 653 651 q 594 725 621 699 q 533 762 567 751 q 447 772 499 772 q 303 741 356 772 q 229 635 251 710 q 207 429 207 561 q 228 224 207 299 q 301 117 250 149 q 442 86 351 86 q 527 97 492 86 q 592 135 563 108 q 653 208 621 161 l 749 151 q 665 50 708 88 q 569 -3 622 13 q 442 -19 517 -19 m 408 -314 q 323 -298 363 -314 q 264 -256 283 -282 l 310 -174 q 351 -197 324 -187 q 408 -207 378 -207 q 448 -198 433 -207 q 463 -175 463 -189 q 434 -147 463 -157 q 360 -136 406 -136 l 360 7 l 474 7 l 474 -62 q 548 -103 519 -72 q 576 -175 576 -133 q 531 -275 576 -236 q 408 -314 485 -314 z "},"ĉ":{"ha":833,"x_min":93,"x_max":749,"o":"m 442 -19 q 233 24 310 -19 q 125 165 157 67 q 93 429 93 264 q 126 693 93 594 q 236 835 158 792 q 447 878 314 878 q 573 862 521 878 q 667 809 625 846 q 749 708 708 772 l 653 651 q 594 725 621 699 q 533 762 567 751 q 447 772 499 772 q 303 741 356 772 q 229 635 251 710 q 207 429 207 561 q 228 224 207 299 q 301 117 250 149 q 442 86 351 86 q 527 97 492 86 q 592 135 563 108 q 653 208 621 161 l 749 151 q 665 50 708 88 q 569 -3 622 13 q 442 -19 517 -19 m 542 924 l 417 1038 l 290 926 l 203 994 l 417 1185 l 631 992 l 542 924 z "},"ċ":{"ha":833,"x_min":93,"x_max":749,"o":"m 442 -19 q 233 24 310 -19 q 125 165 157 67 q 93 429 93 264 q 126 693 93 594 q 236 835 158 792 q 447 878 314 878 q 573 862 521 878 q 667 809 625 846 q 749 708 708 772 l 653 651 q 594 725 621 699 q 533 762 567 751 q 447 772 499 772 q 303 741 356 772 q 229 635 251 710 q 207 429 207 561 q 228 224 207 299 q 301 117 250 149 q 442 86 351 86 q 527 97 492 86 q 592 135 563 108 q 653 208 621 161 l 749 151 q 665 50 708 88 q 569 -3 622 13 q 442 -19 517 -19 m 417 1010 q 339 1030 360 1010 q 318 1103 318 1050 q 339 1177 318 1157 q 417 1197 360 1197 q 494 1177 474 1197 q 515 1103 515 1157 q 494 1030 515 1050 q 417 1010 474 1010 z "},"d":{"ha":833,"x_min":89,"x_max":732,"o":"m 410 -19 q 219 24 289 -19 q 119 165 149 67 q 89 428 89 264 q 119 692 89 593 q 219 835 149 792 q 410 878 289 878 q 532 860 479 878 q 618 800 585 842 l 618 1111 l 732 1111 l 732 0 l 618 0 l 618 40 q 531 -6 585 8 q 410 -19 478 -19 m 410 86 q 521 97 475 86 q 592 131 567 108 q 618 188 618 153 l 618 557 q 565 722 618 671 q 410 772 511 772 q 285 741 331 772 q 222 635 240 710 q 203 428 203 560 q 222 223 203 297 q 285 117 240 149 q 410 86 331 86 z "},"ð":{"ha":833,"x_min":82,"x_max":754,"o":"m 417 -19 q 218 16 292 -19 q 113 132 144 51 q 82 346 82 213 q 113 560 82 481 q 218 676 144 640 q 417 713 292 713 q 616 676 543 713 q 720 560 689 640 q 751 346 751 481 q 720 132 751 213 q 616 16 689 51 q 417 -19 543 -19 m 417 86 q 550 110 503 86 q 617 190 597 133 q 638 346 638 247 q 617 502 638 446 q 550 582 597 558 q 417 606 503 606 q 284 582 332 606 q 216 502 236 558 q 196 346 196 446 q 216 190 196 247 q 284 110 236 133 q 417 86 332 86 m 638 333 q 584 713 639 561 q 426 939 529 865 q 182 1006 322 1013 l 182 1111 q 488 1031 360 1118 q 685 768 617 943 q 751 333 754 593 l 638 333 m 269 772 l 214 864 l 660 1111 l 715 1019 l 269 772 z "},"ď":{"ha":833,"x_min":28,"x_max":818,"o":"m 326 -19 q 152 24 218 -19 q 57 165 86 67 q 28 428 28 264 q 57 692 28 593 q 152 835 86 792 q 326 878 218 878 q 433 860 386 878 q 511 800 479 842 l 511 1111 l 626 1111 l 626 0 l 511 0 l 511 40 q 431 -6 478 8 q 326 -19 385 -19 m 326 86 q 422 97 381 86 q 487 131 463 108 q 511 188 511 153 l 511 557 q 489 681 511 633 q 425 750 467 728 q 326 772 383 772 q 219 741 260 772 q 161 635 179 710 q 143 428 143 560 q 161 223 143 297 q 219 117 179 149 q 326 86 260 86 m 714 736 l 701 1111 l 818 1111 l 804 736 l 714 736 z "},"đ":{"ha":833,"x_min":89,"x_max":814,"o":"m 431 925 l 431 1031 l 814 1031 l 814 925 l 431 925 m 410 -19 q 219 24 289 -19 q 119 165 149 67 q 89 428 89 264 q 119 692 89 593 q 219 835 149 792 q 410 878 289 878 q 532 860 479 878 q 618 800 585 842 l 618 1111 l 732 1111 l 732 0 l 618 0 l 618 40 q 531 -6 585 8 q 410 -19 478 -19 m 410 86 q 521 97 475 86 q 592 131 567 108 q 618 188 618 153 l 618 557 q 565 722 618 671 q 410 772 511 772 q 285 741 331 772 q 222 635 240 710 q 203 428 203 560 q 222 223 203 297 q 285 117 240 149 q 410 86 331 86 z "},"e":{"ha":833,"x_min":76,"x_max":757,"o":"m 421 -19 q 215 22 290 -19 q 108 161 139 63 q 76 429 76 260 q 108 698 76 600 q 215 837 139 796 q 421 878 290 878 q 623 835 550 878 q 726 689 696 792 q 757 407 757 586 l 117 407 l 117 513 l 640 513 q 620 667 640 611 q 552 748 600 724 q 421 772 504 772 q 283 742 333 772 q 212 640 233 711 q 190 442 190 568 q 212 229 190 307 q 283 119 233 151 q 421 86 333 86 q 508 98 471 86 q 578 135 546 110 q 644 207 610 161 l 736 146 q 650 47 693 83 q 552 -4 607 11 q 421 -19 497 -19 z "},"é":{"ha":833,"x_min":76,"x_max":757,"o":"m 421 -19 q 215 22 290 -19 q 108 161 139 63 q 76 429 76 260 q 108 698 76 600 q 215 837 139 796 q 421 878 290 878 q 623 835 550 878 q 726 689 696 792 q 757 407 757 586 l 117 407 l 117 513 l 640 513 q 620 667 640 611 q 552 748 600 724 q 421 772 504 772 q 283 742 333 772 q 212 640 233 711 q 190 442 190 568 q 212 229 190 307 q 283 119 233 151 q 421 86 333 86 q 508 98 471 86 q 578 135 546 110 q 644 207 610 161 l 736 146 q 650 47 693 83 q 552 -4 607 11 q 421 -19 497 -19 m 401 939 l 325 1021 l 546 1213 l 622 1132 l 401 939 z "},"ě":{"ha":833,"x_min":76,"x_max":757,"o":"m 421 -19 q 215 22 290 -19 q 108 161 139 63 q 76 429 76 260 q 108 698 76 600 q 215 837 139 796 q 421 878 290 878 q 623 835 550 878 q 726 689 696 792 q 757 407 757 586 l 117 407 l 117 513 l 640 513 q 620 667 640 611 q 552 748 600 724 q 421 772 504 772 q 283 742 333 772 q 212 640 233 711 q 190 442 190 568 q 212 229 190 307 q 283 119 233 151 q 421 86 333 86 q 508 98 471 86 q 578 135 546 110 q 644 207 610 161 l 736 146 q 650 47 693 83 q 552 -4 607 11 q 421 -19 497 -19 m 417 924 l 203 1114 l 290 1183 l 417 1071 l 542 1186 l 631 1117 l 417 924 z "},"ê":{"ha":833,"x_min":76,"x_max":757,"o":"m 421 -19 q 215 22 290 -19 q 108 161 139 63 q 76 429 76 260 q 108 698 76 600 q 215 837 139 796 q 421 878 290 878 q 623 835 550 878 q 726 689 696 792 q 757 407 757 586 l 117 407 l 117 513 l 640 513 q 620 667 640 611 q 552 748 600 724 q 421 772 504 772 q 283 742 333 772 q 212 640 233 711 q 190 442 190 568 q 212 229 190 307 q 283 119 233 151 q 421 86 333 86 q 508 98 471 86 q 578 135 546 110 q 644 207 610 161 l 736 146 q 650 47 693 83 q 552 -4 607 11 q 421 -19 497 -19 m 542 924 l 417 1038 l 290 926 l 203 994 l 417 1185 l 631 992 l 542 924 z "},"ế":{"ha":833,"x_min":76,"x_max":757,"o":"m 421 -19 q 215 22 290 -19 q 108 161 139 63 q 76 429 76 260 q 108 698 76 600 q 215 837 139 796 q 421 878 290 878 q 623 835 550 878 q 726 689 696 792 q 757 407 757 586 l 117 407 l 117 513 l 640 513 q 620 667 640 611 q 552 748 600 724 q 421 772 504 772 q 283 742 333 772 q 212 640 233 711 q 190 442 190 568 q 212 229 190 307 q 283 119 233 151 q 421 86 333 86 q 508 98 471 86 q 578 135 546 110 q 644 207 610 161 l 736 146 q 650 47 693 83 q 552 -4 607 11 q 421 -19 497 -19 m 542 924 l 417 1038 l 290 926 l 203 994 l 417 1185 l 631 992 l 542 924 m 401 1224 l 325 1306 l 546 1497 l 622 1417 l 401 1224 z "},"ệ":{"ha":833,"x_min":76,"x_max":757,"o":"m 421 -19 q 215 22 290 -19 q 108 161 139 63 q 76 429 76 260 q 108 698 76 600 q 215 837 139 796 q 421 878 290 878 q 623 835 550 878 q 726 689 696 792 q 757 407 757 586 l 117 407 l 117 513 l 640 513 q 620 667 640 611 q 552 748 600 724 q 421 772 504 772 q 283 742 333 772 q 212 640 233 711 q 190 442 190 568 q 212 229 190 307 q 283 119 233 151 q 421 86 333 86 q 508 98 471 86 q 578 135 546 110 q 644 207 610 161 l 736 146 q 650 47 693 83 q 552 -4 607 11 q 421 -19 497 -19 m 417 -322 q 339 -302 360 -322 q 318 -229 318 -282 q 339 -155 318 -175 q 417 -135 360 -135 q 494 -155 474 -135 q 515 -229 515 -175 q 494 -302 515 -282 q 417 -322 474 -322 m 542 924 l 417 1038 l 290 926 l 203 994 l 417 1185 l 631 992 l 542 924 z "},"ề":{"ha":833,"x_min":76,"x_max":757,"o":"m 421 -19 q 215 22 290 -19 q 108 161 139 63 q 76 429 76 260 q 108 698 76 600 q 215 837 139 796 q 421 878 290 878 q 623 835 550 878 q 726 689 696 792 q 757 407 757 586 l 117 407 l 117 513 l 640 513 q 620 667 640 611 q 552 748 600 724 q 421 772 504 772 q 283 742 333 772 q 212 640 233 711 q 190 442 190 568 q 212 229 190 307 q 283 119 233 151 q 421 86 333 86 q 508 98 471 86 q 578 135 546 110 q 644 207 610 161 l 736 146 q 650 47 693 83 q 552 -4 607 11 q 421 -19 497 -19 m 542 924 l 417 1038 l 290 926 l 203 994 l 417 1185 l 631 992 l 542 924 m 432 1224 l 211 1417 l 288 1497 l 508 1306 l 432 1224 z "},"ể":{"ha":833,"x_min":76,"x_max":757,"o":"m 421 -19 q 215 22 290 -19 q 108 161 139 63 q 76 429 76 260 q 108 698 76 600 q 215 837 139 796 q 421 878 290 878 q 623 835 550 878 q 726 689 696 792 q 757 407 757 586 l 117 407 l 117 513 l 640 513 q 620 667 640 611 q 552 748 600 724 q 421 772 504 772 q 283 742 333 772 q 212 640 233 711 q 190 442 190 568 q 212 229 190 307 q 283 119 233 151 q 421 86 333 86 q 508 98 471 86 q 578 135 546 110 q 644 207 610 161 l 736 146 q 650 47 693 83 q 552 -4 607 11 q 421 -19 497 -19 m 542 924 l 417 1038 l 290 926 l 203 994 l 417 1185 l 631 992 l 542 924 m 378 1197 l 350 1300 q 419 1322 394 1307 q 444 1357 444 1338 q 433 1382 444 1372 q 404 1392 421 1392 q 344 1372 381 1392 q 275 1324 308 1353 l 275 1449 q 336 1485 300 1471 q 404 1499 372 1499 q 516 1463 474 1499 q 558 1365 558 1426 q 510 1259 558 1306 q 378 1197 461 1213 z "},"ễ":{"ha":833,"x_min":76,"x_max":757,"o":"m 421 -19 q 215 22 290 -19 q 108 161 139 63 q 76 429 76 260 q 108 698 76 600 q 215 837 139 796 q 421 878 290 878 q 623 835 550 878 q 726 689 696 792 q 757 407 757 586 l 117 407 l 117 513 l 640 513 q 620 667 640 611 q 552 748 600 724 q 421 772 504 772 q 283 742 333 772 q 212 640 233 711 q 190 442 190 568 q 212 229 190 307 q 283 119 233 151 q 421 86 333 86 q 508 98 471 86 q 578 135 546 110 q 644 207 610 161 l 736 146 q 650 47 693 83 q 552 -4 607 11 q 421 -19 497 -19 m 542 924 l 417 1038 l 290 926 l 203 994 l 417 1185 l 631 992 l 542 924 m 510 1246 q 456 1262 485 1246 q 401 1299 428 1278 q 353 1337 374 1321 q 324 1353 332 1353 q 304 1333 307 1353 q 307 1282 301 1314 l 189 1282 q 221 1410 183 1360 q 324 1460 258 1460 q 378 1444 350 1460 q 431 1406 406 1428 q 478 1369 457 1385 q 510 1353 499 1353 q 530 1371 528 1353 q 526 1419 532 1389 l 643 1419 q 613 1294 650 1343 q 510 1246 576 1246 z "},"ë":{"ha":833,"x_min":76,"x_max":757,"o":"m 421 -19 q 215 22 290 -19 q 108 161 139 63 q 76 429 76 260 q 108 698 76 600 q 215 837 139 796 q 421 878 290 878 q 623 835 550 878 q 726 689 696 792 q 757 407 757 586 l 117 407 l 117 513 l 640 513 q 620 667 640 611 q 552 748 600 724 q 421 772 504 772 q 283 742 333 772 q 212 640 233 711 q 190 442 190 568 q 212 229 190 307 q 283 119 233 151 q 421 86 333 86 q 508 98 471 86 q 578 135 546 110 q 644 207 610 161 l 736 146 q 650 47 693 83 q 552 -4 607 11 q 421 -19 497 -19 m 567 993 q 491 1014 514 993 q 468 1086 468 1035 q 491 1156 468 1135 q 567 1176 514 1176 q 643 1156 621 1176 q 665 1086 665 1135 q 643 1014 665 1035 q 567 993 621 993 m 267 993 q 191 1014 214 993 q 168 1086 168 1035 q 191 1156 168 1135 q 267 1176 214 1176 q 343 1156 321 1176 q 365 1086 365 1135 q 343 1014 365 1035 q 267 993 321 993 z "},"ė":{"ha":833,"x_min":76,"x_max":757,"o":"m 421 -19 q 215 22 290 -19 q 108 161 139 63 q 76 429 76 260 q 108 698 76 600 q 215 837 139 796 q 421 878 290 878 q 623 835 550 878 q 726 689 696 792 q 757 407 757 586 l 117 407 l 117 513 l 640 513 q 620 667 640 611 q 552 748 600 724 q 421 772 504 772 q 283 742 333 772 q 212 640 233 711 q 190 442 190 568 q 212 229 190 307 q 283 119 233 151 q 421 86 333 86 q 508 98 471 86 q 578 135 546 110 q 644 207 610 161 l 736 146 q 650 47 693 83 q 552 -4 607 11 q 421 -19 497 -19 m 417 1010 q 339 1030 360 1010 q 318 1103 318 1050 q 339 1177 318 1157 q 417 1197 360 1197 q 494 1177 474 1197 q 515 1103 515 1157 q 494 1030 515 1050 q 417 1010 474 1010 z "},"ẹ":{"ha":833,"x_min":76,"x_max":757,"o":"m 421 -19 q 215 22 290 -19 q 108 161 139 63 q 76 429 76 260 q 108 698 76 600 q 215 837 139 796 q 421 878 290 878 q 623 835 550 878 q 726 689 696 792 q 757 407 757 586 l 117 407 l 117 513 l 640 513 q 620 667 640 611 q 552 748 600 724 q 421 772 504 772 q 283 742 333 772 q 212 640 233 711 q 190 442 190 568 q 212 229 190 307 q 283 119 233 151 q 421 86 333 86 q 508 98 471 86 q 578 135 546 110 q 644 207 610 161 l 736 146 q 650 47 693 83 q 552 -4 607 11 q 421 -19 497 -19 m 417 -322 q 339 -302 360 -322 q 318 -229 318 -282 q 339 -155 318 -175 q 417 -135 360 -135 q 494 -155 474 -135 q 515 -229 515 -175 q 494 -302 515 -282 q 417 -322 474 -322 z "},"è":{"ha":833,"x_min":76,"x_max":757,"o":"m 421 -19 q 215 22 290 -19 q 108 161 139 63 q 76 429 76 260 q 108 698 76 600 q 215 837 139 796 q 421 878 290 878 q 623 835 550 878 q 726 689 696 792 q 757 407 757 586 l 117 407 l 117 513 l 640 513 q 620 667 640 611 q 552 748 600 724 q 421 772 504 772 q 283 742 333 772 q 212 640 233 711 q 190 442 190 568 q 212 229 190 307 q 283 119 233 151 q 421 86 333 86 q 508 98 471 86 q 578 135 546 110 q 644 207 610 161 l 736 146 q 650 47 693 83 q 552 -4 607 11 q 421 -19 497 -19 m 432 939 l 211 1132 l 288 1213 l 508 1021 l 432 939 z "},"ẻ":{"ha":833,"x_min":76,"x_max":757,"o":"m 421 -19 q 215 22 290 -19 q 108 161 139 63 q 76 429 76 260 q 108 698 76 600 q 215 837 139 796 q 421 878 290 878 q 623 835 550 878 q 726 689 696 792 q 757 407 757 586 l 117 407 l 117 513 l 640 513 q 620 667 640 611 q 552 748 600 724 q 421 772 504 772 q 283 742 333 772 q 212 640 233 711 q 190 442 190 568 q 212 229 190 307 q 283 119 233 151 q 421 86 333 86 q 508 98 471 86 q 578 135 546 110 q 644 207 610 161 l 736 146 q 650 47 693 83 q 552 -4 607 11 q 421 -19 497 -19 m 378 913 l 350 1015 q 419 1038 394 1022 q 444 1072 444 1053 q 433 1097 444 1088 q 404 1107 421 1107 q 344 1088 381 1107 q 275 1039 308 1068 l 275 1164 q 336 1200 300 1186 q 404 1214 372 1214 q 516 1178 474 1214 q 558 1081 558 1142 q 510 974 558 1021 q 378 913 461 928 z "},"ē":{"ha":833,"x_min":76,"x_max":757,"o":"m 421 -19 q 215 22 290 -19 q 108 161 139 63 q 76 429 76 260 q 108 698 76 600 q 215 837 139 796 q 421 878 290 878 q 623 835 550 878 q 726 689 696 792 q 757 407 757 586 l 117 407 l 117 513 l 640 513 q 620 667 640 611 q 552 748 600 724 q 421 772 504 772 q 283 742 333 772 q 212 640 233 711 q 190 442 190 568 q 212 229 190 307 q 283 119 233 151 q 421 86 333 86 q 508 98 471 86 q 578 135 546 110 q 644 207 610 161 l 736 146 q 650 47 693 83 q 552 -4 607 11 q 421 -19 497 -19 m 204 985 l 204 1090 l 629 1090 l 629 985 l 204 985 z "},"ę":{"ha":833,"x_min":76,"x_max":757,"o":"m 421 -19 q 215 22 290 -19 q 108 161 139 63 q 76 429 76 260 q 108 698 76 600 q 215 837 139 796 q 421 878 290 878 q 623 835 550 878 q 726 689 696 792 q 757 407 757 586 l 117 407 l 117 513 l 640 513 q 620 667 640 611 q 552 748 600 724 q 421 772 504 772 q 283 742 333 772 q 212 640 233 711 q 190 442 190 568 q 212 229 190 307 q 283 119 233 151 q 421 86 333 86 q 508 98 471 86 q 578 135 546 110 q 644 207 610 161 l 736 146 q 650 47 693 83 q 552 -4 607 11 q 421 -19 497 -19 m 435 -272 q 313 -241 360 -272 q 267 -156 267 -210 q 296 -84 267 -118 q 374 -24 325 -50 q 476 15 422 3 l 565 0 q 463 -51 504 -28 q 400 -92 421 -74 q 381 -132 379 -111 q 394 -157 381 -147 q 436 -167 407 -167 q 474 -158 456 -167 q 506 -139 493 -150 l 583 -214 q 519 -256 560 -240 q 435 -272 478 -272 z "},"ẽ":{"ha":833,"x_min":76,"x_max":757,"o":"m 421 -19 q 215 22 290 -19 q 108 161 139 63 q 76 429 76 260 q 108 698 76 600 q 215 837 139 796 q 421 878 290 878 q 623 835 550 878 q 726 689 696 792 q 757 407 757 586 l 117 407 l 117 513 l 640 513 q 620 667 640 611 q 552 748 600 724 q 421 772 504 772 q 283 742 333 772 q 212 640 233 711 q 190 442 190 568 q 212 229 190 307 q 283 119 233 151 q 421 86 333 86 q 508 98 471 86 q 578 135 546 110 q 644 207 610 161 l 736 146 q 650 47 693 83 q 552 -4 607 11 q 421 -19 497 -19 m 510 961 q 456 977 485 961 q 401 1015 428 993 q 353 1052 374 1036 q 324 1068 332 1068 q 304 1049 307 1068 q 307 997 301 1029 l 189 997 q 221 1125 183 1075 q 324 1175 258 1175 q 378 1159 350 1175 q 431 1122 406 1143 q 478 1084 457 1100 q 510 1068 499 1068 q 530 1086 528 1068 q 526 1135 532 1104 l 643 1135 q 613 1010 650 1058 q 510 961 576 961 z "},"f":{"ha":833,"x_min":72,"x_max":799,"o":"m 244 0 l 244 826 q 271 1006 244 940 q 360 1101 297 1072 q 531 1131 424 1131 q 666 1116 614 1131 q 749 1067 718 1101 q 799 974 781 1032 l 690 936 q 663 991 679 972 q 617 1017 647 1010 q 531 1025 586 1025 q 427 1008 464 1025 q 374 947 390 990 q 358 826 358 904 l 358 0 l 244 0 m 72 599 l 72 704 l 606 704 l 606 599 l 72 599 z "},"g":{"ha":833,"x_min":83,"x_max":726,"o":"m 414 -272 q 315 -263 356 -272 q 241 -232 274 -254 q 175 -174 208 -210 l 258 -101 q 302 -141 282 -126 q 349 -161 322 -156 q 414 -167 375 -167 q 534 -146 492 -167 q 594 -74 576 -125 q 613 65 613 -24 l 613 133 q 526 73 579 92 q 404 54 474 54 q 213 99 283 54 q 113 244 143 143 q 83 514 83 344 q 113 727 83 647 q 214 842 143 807 q 404 878 285 878 q 526 865 472 878 q 613 818 579 851 l 613 858 l 726 858 l 726 78 q 698 -128 726 -51 q 601 -239 669 -206 q 414 -272 532 -272 m 404 161 q 559 211 506 161 q 613 376 613 261 l 613 671 q 587 728 613 706 q 515 761 561 750 q 404 772 469 772 q 280 749 325 772 q 216 669 235 725 q 197 514 197 613 q 216 301 197 379 q 281 192 235 224 q 404 161 326 161 z "},"ğ":{"ha":833,"x_min":83,"x_max":726,"o":"m 414 -272 q 315 -263 356 -272 q 241 -232 274 -254 q 175 -174 208 -210 l 258 -101 q 302 -141 282 -126 q 349 -161 322 -156 q 414 -167 375 -167 q 534 -146 492 -167 q 594 -74 576 -125 q 613 65 613 -24 l 613 133 q 526 73 579 92 q 404 54 474 54 q 213 99 283 54 q 113 244 143 143 q 83 514 83 344 q 113 727 83 647 q 214 842 143 807 q 404 878 285 878 q 526 865 472 878 q 613 818 579 851 l 613 858 l 726 858 l 726 78 q 698 -128 726 -51 q 601 -239 669 -206 q 414 -272 532 -272 m 404 161 q 559 211 506 161 q 613 376 613 261 l 613 671 q 587 728 613 706 q 515 761 561 750 q 404 772 469 772 q 280 749 325 772 q 216 669 235 725 q 197 514 197 613 q 216 301 197 379 q 281 192 235 224 q 404 161 326 161 m 417 931 q 260 976 303 931 q 222 1132 218 1021 l 338 1132 q 341 1072 336 1093 q 363 1044 346 1051 q 417 1036 381 1036 q 472 1044 454 1036 q 494 1072 489 1051 q 499 1132 500 1093 l 613 1132 q 575 976 618 1021 q 417 931 532 931 z "},"ĝ":{"ha":833,"x_min":83,"x_max":726,"o":"m 414 -272 q 315 -263 356 -272 q 241 -232 274 -254 q 175 -174 208 -210 l 258 -101 q 302 -141 282 -126 q 349 -161 322 -156 q 414 -167 375 -167 q 534 -146 492 -167 q 594 -74 576 -125 q 613 65 613 -24 l 613 133 q 526 73 579 92 q 404 54 474 54 q 213 99 283 54 q 113 244 143 143 q 83 514 83 344 q 113 727 83 647 q 214 842 143 807 q 404 878 285 878 q 526 865 472 878 q 613 818 579 851 l 613 858 l 726 858 l 726 78 q 698 -128 726 -51 q 601 -239 669 -206 q 414 -272 532 -272 m 404 161 q 559 211 506 161 q 613 376 613 261 l 613 671 q 587 728 613 706 q 515 761 561 750 q 404 772 469 772 q 280 749 325 772 q 216 669 235 725 q 197 514 197 613 q 216 301 197 379 q 281 192 235 224 q 404 161 326 161 m 542 924 l 417 1038 l 290 926 l 203 994 l 417 1185 l 631 992 l 542 924 z "},"ģ":{"ha":833,"x_min":83,"x_max":726,"o":"m 414 -272 q 315 -263 356 -272 q 241 -232 274 -254 q 175 -174 208 -210 l 258 -101 q 302 -141 282 -126 q 349 -161 322 -156 q 414 -167 375 -167 q 534 -146 492 -167 q 594 -74 576 -125 q 613 65 613 -24 l 613 133 q 526 73 579 92 q 404 54 474 54 q 213 99 283 54 q 113 244 143 143 q 83 514 83 344 q 113 727 83 647 q 214 842 143 807 q 404 878 285 878 q 526 865 472 878 q 613 818 579 851 l 613 858 l 726 858 l 726 78 q 698 -128 726 -51 q 601 -239 669 -206 q 414 -272 532 -272 m 404 161 q 559 211 506 161 q 613 376 613 261 l 613 671 q 587 728 613 706 q 515 761 561 750 q 404 772 469 772 q 280 749 325 772 q 216 669 235 725 q 197 514 197 613 q 216 301 197 379 q 281 192 235 224 q 404 161 326 161 m 413 907 q 356 923 372 907 q 339 976 339 939 q 355 1048 339 1007 q 396 1133 371 1089 q 444 1213 421 1176 l 522 1213 l 454 1039 q 488 976 488 1026 q 471 923 488 939 q 413 907 454 907 z "},"ġ":{"ha":833,"x_min":83,"x_max":726,"o":"m 414 -272 q 315 -263 356 -272 q 241 -232 274 -254 q 175 -174 208 -210 l 258 -101 q 302 -141 282 -126 q 349 -161 322 -156 q 414 -167 375 -167 q 534 -146 492 -167 q 594 -74 576 -125 q 613 65 613 -24 l 613 133 q 526 73 579 92 q 404 54 474 54 q 213 99 283 54 q 113 244 143 143 q 83 514 83 344 q 113 727 83 647 q 214 842 143 807 q 404 878 285 878 q 526 865 472 878 q 613 818 579 851 l 613 858 l 726 858 l 726 78 q 698 -128 726 -51 q 601 -239 669 -206 q 414 -272 532 -272 m 404 161 q 559 211 506 161 q 613 376 613 261 l 613 671 q 587 728 613 706 q 515 761 561 750 q 404 772 469 772 q 280 749 325 772 q 216 669 235 725 q 197 514 197 613 q 216 301 197 379 q 281 192 235 224 q 404 161 326 161 m 417 1010 q 339 1030 360 1010 q 318 1103 318 1050 q 339 1177 318 1157 q 417 1197 360 1197 q 494 1177 474 1197 q 515 1103 515 1157 q 494 1030 515 1050 q 417 1010 474 1010 z "},"h":{"ha":833,"x_min":122,"x_max":740,"o":"m 122 0 l 122 1111 l 236 1111 l 236 811 q 315 863 265 849 q 431 878 365 878 q 615 835 547 878 q 712 695 683 793 q 740 429 740 597 l 740 0 l 626 0 l 626 429 q 608 637 626 563 q 548 742 590 711 q 431 772 506 772 q 312 755 354 772 q 253 690 269 738 q 236 554 236 643 l 236 0 l 122 0 z "},"ħ":{"ha":833,"x_min":19,"x_max":740,"o":"m 19 925 l 19 1031 l 403 1031 l 403 925 l 19 925 m 122 0 l 122 1111 l 236 1111 l 236 811 q 315 863 265 849 q 431 878 365 878 q 615 835 547 878 q 712 695 683 793 q 740 429 740 597 l 740 0 l 626 0 l 626 429 q 608 637 626 563 q 548 742 590 711 q 431 772 506 772 q 312 755 354 772 q 253 690 269 738 q 236 554 236 643 l 236 0 l 122 0 z "},"ĥ":{"ha":833,"x_min":-31,"x_max":740,"o":"m 122 0 l 122 1111 l 236 1111 l 236 811 q 315 863 265 849 q 431 878 365 878 q 615 835 547 878 q 712 695 683 793 q 740 429 740 597 l 740 0 l 626 0 l 626 429 q 608 637 626 563 q 548 742 590 711 q 431 772 506 772 q 312 755 354 772 q 253 690 269 738 q 236 554 236 643 l 236 0 l 122 0 m 308 1125 l 183 1239 l 57 1128 l -31 1196 l 183 1386 l 397 1193 l 308 1125 z "},"i":{"ha":833,"x_min":153,"x_max":753,"o":"m 396 0 l 396 825 l 468 753 l 221 753 l 221 858 l 510 858 l 510 0 l 396 0 m 153 0 l 153 106 l 753 106 l 753 0 l 153 0 m 424 1010 q 346 1030 367 1010 q 325 1103 325 1050 q 346 1177 325 1157 q 424 1197 367 1197 q 501 1177 481 1197 q 522 1103 522 1157 q 501 1030 522 1050 q 424 1010 481 1010 z "},"ı":{"ha":833,"x_min":153,"x_max":753,"o":"m 396 0 l 396 825 l 468 753 l 221 753 l 221 858 l 510 858 l 510 0 l 396 0 m 153 0 l 153 106 l 753 106 l 753 0 l 153 0 z "},"í":{"ha":833,"x_min":153,"x_max":753,"o":"m 396 0 l 396 825 l 468 753 l 221 753 l 221 858 l 510 858 l 510 0 l 396 0 m 153 0 l 153 106 l 753 106 l 753 0 l 153 0 m 408 939 l 332 1021 l 553 1213 l 629 1132 l 408 939 z "},"ǐ":{"ha":833,"x_min":153,"x_max":753,"o":"m 396 0 l 396 825 l 468 753 l 221 753 l 221 858 l 510 858 l 510 0 l 396 0 m 153 0 l 153 106 l 753 106 l 753 0 l 153 0 m 424 924 l 210 1114 l 297 1183 l 424 1071 l 549 1186 l 638 1117 l 424 924 z "},"î":{"ha":833,"x_min":153,"x_max":753,"o":"m 396 0 l 396 825 l 468 753 l 221 753 l 221 858 l 510 858 l 510 0 l 396 0 m 153 0 l 153 106 l 753 106 l 753 0 l 153 0 m 549 924 l 424 1038 l 297 926 l 210 994 l 424 1185 l 638 992 l 549 924 z "},"ï":{"ha":833,"x_min":153,"x_max":753,"o":"m 396 0 l 396 825 l 468 753 l 221 753 l 221 858 l 510 858 l 510 0 l 396 0 m 153 0 l 153 106 l 753 106 l 753 0 l 153 0 m 574 993 q 498 1014 521 993 q 475 1086 475 1035 q 498 1156 475 1135 q 574 1176 521 1176 q 650 1156 628 1176 q 672 1086 672 1135 q 650 1014 672 1035 q 574 993 628 993 m 274 993 q 198 1014 221 993 q 175 1086 175 1035 q 198 1156 175 1135 q 274 1176 221 1176 q 350 1156 328 1176 q 372 1086 372 1135 q 350 1014 372 1035 q 274 993 328 993 z "},"ị":{"ha":833,"x_min":153,"x_max":753,"o":"m 396 0 l 396 825 l 468 753 l 221 753 l 221 858 l 510 858 l 510 0 l 396 0 m 153 0 l 153 106 l 753 106 l 753 0 l 153 0 m 424 1010 q 346 1030 367 1010 q 325 1103 325 1050 q 346 1177 325 1157 q 424 1197 367 1197 q 501 1177 481 1197 q 522 1103 522 1157 q 501 1030 522 1050 q 424 1010 481 1010 m 431 -322 q 353 -302 374 -322 q 332 -229 332 -282 q 353 -155 332 -175 q 431 -135 374 -135 q 508 -155 488 -135 q 529 -229 529 -175 q 508 -302 529 -282 q 431 -322 488 -322 z "},"ì":{"ha":833,"x_min":153,"x_max":753,"o":"m 396 0 l 396 825 l 468 753 l 221 753 l 221 858 l 510 858 l 510 0 l 396 0 m 153 0 l 153 106 l 753 106 l 753 0 l 153 0 m 439 939 l 218 1132 l 294 1213 l 515 1021 l 439 939 z "},"ỉ":{"ha":833,"x_min":153,"x_max":753,"o":"m 396 0 l 396 825 l 468 753 l 221 753 l 221 858 l 510 858 l 510 0 l 396 0 m 153 0 l 153 106 l 753 106 l 753 0 l 153 0 m 385 913 l 357 1015 q 426 1038 401 1022 q 451 1072 451 1053 q 440 1097 451 1088 q 411 1107 428 1107 q 351 1088 388 1107 q 282 1039 315 1068 l 282 1164 q 343 1200 307 1186 q 411 1214 379 1214 q 523 1178 481 1214 q 565 1081 565 1142 q 517 974 565 1021 q 385 913 468 928 z "},"ĳ":{"ha":833,"x_min":26,"x_max":785,"o":"m 250 0 l 250 825 l 322 753 l 94 753 l 94 858 l 365 858 l 365 0 l 250 0 m 26 0 l 26 106 l 535 106 l 535 0 l 26 0 m 463 -272 q 364 -263 406 -272 q 290 -232 322 -254 q 224 -174 257 -210 l 308 -101 q 352 -141 332 -126 q 398 -161 372 -156 q 463 -167 424 -167 q 583 -144 540 -167 q 644 -67 626 -122 q 661 86 661 -12 l 661 753 l 315 753 l 315 858 l 776 858 l 776 86 q 747 -126 776 -47 q 649 -238 718 -204 q 463 -272 581 -272 m 279 1010 q 201 1030 222 1010 q 179 1103 179 1050 q 201 1177 179 1157 q 279 1197 222 1197 q 357 1177 336 1197 q 378 1103 378 1157 q 357 1030 378 1050 q 279 1010 336 1010 m 685 1010 q 608 1030 629 1010 q 586 1103 586 1050 q 608 1177 586 1157 q 685 1197 629 1197 q 764 1177 743 1197 q 785 1103 785 1157 q 764 1030 785 1050 q 685 1010 743 1010 z "},"ī":{"ha":833,"x_min":153,"x_max":753,"o":"m 396 0 l 396 825 l 468 753 l 221 753 l 221 858 l 510 858 l 510 0 l 396 0 m 153 0 l 153 106 l 753 106 l 753 0 l 153 0 m 211 985 l 211 1090 l 636 1090 l 636 985 l 211 985 z "},"į":{"ha":833,"x_min":153,"x_max":753,"o":"m 396 0 l 396 825 l 468 753 l 221 753 l 221 858 l 510 858 l 510 0 l 396 0 m 153 0 l 153 106 l 753 106 l 753 0 l 153 0 m 424 1010 q 346 1030 367 1010 q 325 1103 325 1050 q 346 1177 325 1157 q 424 1197 367 1197 q 501 1177 481 1197 q 522 1103 522 1157 q 501 1030 522 1050 q 424 1010 481 1010 m 449 -272 q 327 -241 374 -272 q 281 -156 281 -210 q 310 -84 281 -118 q 388 -24 339 -50 q 490 15 436 3 l 579 0 q 476 -51 518 -28 q 414 -92 435 -74 q 394 -132 393 -111 q 408 -157 394 -147 q 450 -167 421 -167 q 488 -158 469 -167 q 519 -139 507 -150 l 597 -214 q 533 -256 574 -240 q 449 -272 492 -272 z "},"ĩ":{"ha":833,"x_min":153,"x_max":753,"o":"m 396 0 l 396 825 l 468 753 l 221 753 l 221 858 l 510 858 l 510 0 l 396 0 m 153 0 l 153 106 l 753 106 l 753 0 l 153 0 m 517 961 q 463 977 492 961 q 408 1015 435 993 q 360 1052 381 1036 q 331 1068 339 1068 q 311 1049 314 1068 q 314 997 308 1029 l 196 997 q 228 1125 190 1075 q 331 1175 265 1175 q 385 1159 357 1175 q 438 1122 413 1143 q 485 1084 464 1100 q 517 1068 506 1068 q 537 1086 535 1068 q 533 1135 539 1104 l 650 1135 q 620 1010 657 1058 q 517 961 583 961 z "},"j":{"ha":833,"x_min":92,"x_max":651,"o":"m 331 -272 q 232 -263 274 -272 q 158 -232 190 -254 q 92 -174 125 -210 l 175 -101 q 219 -141 199 -126 q 265 -161 239 -156 q 331 -167 292 -167 q 451 -144 408 -167 q 511 -67 493 -122 q 529 86 529 -12 l 529 753 l 354 753 l 354 858 l 643 858 l 643 86 q 615 -126 643 -47 q 517 -238 586 -204 q 331 -272 449 -272 m 553 1010 q 475 1030 496 1010 q 454 1103 454 1050 q 475 1177 454 1157 q 553 1197 496 1197 q 631 1177 610 1197 q 651 1103 651 1157 q 631 1030 651 1050 q 553 1010 610 1010 z "},"ȷ":{"ha":833,"x_min":92,"x_max":643,"o":"m 331 -272 q 232 -263 274 -272 q 158 -232 190 -254 q 92 -174 125 -210 l 175 -101 q 219 -141 199 -126 q 265 -161 239 -156 q 331 -167 292 -167 q 451 -144 408 -167 q 511 -67 493 -122 q 529 86 529 -12 l 529 753 l 354 753 l 354 858 l 643 858 l 643 86 q 615 -126 643 -47 q 517 -238 586 -204 q 331 -272 449 -272 z "},"ĵ":{"ha":833,"x_min":92,"x_max":767,"o":"m 331 -272 q 232 -263 274 -272 q 158 -232 190 -254 q 92 -174 125 -210 l 175 -101 q 219 -141 199 -126 q 265 -161 239 -156 q 331 -167 292 -167 q 451 -144 408 -167 q 511 -67 493 -122 q 529 86 529 -12 l 529 753 l 354 753 l 354 858 l 643 858 l 643 86 q 615 -126 643 -47 q 517 -238 586 -204 q 331 -272 449 -272 m 678 924 l 553 1038 l 426 926 l 339 994 l 553 1185 l 767 992 l 678 924 z "},"k":{"ha":833,"x_min":153,"x_max":779,"o":"m 153 0 l 153 1111 l 267 1111 l 267 513 l 304 513 l 583 858 l 724 858 l 407 463 l 779 0 l 639 0 l 310 407 l 267 407 l 267 0 l 153 0 z "},"ķ":{"ha":833,"x_min":153,"x_max":779,"o":"m 153 0 l 153 1111 l 267 1111 l 267 513 l 304 513 l 583 858 l 724 858 l 407 463 l 779 0 l 639 0 l 310 407 l 267 407 l 267 0 l 153 0 m 325 -342 l 392 -168 q 360 -106 360 -156 q 377 -52 360 -68 q 435 -36 394 -36 q 492 -52 475 -36 q 508 -106 508 -68 q 492 -176 508 -135 q 451 -260 475 -217 q 403 -342 426 -304 l 325 -342 z "},"l":{"ha":833,"x_min":157,"x_max":753,"o":"m 563 -19 q 424 10 475 -19 q 353 108 374 39 q 332 296 332 176 l 332 1006 l 157 1006 l 157 1111 l 446 1111 l 446 296 q 457 171 446 217 q 493 106 468 125 q 563 86 518 86 q 617 100 590 86 q 688 151 644 114 l 753 53 q 655 -3 696 13 q 563 -19 614 -19 z "},"ĺ":{"ha":833,"x_min":157,"x_max":753,"o":"m 563 -19 q 424 10 475 -19 q 353 108 374 39 q 332 296 332 176 l 332 1006 l 157 1006 l 157 1111 l 446 1111 l 446 296 q 457 171 446 217 q 493 106 468 125 q 563 86 518 86 q 617 100 590 86 q 688 151 644 114 l 753 53 q 655 -3 696 13 q 563 -19 614 -19 m 401 1192 l 325 1274 l 546 1465 l 622 1385 l 401 1192 z "},"ľ":{"ha":833,"x_min":157,"x_max":753,"o":"m 563 -19 q 424 10 475 -19 q 353 108 374 39 q 332 296 332 176 l 332 1006 l 157 1006 l 157 1111 l 446 1111 l 446 296 q 457 171 446 217 q 493 106 468 125 q 563 86 518 86 q 617 100 590 86 q 688 151 644 114 l 753 53 q 655 -3 696 13 q 563 -19 614 -19 m 532 736 l 518 1111 l 635 1111 l 622 736 l 532 736 z "},"ļ":{"ha":833,"x_min":157,"x_max":753,"o":"m 563 -19 q 424 10 475 -19 q 353 108 374 39 q 332 296 332 176 l 332 1006 l 157 1006 l 157 1111 l 446 1111 l 446 296 q 457 171 446 217 q 493 106 468 125 q 563 86 518 86 q 617 100 590 86 q 688 151 644 114 l 753 53 q 655 -3 696 13 q 563 -19 614 -19 m 432 -342 l 499 -168 q 467 -106 467 -156 q 484 -52 467 -68 q 542 -36 501 -36 q 599 -52 582 -36 q 615 -106 615 -68 q 599 -176 615 -135 q 558 -260 582 -217 q 510 -342 533 -304 l 432 -342 z "},"ł":{"ha":833,"x_min":157,"x_max":753,"o":"m 171 528 l 171 639 l 607 817 l 607 706 l 171 528 m 563 -19 q 424 10 475 -19 q 353 108 374 39 q 332 296 332 176 l 332 1006 l 157 1006 l 157 1111 l 446 1111 l 446 296 q 457 171 446 217 q 493 106 468 125 q 563 86 518 86 q 617 100 590 86 q 688 151 644 114 l 753 53 q 655 -3 696 13 q 563 -19 614 -19 z "},"m":{"ha":833,"x_min":57,"x_max":776,"o":"m 57 0 l 57 858 l 172 858 l 172 822 q 227 865 201 853 q 289 878 253 878 q 375 856 346 878 q 428 778 404 835 q 499 856 464 835 q 592 878 535 878 q 703 847 663 878 q 760 743 743 817 q 776 543 776 669 l 776 0 l 661 0 l 661 543 q 655 675 661 626 q 633 744 649 724 q 592 765 618 765 q 522 745 547 765 q 485 678 496 725 q 474 549 474 631 l 474 0 l 360 0 l 360 535 q 353 672 360 621 q 331 744 346 722 q 289 765 315 765 q 219 745 244 765 q 183 678 193 725 q 172 549 172 631 l 172 0 l 57 0 z "},"n":{"ha":833,"x_min":114,"x_max":735,"o":"m 114 0 l 114 858 l 228 858 l 228 804 q 319 860 267 842 q 456 878 371 878 q 624 847 563 878 q 710 742 685 815 q 735 539 735 668 l 735 0 l 621 0 l 621 539 q 606 678 621 628 q 554 751 590 729 q 456 772 518 772 q 316 754 365 772 q 247 690 267 736 q 228 554 228 643 l 228 0 l 114 0 z "},"ń":{"ha":833,"x_min":114,"x_max":735,"o":"m 114 0 l 114 858 l 228 858 l 228 804 q 319 860 267 842 q 456 878 371 878 q 624 847 563 878 q 710 742 685 815 q 735 539 735 668 l 735 0 l 621 0 l 621 539 q 606 678 621 628 q 554 751 590 729 q 456 772 518 772 q 316 754 365 772 q 247 690 267 736 q 228 554 228 643 l 228 0 l 114 0 m 401 939 l 325 1021 l 546 1213 l 622 1132 l 401 939 z "},"ň":{"ha":833,"x_min":114,"x_max":735,"o":"m 114 0 l 114 858 l 228 858 l 228 804 q 319 860 267 842 q 456 878 371 878 q 624 847 563 878 q 710 742 685 815 q 735 539 735 668 l 735 0 l 621 0 l 621 539 q 606 678 621 628 q 554 751 590 729 q 456 772 518 772 q 316 754 365 772 q 247 690 267 736 q 228 554 228 643 l 228 0 l 114 0 m 417 924 l 203 1114 l 290 1183 l 417 1071 l 542 1186 l 631 1117 l 417 924 z "},"ņ":{"ha":833,"x_min":114,"x_max":735,"o":"m 114 0 l 114 858 l 228 858 l 228 804 q 319 860 267 842 q 456 878 371 878 q 624 847 563 878 q 710 742 685 815 q 735 539 735 668 l 735 0 l 621 0 l 621 539 q 606 678 621 628 q 554 751 590 729 q 456 772 518 772 q 316 754 365 772 q 247 690 267 736 q 228 554 228 643 l 228 0 l 114 0 m 325 -342 l 392 -168 q 360 -106 360 -156 q 377 -52 360 -68 q 435 -36 394 -36 q 492 -52 475 -36 q 508 -106 508 -68 q 492 -176 508 -135 q 451 -260 475 -217 q 403 -342 426 -304 l 325 -342 z "},"ŋ":{"ha":833,"x_min":114,"x_max":735,"o":"m 493 -236 l 493 -129 q 573 -119 546 -129 q 610 -81 600 -110 q 621 0 621 -51 l 735 0 q 713 -137 735 -86 q 639 -212 692 -189 q 493 -236 586 -236 m 114 0 l 114 858 l 228 858 l 228 804 q 319 860 267 842 q 456 878 371 878 q 624 847 563 878 q 710 742 685 815 q 735 539 735 668 l 735 0 l 621 0 l 621 539 q 606 678 621 628 q 554 751 590 729 q 456 772 518 772 q 316 754 365 772 q 247 690 267 736 q 228 554 228 643 l 228 0 l 114 0 z "},"ñ":{"ha":833,"x_min":114,"x_max":735,"o":"m 114 0 l 114 858 l 228 858 l 228 804 q 319 860 267 842 q 456 878 371 878 q 624 847 563 878 q 710 742 685 815 q 735 539 735 668 l 735 0 l 621 0 l 621 539 q 606 678 621 628 q 554 751 590 729 q 456 772 518 772 q 316 754 365 772 q 247 690 267 736 q 228 554 228 643 l 228 0 l 114 0 m 510 961 q 456 977 485 961 q 401 1015 428 993 q 353 1052 374 1036 q 324 1068 332 1068 q 304 1049 307 1068 q 307 997 301 1029 l 189 997 q 221 1125 183 1075 q 324 1175 258 1175 q 378 1159 350 1175 q 431 1122 406 1143 q 478 1084 457 1100 q 510 1068 499 1068 q 530 1086 528 1068 q 526 1135 532 1104 l 643 1135 q 613 1010 650 1058 q 510 961 576 961 z "},"o":{"ha":833,"x_min":96,"x_max":738,"o":"m 417 -19 q 226 24 296 -19 q 126 166 156 67 q 96 429 96 265 q 126 693 96 594 q 226 835 156 792 q 417 878 296 878 q 608 835 538 878 q 708 693 678 792 q 738 429 738 594 q 708 166 738 265 q 608 24 678 67 q 417 -19 538 -19 m 417 86 q 541 117 496 86 q 605 224 586 149 q 624 429 624 299 q 605 635 624 561 q 541 741 586 710 q 417 772 496 772 q 292 741 338 772 q 228 635 247 710 q 210 429 210 561 q 228 224 210 299 q 292 117 247 149 q 417 86 338 86 z "},"ó":{"ha":833,"x_min":96,"x_max":738,"o":"m 417 -19 q 226 24 296 -19 q 126 166 156 67 q 96 429 96 265 q 126 693 96 594 q 226 835 156 792 q 417 878 296 878 q 608 835 538 878 q 708 693 678 792 q 738 429 738 594 q 708 166 738 265 q 608 24 678 67 q 417 -19 538 -19 m 417 86 q 541 117 496 86 q 605 224 586 149 q 624 429 624 299 q 605 635 624 561 q 541 741 586 710 q 417 772 496 772 q 292 741 338 772 q 228 635 247 710 q 210 429 210 561 q 228 224 210 299 q 292 117 247 149 q 417 86 338 86 m 401 939 l 325 1021 l 546 1213 l 622 1132 l 401 939 z "},"ǒ":{"ha":833,"x_min":96,"x_max":738,"o":"m 417 -19 q 226 24 296 -19 q 126 166 156 67 q 96 429 96 265 q 126 693 96 594 q 226 835 156 792 q 417 878 296 878 q 608 835 538 878 q 708 693 678 792 q 738 429 738 594 q 708 166 738 265 q 608 24 678 67 q 417 -19 538 -19 m 417 86 q 541 117 496 86 q 605 224 586 149 q 624 429 624 299 q 605 635 624 561 q 541 741 586 710 q 417 772 496 772 q 292 741 338 772 q 228 635 247 710 q 210 429 210 561 q 228 224 210 299 q 292 117 247 149 q 417 86 338 86 m 417 924 l 203 1114 l 290 1183 l 417 1071 l 542 1186 l 631 1117 l 417 924 z "},"ô":{"ha":833,"x_min":96,"x_max":738,"o":"m 417 -19 q 226 24 296 -19 q 126 166 156 67 q 96 429 96 265 q 126 693 96 594 q 226 835 156 792 q 417 878 296 878 q 608 835 538 878 q 708 693 678 792 q 738 429 738 594 q 708 166 738 265 q 608 24 678 67 q 417 -19 538 -19 m 417 86 q 541 117 496 86 q 605 224 586 149 q 624 429 624 299 q 605 635 624 561 q 541 741 586 710 q 417 772 496 772 q 292 741 338 772 q 228 635 247 710 q 210 429 210 561 q 228 224 210 299 q 292 117 247 149 q 417 86 338 86 m 542 924 l 417 1038 l 290 926 l 203 994 l 417 1185 l 631 992 l 542 924 z "},"ố":{"ha":833,"x_min":96,"x_max":738,"o":"m 417 -19 q 226 24 296 -19 q 126 166 156 67 q 96 429 96 265 q 126 693 96 594 q 226 835 156 792 q 417 878 296 878 q 608 835 538 878 q 708 693 678 792 q 738 429 738 594 q 708 166 738 265 q 608 24 678 67 q 417 -19 538 -19 m 417 86 q 541 117 496 86 q 605 224 586 149 q 624 429 624 299 q 605 635 624 561 q 541 741 586 710 q 417 772 496 772 q 292 741 338 772 q 228 635 247 710 q 210 429 210 561 q 228 224 210 299 q 292 117 247 149 q 417 86 338 86 m 542 924 l 417 1038 l 290 926 l 203 994 l 417 1185 l 631 992 l 542 924 m 401 1224 l 325 1306 l 546 1497 l 622 1417 l 401 1224 z "},"ộ":{"ha":833,"x_min":96,"x_max":738,"o":"m 417 -19 q 226 24 296 -19 q 126 166 156 67 q 96 429 96 265 q 126 693 96 594 q 226 835 156 792 q 417 878 296 878 q 608 835 538 878 q 708 693 678 792 q 738 429 738 594 q 708 166 738 265 q 608 24 678 67 q 417 -19 538 -19 m 417 86 q 541 117 496 86 q 605 224 586 149 q 624 429 624 299 q 605 635 624 561 q 541 741 586 710 q 417 772 496 772 q 292 741 338 772 q 228 635 247 710 q 210 429 210 561 q 228 224 210 299 q 292 117 247 149 q 417 86 338 86 m 417 -322 q 339 -302 360 -322 q 318 -229 318 -282 q 339 -155 318 -175 q 417 -135 360 -135 q 494 -155 474 -135 q 515 -229 515 -175 q 494 -302 515 -282 q 417 -322 474 -322 m 542 924 l 417 1038 l 290 926 l 203 994 l 417 1185 l 631 992 l 542 924 z "},"ồ":{"ha":833,"x_min":96,"x_max":738,"o":"m 417 -19 q 226 24 296 -19 q 126 166 156 67 q 96 429 96 265 q 126 693 96 594 q 226 835 156 792 q 417 878 296 878 q 608 835 538 878 q 708 693 678 792 q 738 429 738 594 q 708 166 738 265 q 608 24 678 67 q 417 -19 538 -19 m 417 86 q 541 117 496 86 q 605 224 586 149 q 624 429 624 299 q 605 635 624 561 q 541 741 586 710 q 417 772 496 772 q 292 741 338 772 q 228 635 247 710 q 210 429 210 561 q 228 224 210 299 q 292 117 247 149 q 417 86 338 86 m 542 924 l 417 1038 l 290 926 l 203 994 l 417 1185 l 631 992 l 542 924 m 432 1224 l 211 1417 l 288 1497 l 508 1306 l 432 1224 z "},"ổ":{"ha":833,"x_min":96,"x_max":738,"o":"m 417 -19 q 226 24 296 -19 q 126 166 156 67 q 96 429 96 265 q 126 693 96 594 q 226 835 156 792 q 417 878 296 878 q 608 835 538 878 q 708 693 678 792 q 738 429 738 594 q 708 166 738 265 q 608 24 678 67 q 417 -19 538 -19 m 417 86 q 541 117 496 86 q 605 224 586 149 q 624 429 624 299 q 605 635 624 561 q 541 741 586 710 q 417 772 496 772 q 292 741 338 772 q 228 635 247 710 q 210 429 210 561 q 228 224 210 299 q 292 117 247 149 q 417 86 338 86 m 542 924 l 417 1038 l 290 926 l 203 994 l 417 1185 l 631 992 l 542 924 m 378 1197 l 350 1300 q 419 1322 394 1307 q 444 1357 444 1338 q 433 1382 444 1372 q 404 1392 421 1392 q 344 1372 381 1392 q 275 1324 308 1353 l 275 1449 q 336 1485 300 1471 q 404 1499 372 1499 q 516 1463 474 1499 q 558 1365 558 1426 q 510 1259 558 1306 q 378 1197 461 1213 z "},"ỗ":{"ha":833,"x_min":96,"x_max":738,"o":"m 417 -19 q 226 24 296 -19 q 126 166 156 67 q 96 429 96 265 q 126 693 96 594 q 226 835 156 792 q 417 878 296 878 q 608 835 538 878 q 708 693 678 792 q 738 429 738 594 q 708 166 738 265 q 608 24 678 67 q 417 -19 538 -19 m 417 86 q 541 117 496 86 q 605 224 586 149 q 624 429 624 299 q 605 635 624 561 q 541 741 586 710 q 417 772 496 772 q 292 741 338 772 q 228 635 247 710 q 210 429 210 561 q 228 224 210 299 q 292 117 247 149 q 417 86 338 86 m 542 924 l 417 1038 l 290 926 l 203 994 l 417 1185 l 631 992 l 542 924 m 510 1246 q 456 1262 485 1246 q 401 1299 428 1278 q 353 1337 374 1321 q 324 1353 332 1353 q 304 1333 307 1353 q 307 1282 301 1314 l 189 1282 q 221 1410 183 1360 q 324 1460 258 1460 q 378 1444 350 1460 q 431 1406 406 1428 q 478 1369 457 1385 q 510 1353 499 1353 q 530 1371 528 1353 q 526 1419 532 1389 l 643 1419 q 613 1294 650 1343 q 510 1246 576 1246 z "},"ö":{"ha":833,"x_min":96,"x_max":738,"o":"m 417 -19 q 226 24 296 -19 q 126 166 156 67 q 96 429 96 265 q 126 693 96 594 q 226 835 156 792 q 417 878 296 878 q 608 835 538 878 q 708 693 678 792 q 738 429 738 594 q 708 166 738 265 q 608 24 678 67 q 417 -19 538 -19 m 417 86 q 541 117 496 86 q 605 224 586 149 q 624 429 624 299 q 605 635 624 561 q 541 741 586 710 q 417 772 496 772 q 292 741 338 772 q 228 635 247 710 q 210 429 210 561 q 228 224 210 299 q 292 117 247 149 q 417 86 338 86 m 567 993 q 491 1014 514 993 q 468 1086 468 1035 q 491 1156 468 1135 q 567 1176 514 1176 q 643 1156 621 1176 q 665 1086 665 1135 q 643 1014 665 1035 q 567 993 621 993 m 267 993 q 191 1014 214 993 q 168 1086 168 1035 q 191 1156 168 1135 q 267 1176 214 1176 q 343 1156 321 1176 q 365 1086 365 1135 q 343 1014 365 1035 q 267 993 321 993 z "},"ọ":{"ha":833,"x_min":96,"x_max":738,"o":"m 417 -19 q 226 24 296 -19 q 126 166 156 67 q 96 429 96 265 q 126 693 96 594 q 226 835 156 792 q 417 878 296 878 q 608 835 538 878 q 708 693 678 792 q 738 429 738 594 q 708 166 738 265 q 608 24 678 67 q 417 -19 538 -19 m 417 86 q 541 117 496 86 q 605 224 586 149 q 624 429 624 299 q 605 635 624 561 q 541 741 586 710 q 417 772 496 772 q 292 741 338 772 q 228 635 247 710 q 210 429 210 561 q 228 224 210 299 q 292 117 247 149 q 417 86 338 86 m 417 -322 q 339 -302 360 -322 q 318 -229 318 -282 q 339 -155 318 -175 q 417 -135 360 -135 q 494 -155 474 -135 q 515 -229 515 -175 q 494 -302 515 -282 q 417 -322 474 -322 z "},"ò":{"ha":833,"x_min":96,"x_max":738,"o":"m 417 -19 q 226 24 296 -19 q 126 166 156 67 q 96 429 96 265 q 126 693 96 594 q 226 835 156 792 q 417 878 296 878 q 608 835 538 878 q 708 693 678 792 q 738 429 738 594 q 708 166 738 265 q 608 24 678 67 q 417 -19 538 -19 m 417 86 q 541 117 496 86 q 605 224 586 149 q 624 429 624 299 q 605 635 624 561 q 541 741 586 710 q 417 772 496 772 q 292 741 338 772 q 228 635 247 710 q 210 429 210 561 q 228 224 210 299 q 292 117 247 149 q 417 86 338 86 m 432 939 l 211 1132 l 288 1213 l 508 1021 l 432 939 z "},"ỏ":{"ha":833,"x_min":96,"x_max":738,"o":"m 417 -19 q 226 24 296 -19 q 126 166 156 67 q 96 429 96 265 q 126 693 96 594 q 226 835 156 792 q 417 878 296 878 q 608 835 538 878 q 708 693 678 792 q 738 429 738 594 q 708 166 738 265 q 608 24 678 67 q 417 -19 538 -19 m 417 86 q 541 117 496 86 q 605 224 586 149 q 624 429 624 299 q 605 635 624 561 q 541 741 586 710 q 417 772 496 772 q 292 741 338 772 q 228 635 247 710 q 210 429 210 561 q 228 224 210 299 q 292 117 247 149 q 417 86 338 86 m 378 913 l 350 1015 q 419 1038 394 1022 q 444 1072 444 1053 q 433 1097 444 1088 q 404 1107 421 1107 q 344 1088 381 1107 q 275 1039 308 1068 l 275 1164 q 336 1200 300 1186 q 404 1214 372 1214 q 516 1178 474 1214 q 558 1081 558 1142 q 510 974 558 1021 q 378 913 461 928 z "},"ơ":{"ha":833,"x_min":96,"x_max":919,"o":"m 417 -19 q 226 24 296 -19 q 126 166 156 67 q 96 429 96 265 q 126 693 96 594 q 226 835 156 792 q 417 878 296 878 q 608 835 538 878 q 708 693 678 792 q 738 429 738 594 q 708 166 738 265 q 608 24 678 67 q 417 -19 538 -19 m 417 86 q 541 117 496 86 q 605 224 586 149 q 624 429 624 299 q 605 635 624 561 q 541 741 586 710 q 417 772 496 772 q 292 741 338 772 q 228 635 247 710 q 210 429 210 561 q 228 224 210 299 q 292 117 247 149 q 417 86 338 86 m 749 621 q 688 635 719 621 q 635 672 656 650 l 635 779 q 692 735 663 744 q 739 726 722 726 q 788 749 772 726 q 804 811 804 772 l 804 1013 l 919 1013 l 919 811 q 872 674 919 726 q 749 621 825 621 z "},"ớ":{"ha":833,"x_min":96,"x_max":919,"o":"m 417 -19 q 226 24 296 -19 q 126 166 156 67 q 96 429 96 265 q 126 693 96 594 q 226 835 156 792 q 417 878 296 878 q 608 835 538 878 q 708 693 678 792 q 738 429 738 594 q 708 166 738 265 q 608 24 678 67 q 417 -19 538 -19 m 417 86 q 541 117 496 86 q 605 224 586 149 q 624 429 624 299 q 605 635 624 561 q 541 741 586 710 q 417 772 496 772 q 292 741 338 772 q 228 635 247 710 q 210 429 210 561 q 228 224 210 299 q 292 117 247 149 q 417 86 338 86 m 749 621 q 688 635 719 621 q 635 672 656 650 l 635 779 q 692 735 663 744 q 739 726 722 726 q 788 749 772 726 q 804 811 804 772 l 804 1013 l 919 1013 l 919 811 q 872 674 919 726 q 749 621 825 621 m 401 939 l 325 1021 l 546 1213 l 622 1132 l 401 939 z "},"ợ":{"ha":833,"x_min":96,"x_max":919,"o":"m 417 -19 q 226 24 296 -19 q 126 166 156 67 q 96 429 96 265 q 126 693 96 594 q 226 835 156 792 q 417 878 296 878 q 608 835 538 878 q 708 693 678 792 q 738 429 738 594 q 708 166 738 265 q 608 24 678 67 q 417 -19 538 -19 m 417 86 q 541 117 496 86 q 605 224 586 149 q 624 429 624 299 q 605 635 624 561 q 541 741 586 710 q 417 772 496 772 q 292 741 338 772 q 228 635 247 710 q 210 429 210 561 q 228 224 210 299 q 292 117 247 149 q 417 86 338 86 m 749 621 q 688 635 719 621 q 635 672 656 650 l 635 779 q 692 735 663 744 q 739 726 722 726 q 788 749 772 726 q 804 811 804 772 l 804 1013 l 919 1013 l 919 811 q 872 674 919 726 q 749 621 825 621 m 417 -322 q 339 -302 360 -322 q 318 -229 318 -282 q 339 -155 318 -175 q 417 -135 360 -135 q 494 -155 474 -135 q 515 -229 515 -175 q 494 -302 515 -282 q 417 -322 474 -322 z "},"ờ":{"ha":833,"x_min":96,"x_max":919,"o":"m 417 -19 q 226 24 296 -19 q 126 166 156 67 q 96 429 96 265 q 126 693 96 594 q 226 835 156 792 q 417 878 296 878 q 608 835 538 878 q 708 693 678 792 q 738 429 738 594 q 708 166 738 265 q 608 24 678 67 q 417 -19 538 -19 m 417 86 q 541 117 496 86 q 605 224 586 149 q 624 429 624 299 q 605 635 624 561 q 541 741 586 710 q 417 772 496 772 q 292 741 338 772 q 228 635 247 710 q 210 429 210 561 q 228 224 210 299 q 292 117 247 149 q 417 86 338 86 m 749 621 q 688 635 719 621 q 635 672 656 650 l 635 779 q 692 735 663 744 q 739 726 722 726 q 788 749 772 726 q 804 811 804 772 l 804 1013 l 919 1013 l 919 811 q 872 674 919 726 q 749 621 825 621 m 432 939 l 211 1132 l 288 1213 l 508 1021 l 432 939 z "},"ở":{"ha":833,"x_min":96,"x_max":919,"o":"m 417 -19 q 226 24 296 -19 q 126 166 156 67 q 96 429 96 265 q 126 693 96 594 q 226 835 156 792 q 417 878 296 878 q 608 835 538 878 q 708 693 678 792 q 738 429 738 594 q 708 166 738 265 q 608 24 678 67 q 417 -19 538 -19 m 417 86 q 541 117 496 86 q 605 224 586 149 q 624 429 624 299 q 605 635 624 561 q 541 741 586 710 q 417 772 496 772 q 292 741 338 772 q 228 635 247 710 q 210 429 210 561 q 228 224 210 299 q 292 117 247 149 q 417 86 338 86 m 749 621 q 688 635 719 621 q 635 672 656 650 l 635 779 q 692 735 663 744 q 739 726 722 726 q 788 749 772 726 q 804 811 804 772 l 804 1013 l 919 1013 l 919 811 q 872 674 919 726 q 749 621 825 621 m 378 913 l 350 1015 q 419 1038 394 1022 q 444 1072 444 1053 q 433 1097 444 1088 q 404 1107 421 1107 q 344 1088 381 1107 q 275 1039 308 1068 l 275 1164 q 336 1200 300 1186 q 404 1214 372 1214 q 516 1178 474 1214 q 558 1081 558 1142 q 510 974 558 1021 q 378 913 461 928 z "},"ỡ":{"ha":833,"x_min":96,"x_max":919,"o":"m 417 -19 q 226 24 296 -19 q 126 166 156 67 q 96 429 96 265 q 126 693 96 594 q 226 835 156 792 q 417 878 296 878 q 608 835 538 878 q 708 693 678 792 q 738 429 738 594 q 708 166 738 265 q 608 24 678 67 q 417 -19 538 -19 m 417 86 q 541 117 496 86 q 605 224 586 149 q 624 429 624 299 q 605 635 624 561 q 541 741 586 710 q 417 772 496 772 q 292 741 338 772 q 228 635 247 710 q 210 429 210 561 q 228 224 210 299 q 292 117 247 149 q 417 86 338 86 m 749 621 q 688 635 719 621 q 635 672 656 650 l 635 779 q 692 735 663 744 q 739 726 722 726 q 788 749 772 726 q 804 811 804 772 l 804 1013 l 919 1013 l 919 811 q 872 674 919 726 q 749 621 825 621 m 510 961 q 456 977 485 961 q 401 1015 428 993 q 353 1052 374 1036 q 324 1068 332 1068 q 304 1049 307 1068 q 307 997 301 1029 l 189 997 q 221 1125 183 1075 q 324 1175 258 1175 q 378 1159 350 1175 q 431 1122 406 1143 q 478 1084 457 1100 q 510 1068 499 1068 q 530 1086 528 1068 q 526 1135 532 1104 l 643 1135 q 613 1010 650 1058 q 510 961 576 961 z "},"ő":{"ha":833,"x_min":96,"x_max":738,"o":"m 417 -19 q 226 24 296 -19 q 126 166 156 67 q 96 429 96 265 q 126 693 96 594 q 226 835 156 792 q 417 878 296 878 q 608 835 538 878 q 708 693 678 792 q 738 429 738 594 q 708 166 738 265 q 608 24 678 67 q 417 -19 538 -19 m 417 86 q 541 117 496 86 q 605 224 586 149 q 624 429 624 299 q 605 635 624 561 q 541 741 586 710 q 417 772 496 772 q 292 741 338 772 q 228 635 247 710 q 210 429 210 561 q 228 224 210 299 q 292 117 247 149 q 417 86 338 86 m 496 939 l 419 1021 l 640 1213 l 717 1132 l 496 939 m 193 939 l 117 1021 l 338 1213 l 414 1132 l 193 939 z "},"ō":{"ha":833,"x_min":96,"x_max":738,"o":"m 417 -19 q 226 24 296 -19 q 126 166 156 67 q 96 429 96 265 q 126 693 96 594 q 226 835 156 792 q 417 878 296 878 q 608 835 538 878 q 708 693 678 792 q 738 429 738 594 q 708 166 738 265 q 608 24 678 67 q 417 -19 538 -19 m 417 86 q 541 117 496 86 q 605 224 586 149 q 624 429 624 299 q 605 635 624 561 q 541 741 586 710 q 417 772 496 772 q 292 741 338 772 q 228 635 247 710 q 210 429 210 561 q 228 224 210 299 q 292 117 247 149 q 417 86 338 86 m 204 985 l 204 1090 l 629 1090 l 629 985 l 204 985 z "},"ø":{"ha":833,"x_min":68,"x_max":763,"o":"m 68 -43 l 632 903 l 763 903 l 199 -43 l 68 -43 m 417 -19 q 226 24 296 -19 q 126 166 156 67 q 96 429 96 265 q 126 693 96 594 q 226 835 156 792 q 417 878 296 878 q 608 835 538 878 q 708 693 678 792 q 738 429 738 594 q 708 166 738 265 q 608 24 678 67 q 417 -19 538 -19 m 417 86 q 541 117 496 86 q 605 224 586 149 q 624 429 624 299 q 605 635 624 561 q 541 741 586 710 q 417 772 496 772 q 292 741 338 772 q 228 635 247 710 q 210 429 210 561 q 228 224 210 299 q 292 117 247 149 q 417 86 338 86 z "},"õ":{"ha":833,"x_min":96,"x_max":738,"o":"m 417 -19 q 226 24 296 -19 q 126 166 156 67 q 96 429 96 265 q 126 693 96 594 q 226 835 156 792 q 417 878 296 878 q 608 835 538 878 q 708 693 678 792 q 738 429 738 594 q 708 166 738 265 q 608 24 678 67 q 417 -19 538 -19 m 417 86 q 541 117 496 86 q 605 224 586 149 q 624 429 624 299 q 605 635 624 561 q 541 741 586 710 q 417 772 496 772 q 292 741 338 772 q 228 635 247 710 q 210 429 210 561 q 228 224 210 299 q 292 117 247 149 q 417 86 338 86 m 510 961 q 456 977 485 961 q 401 1015 428 993 q 353 1052 374 1036 q 324 1068 332 1068 q 304 1049 307 1068 q 307 997 301 1029 l 189 997 q 221 1125 183 1075 q 324 1175 258 1175 q 378 1159 350 1175 q 431 1122 406 1143 q 478 1084 457 1100 q 510 1068 499 1068 q 530 1086 528 1068 q 526 1135 532 1104 l 643 1135 q 613 1010 650 1058 q 510 961 576 961 z "},"œ":{"ha":833,"x_min":7,"x_max":826,"o":"m 243 -40 q 103 3 154 -40 q 29 151 51 47 q 7 429 7 254 q 29 708 7 606 q 103 855 51 811 q 243 899 154 899 q 350 872 311 899 q 418 782 389 846 q 488 872 447 846 q 604 899 529 899 q 739 853 690 899 q 807 699 788 807 q 826 407 826 592 l 474 407 q 488 201 475 275 q 528 97 500 128 q 604 65 556 65 q 639 76 624 65 q 673 113 654 86 q 718 189 692 139 l 813 125 q 719 -3 765 33 q 604 -40 674 -40 q 488 -14 529 -40 q 418 76 447 13 q 350 -14 389 13 q 243 -40 311 -40 m 243 65 q 313 98 288 65 q 349 210 338 131 q 360 429 360 289 q 349 649 360 569 q 313 760 338 728 q 243 793 288 793 q 172 760 199 793 q 134 649 146 728 q 122 429 122 571 q 134 210 122 289 q 172 98 146 131 q 243 65 199 65 m 475 513 l 710 513 q 698 682 708 621 q 665 768 688 743 q 604 793 642 793 q 528 768 556 793 q 488 682 500 743 q 475 513 476 621 z "},"p":{"ha":833,"x_min":104,"x_max":747,"o":"m 104 -253 l 104 858 l 218 858 l 218 818 q 306 865 253 851 q 426 878 358 878 q 617 835 547 878 q 717 694 688 792 q 747 431 747 596 q 717 167 747 265 q 617 24 688 68 q 426 -19 547 -19 q 304 -1 357 -19 q 218 58 251 17 l 218 -253 l 104 -253 m 426 86 q 551 117 506 86 q 615 224 596 149 q 633 431 633 300 q 615 635 633 561 q 551 741 596 710 q 426 772 506 772 q 316 761 363 772 q 244 728 269 750 q 218 671 218 706 l 218 301 q 272 137 218 188 q 426 86 325 86 z "},"þ":{"ha":833,"x_min":104,"x_max":747,"o":"m 104 -253 l 104 1111 l 218 1111 l 218 818 q 306 865 253 851 q 426 878 358 878 q 617 835 547 878 q 717 694 688 792 q 747 431 747 596 q 717 167 747 265 q 617 24 688 68 q 426 -19 547 -19 q 304 -1 357 -19 q 218 58 251 17 l 218 -253 l 104 -253 m 426 86 q 551 117 506 86 q 615 224 596 149 q 633 431 633 300 q 615 635 633 561 q 551 741 596 710 q 426 772 506 772 q 316 761 363 772 q 244 728 269 750 q 218 671 218 706 l 218 301 q 272 137 218 188 q 426 86 325 86 z "},"q":{"ha":833,"x_min":86,"x_max":729,"o":"m 615 -253 l 615 58 q 529 -1 582 17 q 407 -19 476 -19 q 216 24 286 -19 q 116 167 146 68 q 86 431 86 265 q 116 694 86 596 q 216 835 146 792 q 407 878 286 878 q 528 865 475 878 q 615 818 582 851 l 615 858 l 729 858 l 729 -253 l 615 -253 m 407 86 q 562 137 508 86 q 615 301 615 188 l 615 671 q 590 728 615 706 q 518 761 564 750 q 407 772 472 772 q 283 741 328 772 q 219 635 238 710 q 200 431 200 561 q 219 224 200 300 q 283 117 238 149 q 407 86 328 86 z "},"r":{"ha":833,"x_min":151,"x_max":754,"o":"m 151 0 l 151 858 l 265 858 l 265 740 q 315 805 283 774 q 392 857 347 836 q 489 878 436 878 q 610 860 561 878 q 692 799 658 842 q 754 685 726 757 l 651 638 q 613 719 633 690 q 565 760 593 749 q 489 772 536 772 q 382 745 425 772 q 314 674 339 718 q 277 576 289 629 q 265 469 265 522 l 265 0 l 151 0 z "},"ŕ":{"ha":833,"x_min":151,"x_max":754,"o":"m 151 0 l 151 858 l 265 858 l 265 740 q 315 805 283 774 q 392 857 347 836 q 489 878 436 878 q 610 860 561 878 q 692 799 658 842 q 754 685 726 757 l 651 638 q 613 719 633 690 q 565 760 593 749 q 489 772 536 772 q 382 745 425 772 q 314 674 339 718 q 277 576 289 629 q 265 469 265 522 l 265 0 l 151 0 m 401 939 l 325 1021 l 546 1213 l 622 1132 l 401 939 z "},"ř":{"ha":833,"x_min":151,"x_max":754,"o":"m 151 0 l 151 858 l 265 858 l 265 740 q 315 805 283 774 q 392 857 347 836 q 489 878 436 878 q 610 860 561 878 q 692 799 658 842 q 754 685 726 757 l 651 638 q 613 719 633 690 q 565 760 593 749 q 489 772 536 772 q 382 745 425 772 q 314 674 339 718 q 277 576 289 629 q 265 469 265 522 l 265 0 l 151 0 m 417 924 l 203 1114 l 290 1183 l 417 1071 l 542 1186 l 631 1117 l 417 924 z "},"ŗ":{"ha":833,"x_min":151,"x_max":754,"o":"m 151 0 l 151 858 l 265 858 l 265 740 q 315 805 283 774 q 392 857 347 836 q 489 878 436 878 q 610 860 561 878 q 692 799 658 842 q 754 685 726 757 l 651 638 q 613 719 633 690 q 565 760 593 749 q 489 772 536 772 q 382 745 425 772 q 314 674 339 718 q 277 576 289 629 q 265 469 265 522 l 265 0 l 151 0 m 325 -342 l 392 -168 q 360 -106 360 -156 q 377 -52 360 -68 q 435 -36 394 -36 q 492 -52 475 -36 q 508 -106 508 -68 q 492 -176 508 -135 q 451 -260 475 -217 q 403 -342 426 -304 l 325 -342 z "},"s":{"ha":833,"x_min":106,"x_max":749,"o":"m 382 -19 q 261 -4 311 -19 q 175 48 211 11 q 106 144 139 85 l 196 219 q 244 139 221 168 q 299 98 267 110 q 382 86 332 86 q 536 101 482 86 q 613 149 590 115 q 635 242 635 182 q 616 326 635 296 q 551 371 597 356 q 421 397 506 386 q 248 438 314 411 q 152 512 182 465 q 122 629 122 558 q 153 776 122 721 q 257 854 185 831 q 451 878 329 878 q 578 865 526 878 q 667 821 629 851 q 738 738 704 790 l 654 656 q 603 726 629 701 q 543 762 578 751 q 451 772 508 772 q 321 759 368 772 q 255 715 274 746 q 236 629 236 683 q 279 548 236 575 q 426 506 322 521 q 618 461 547 490 q 719 381 689 432 q 749 242 749 329 q 714 88 749 144 q 599 6 679 31 q 382 -19 519 -19 z "},"ś":{"ha":833,"x_min":106,"x_max":749,"o":"m 382 -19 q 261 -4 311 -19 q 175 48 211 11 q 106 144 139 85 l 196 219 q 244 139 221 168 q 299 98 267 110 q 382 86 332 86 q 536 101 482 86 q 613 149 590 115 q 635 242 635 182 q 616 326 635 296 q 551 371 597 356 q 421 397 506 386 q 248 438 314 411 q 152 512 182 465 q 122 629 122 558 q 153 776 122 721 q 257 854 185 831 q 451 878 329 878 q 578 865 526 878 q 667 821 629 851 q 738 738 704 790 l 654 656 q 603 726 629 701 q 543 762 578 751 q 451 772 508 772 q 321 759 368 772 q 255 715 274 746 q 236 629 236 683 q 279 548 236 575 q 426 506 322 521 q 618 461 547 490 q 719 381 689 432 q 749 242 749 329 q 714 88 749 144 q 599 6 679 31 q 382 -19 519 -19 m 401 939 l 325 1021 l 546 1213 l 622 1132 l 401 939 z "},"š":{"ha":833,"x_min":106,"x_max":749,"o":"m 382 -19 q 261 -4 311 -19 q 175 48 211 11 q 106 144 139 85 l 196 219 q 244 139 221 168 q 299 98 267 110 q 382 86 332 86 q 536 101 482 86 q 613 149 590 115 q 635 242 635 182 q 616 326 635 296 q 551 371 597 356 q 421 397 506 386 q 248 438 314 411 q 152 512 182 465 q 122 629 122 558 q 153 776 122 721 q 257 854 185 831 q 451 878 329 878 q 578 865 526 878 q 667 821 629 851 q 738 738 704 790 l 654 656 q 603 726 629 701 q 543 762 578 751 q 451 772 508 772 q 321 759 368 772 q 255 715 274 746 q 236 629 236 683 q 279 548 236 575 q 426 506 322 521 q 618 461 547 490 q 719 381 689 432 q 749 242 749 329 q 714 88 749 144 q 599 6 679 31 q 382 -19 519 -19 m 417 924 l 203 1114 l 290 1183 l 417 1071 l 542 1186 l 631 1117 l 417 924 z "},"ş":{"ha":833,"x_min":106,"x_max":749,"o":"m 382 -19 q 261 -4 311 -19 q 175 48 211 11 q 106 144 139 85 l 196 219 q 244 139 221 168 q 299 98 267 110 q 382 86 332 86 q 536 101 482 86 q 613 149 590 115 q 635 242 635 182 q 616 326 635 296 q 551 371 597 356 q 421 397 506 386 q 248 438 314 411 q 152 512 182 465 q 122 629 122 558 q 153 776 122 721 q 257 854 185 831 q 451 878 329 878 q 578 865 526 878 q 667 821 629 851 q 738 738 704 790 l 654 656 q 603 726 629 701 q 543 762 578 751 q 451 772 508 772 q 321 759 368 772 q 255 715 274 746 q 236 629 236 683 q 279 548 236 575 q 426 506 322 521 q 618 461 547 490 q 719 381 689 432 q 749 242 749 329 q 714 88 749 144 q 599 6 679 31 q 382 -19 519 -19 m 408 -314 q 323 -298 363 -314 q 264 -256 283 -282 l 310 -174 q 351 -197 324 -187 q 408 -207 378 -207 q 448 -198 433 -207 q 463 -175 463 -189 q 434 -147 463 -157 q 360 -136 406 -136 l 360 7 l 474 7 l 474 -62 q 548 -103 519 -72 q 576 -175 576 -133 q 531 -275 576 -236 q 408 -314 485 -314 z "},"ŝ":{"ha":833,"x_min":106,"x_max":749,"o":"m 382 -19 q 261 -4 311 -19 q 175 48 211 11 q 106 144 139 85 l 196 219 q 244 139 221 168 q 299 98 267 110 q 382 86 332 86 q 536 101 482 86 q 613 149 590 115 q 635 242 635 182 q 616 326 635 296 q 551 371 597 356 q 421 397 506 386 q 248 438 314 411 q 152 512 182 465 q 122 629 122 558 q 153 776 122 721 q 257 854 185 831 q 451 878 329 878 q 578 865 526 878 q 667 821 629 851 q 738 738 704 790 l 654 656 q 603 726 629 701 q 543 762 578 751 q 451 772 508 772 q 321 759 368 772 q 255 715 274 746 q 236 629 236 683 q 279 548 236 575 q 426 506 322 521 q 618 461 547 490 q 719 381 689 432 q 749 242 749 329 q 714 88 749 144 q 599 6 679 31 q 382 -19 519 -19 m 542 924 l 417 1038 l 290 926 l 203 994 l 417 1185 l 631 992 l 542 924 z "},"ș":{"ha":833,"x_min":106,"x_max":749,"o":"m 382 -19 q 261 -4 311 -19 q 175 48 211 11 q 106 144 139 85 l 196 219 q 244 139 221 168 q 299 98 267 110 q 382 86 332 86 q 536 101 482 86 q 613 149 590 115 q 635 242 635 182 q 616 326 635 296 q 551 371 597 356 q 421 397 506 386 q 248 438 314 411 q 152 512 182 465 q 122 629 122 558 q 153 776 122 721 q 257 854 185 831 q 451 878 329 878 q 578 865 526 878 q 667 821 629 851 q 738 738 704 790 l 654 656 q 603 726 629 701 q 543 762 578 751 q 451 772 508 772 q 321 759 368 772 q 255 715 274 746 q 236 629 236 683 q 279 548 236 575 q 426 506 322 521 q 618 461 547 490 q 719 381 689 432 q 749 242 749 329 q 714 88 749 144 q 599 6 679 31 q 382 -19 519 -19 m 325 -342 l 392 -168 q 360 -106 360 -156 q 377 -52 360 -68 q 435 -36 394 -36 q 492 -52 475 -36 q 508 -106 508 -68 q 492 -176 508 -135 q 451 -260 475 -217 q 403 -342 426 -304 l 325 -342 z "},"ß":{"ha":833,"x_min":101,"x_max":743,"o":"m 101 0 l 101 826 q 128 1006 101 939 q 217 1101 154 1072 q 388 1131 281 1131 q 578 1101 508 1131 q 678 1006 649 1072 q 708 826 708 939 q 688 685 708 733 q 615 600 668 636 q 692 541 664 575 q 731 454 719 507 q 743 321 743 401 q 713 132 743 203 q 613 31 683 61 q 422 0 543 0 l 342 0 l 342 106 l 422 106 q 547 125 503 106 q 610 192 592 144 q 629 321 629 239 q 610 456 629 410 q 547 520 592 503 q 422 538 503 538 l 351 538 l 351 643 l 388 643 q 513 658 468 643 q 576 712 557 672 q 594 826 594 751 q 576 946 594 903 q 513 1007 557 989 q 388 1025 468 1025 q 284 1007 321 1025 q 231 946 247 989 q 215 826 215 903 l 215 0 l 101 0 z "},"t":{"ha":833,"x_min":76,"x_max":761,"o":"m 507 -19 q 356 13 413 -19 q 274 117 299 46 q 249 304 249 189 l 249 761 l 76 761 l 76 867 l 249 867 l 249 1111 l 363 1111 l 363 867 l 651 867 l 651 761 l 363 761 l 363 304 q 394 135 363 183 q 507 86 426 86 q 584 94 557 86 q 626 121 611 101 q 653 175 642 140 l 761 138 q 713 44 743 79 q 634 -5 683 10 q 507 -19 585 -19 z "},"ŧ":{"ha":833,"x_min":76,"x_max":761,"o":"m 76 450 l 76 556 l 651 556 l 651 450 l 76 450 m 507 -19 q 356 13 413 -19 q 274 117 299 46 q 249 304 249 189 l 249 761 l 76 761 l 76 867 l 249 867 l 249 1111 l 363 1111 l 363 867 l 651 867 l 651 761 l 363 761 l 363 304 q 394 135 363 183 q 507 86 426 86 q 584 94 557 86 q 626 121 611 101 q 653 175 642 140 l 761 138 q 713 44 743 79 q 634 -5 683 10 q 507 -19 585 -19 z "},"ť":{"ha":833,"x_min":76,"x_max":761,"o":"m 507 -19 q 356 13 413 -19 q 274 117 299 46 q 249 304 249 189 l 249 761 l 76 761 l 76 867 l 249 867 l 249 1111 l 363 1111 l 363 867 l 651 867 l 651 761 l 363 761 l 363 304 q 394 135 363 183 q 507 86 426 86 q 584 94 557 86 q 626 121 611 101 q 653 175 642 140 l 761 138 q 713 44 743 79 q 634 -5 683 10 q 507 -19 585 -19 m 449 938 l 435 1313 l 551 1313 l 539 938 l 449 938 z "},"ţ":{"ha":833,"x_min":76,"x_max":761,"o":"m 507 -19 q 356 13 413 -19 q 274 117 299 46 q 249 304 249 189 l 249 761 l 76 761 l 76 867 l 249 867 l 249 1111 l 363 1111 l 363 867 l 651 867 l 651 761 l 363 761 l 363 304 q 394 135 363 183 q 507 86 426 86 q 584 94 557 86 q 626 121 611 101 q 653 175 642 140 l 761 138 q 713 44 743 79 q 634 -5 683 10 q 507 -19 585 -19 m 492 -314 q 406 -298 446 -314 q 347 -256 367 -282 l 393 -174 q 434 -197 407 -187 q 492 -207 461 -207 q 531 -198 517 -207 q 546 -175 546 -189 q 517 -147 546 -157 q 443 -136 489 -136 l 443 7 l 557 7 l 557 -62 q 631 -103 603 -72 q 660 -175 660 -133 q 614 -275 660 -236 q 492 -314 568 -314 z "},"ț":{"ha":833,"x_min":76,"x_max":761,"o":"m 507 -19 q 356 13 413 -19 q 274 117 299 46 q 249 304 249 189 l 249 761 l 76 761 l 76 867 l 249 867 l 249 1111 l 363 1111 l 363 867 l 651 867 l 651 761 l 363 761 l 363 304 q 394 135 363 183 q 507 86 426 86 q 584 94 557 86 q 626 121 611 101 q 653 175 642 140 l 761 138 q 713 44 743 79 q 634 -5 683 10 q 507 -19 585 -19 m 408 -342 l 475 -168 q 443 -106 443 -156 q 460 -52 443 -68 q 518 -36 478 -36 q 575 -52 558 -36 q 592 -106 592 -68 q 575 -176 592 -135 q 534 -260 558 -217 q 486 -342 510 -304 l 408 -342 z "},"u":{"ha":833,"x_min":114,"x_max":735,"o":"m 393 -19 q 227 12 289 -19 q 140 116 165 43 q 114 313 114 189 l 114 858 l 228 858 l 228 313 q 243 175 228 224 q 294 106 258 126 q 393 86 329 86 q 531 103 482 86 q 601 160 581 119 q 621 275 621 201 l 621 858 l 735 858 l 735 0 l 621 0 l 621 47 q 565 8 596 22 q 492 -13 533 -7 q 393 -19 450 -19 z "},"ú":{"ha":833,"x_min":114,"x_max":735,"o":"m 393 -19 q 227 12 289 -19 q 140 116 165 43 q 114 313 114 189 l 114 858 l 228 858 l 228 313 q 243 175 228 224 q 294 106 258 126 q 393 86 329 86 q 531 103 482 86 q 601 160 581 119 q 621 275 621 201 l 621 858 l 735 858 l 735 0 l 621 0 l 621 47 q 565 8 596 22 q 492 -13 533 -7 q 393 -19 450 -19 m 401 939 l 325 1021 l 546 1213 l 622 1132 l 401 939 z "},"ŭ":{"ha":833,"x_min":114,"x_max":735,"o":"m 393 -19 q 227 12 289 -19 q 140 116 165 43 q 114 313 114 189 l 114 858 l 228 858 l 228 313 q 243 175 228 224 q 294 106 258 126 q 393 86 329 86 q 531 103 482 86 q 601 160 581 119 q 621 275 621 201 l 621 858 l 735 858 l 735 0 l 621 0 l 621 47 q 565 8 596 22 q 492 -13 533 -7 q 393 -19 450 -19 m 417 931 q 260 976 303 931 q 222 1132 218 1021 l 338 1132 q 341 1072 336 1093 q 363 1044 346 1051 q 417 1036 381 1036 q 472 1044 454 1036 q 494 1072 489 1051 q 499 1132 500 1093 l 613 1132 q 575 976 618 1021 q 417 931 532 931 z "},"ǔ":{"ha":833,"x_min":114,"x_max":735,"o":"m 393 -19 q 227 12 289 -19 q 140 116 165 43 q 114 313 114 189 l 114 858 l 228 858 l 228 313 q 243 175 228 224 q 294 106 258 126 q 393 86 329 86 q 531 103 482 86 q 601 160 581 119 q 621 275 621 201 l 621 858 l 735 858 l 735 0 l 621 0 l 621 47 q 565 8 596 22 q 492 -13 533 -7 q 393 -19 450 -19 m 417 924 l 203 1114 l 290 1183 l 417 1071 l 542 1186 l 631 1117 l 417 924 z "},"û":{"ha":833,"x_min":114,"x_max":735,"o":"m 393 -19 q 227 12 289 -19 q 140 116 165 43 q 114 313 114 189 l 114 858 l 228 858 l 228 313 q 243 175 228 224 q 294 106 258 126 q 393 86 329 86 q 531 103 482 86 q 601 160 581 119 q 621 275 621 201 l 621 858 l 735 858 l 735 0 l 621 0 l 621 47 q 565 8 596 22 q 492 -13 533 -7 q 393 -19 450 -19 m 542 924 l 417 1038 l 290 926 l 203 994 l 417 1185 l 631 992 l 542 924 z "},"ü":{"ha":833,"x_min":114,"x_max":735,"o":"m 393 -19 q 227 12 289 -19 q 140 116 165 43 q 114 313 114 189 l 114 858 l 228 858 l 228 313 q 243 175 228 224 q 294 106 258 126 q 393 86 329 86 q 531 103 482 86 q 601 160 581 119 q 621 275 621 201 l 621 858 l 735 858 l 735 0 l 621 0 l 621 47 q 565 8 596 22 q 492 -13 533 -7 q 393 -19 450 -19 m 567 993 q 491 1014 514 993 q 468 1086 468 1035 q 491 1156 468 1135 q 567 1176 514 1176 q 643 1156 621 1176 q 665 1086 665 1135 q 643 1014 665 1035 q 567 993 621 993 m 267 993 q 191 1014 214 993 q 168 1086 168 1035 q 191 1156 168 1135 q 267 1176 214 1176 q 343 1156 321 1176 q 365 1086 365 1135 q 343 1014 365 1035 q 267 993 321 993 z "},"ǘ":{"ha":833,"x_min":114,"x_max":735,"o":"m 393 -19 q 227 12 289 -19 q 140 116 165 43 q 114 313 114 189 l 114 858 l 228 858 l 228 313 q 243 175 228 224 q 294 106 258 126 q 393 86 329 86 q 531 103 482 86 q 601 160 581 119 q 621 275 621 201 l 621 858 l 735 858 l 735 0 l 621 0 l 621 47 q 565 8 596 22 q 492 -13 533 -7 q 393 -19 450 -19 m 567 993 q 491 1014 514 993 q 468 1086 468 1035 q 491 1156 468 1135 q 567 1176 514 1176 q 643 1156 621 1176 q 665 1086 665 1135 q 643 1014 665 1035 q 567 993 621 993 m 267 993 q 191 1014 214 993 q 168 1086 168 1035 q 191 1156 168 1135 q 267 1176 214 1176 q 343 1156 321 1176 q 365 1086 365 1135 q 343 1014 365 1035 q 267 993 321 993 m 401 1238 l 325 1319 l 546 1511 l 622 1431 l 401 1238 z "},"ǚ":{"ha":833,"x_min":114,"x_max":735,"o":"m 393 -19 q 227 12 289 -19 q 140 116 165 43 q 114 313 114 189 l 114 858 l 228 858 l 228 313 q 243 175 228 224 q 294 106 258 126 q 393 86 329 86 q 531 103 482 86 q 601 160 581 119 q 621 275 621 201 l 621 858 l 735 858 l 735 0 l 621 0 l 621 47 q 565 8 596 22 q 492 -13 533 -7 q 393 -19 450 -19 m 567 993 q 491 1014 514 993 q 468 1086 468 1035 q 491 1156 468 1135 q 567 1176 514 1176 q 643 1156 621 1176 q 665 1086 665 1135 q 643 1014 665 1035 q 567 993 621 993 m 267 993 q 191 1014 214 993 q 168 1086 168 1035 q 191 1156 168 1135 q 267 1176 214 1176 q 343 1156 321 1176 q 365 1086 365 1135 q 343 1014 365 1035 q 267 993 321 993 m 417 1222 l 203 1413 l 290 1482 l 417 1369 l 542 1485 l 631 1415 l 417 1222 z "},"ǜ":{"ha":833,"x_min":114,"x_max":735,"o":"m 393 -19 q 227 12 289 -19 q 140 116 165 43 q 114 313 114 189 l 114 858 l 228 858 l 228 313 q 243 175 228 224 q 294 106 258 126 q 393 86 329 86 q 531 103 482 86 q 601 160 581 119 q 621 275 621 201 l 621 858 l 735 858 l 735 0 l 621 0 l 621 47 q 565 8 596 22 q 492 -13 533 -7 q 393 -19 450 -19 m 567 993 q 491 1014 514 993 q 468 1086 468 1035 q 491 1156 468 1135 q 567 1176 514 1176 q 643 1156 621 1176 q 665 1086 665 1135 q 643 1014 665 1035 q 567 993 621 993 m 267 993 q 191 1014 214 993 q 168 1086 168 1035 q 191 1156 168 1135 q 267 1176 214 1176 q 343 1156 321 1176 q 365 1086 365 1135 q 343 1014 365 1035 q 267 993 321 993 m 432 1238 l 211 1431 l 288 1511 l 508 1319 l 432 1238 z "},"ǖ":{"ha":833,"x_min":114,"x_max":735,"o":"m 393 -19 q 227 12 289 -19 q 140 116 165 43 q 114 313 114 189 l 114 858 l 228 858 l 228 313 q 243 175 228 224 q 294 106 258 126 q 393 86 329 86 q 531 103 482 86 q 601 160 581 119 q 621 275 621 201 l 621 858 l 735 858 l 735 0 l 621 0 l 621 47 q 565 8 596 22 q 492 -13 533 -7 q 393 -19 450 -19 m 567 993 q 491 1014 514 993 q 468 1086 468 1035 q 491 1156 468 1135 q 567 1176 514 1176 q 643 1156 621 1176 q 665 1086 665 1135 q 643 1014 665 1035 q 567 993 621 993 m 267 993 q 191 1014 214 993 q 168 1086 168 1035 q 191 1156 168 1135 q 267 1176 214 1176 q 343 1156 321 1176 q 365 1086 365 1135 q 343 1014 365 1035 q 267 993 321 993 m 204 1283 l 204 1389 l 629 1389 l 629 1283 l 204 1283 z "},"ụ":{"ha":833,"x_min":114,"x_max":735,"o":"m 393 -19 q 227 12 289 -19 q 140 116 165 43 q 114 313 114 189 l 114 858 l 228 858 l 228 313 q 243 175 228 224 q 294 106 258 126 q 393 86 329 86 q 531 103 482 86 q 601 160 581 119 q 621 275 621 201 l 621 858 l 735 858 l 735 0 l 621 0 l 621 47 q 565 8 596 22 q 492 -13 533 -7 q 393 -19 450 -19 m 417 -322 q 339 -302 360 -322 q 318 -229 318 -282 q 339 -155 318 -175 q 417 -135 360 -135 q 494 -155 474 -135 q 515 -229 515 -175 q 494 -302 515 -282 q 417 -322 474 -322 z "},"ù":{"ha":833,"x_min":114,"x_max":735,"o":"m 393 -19 q 227 12 289 -19 q 140 116 165 43 q 114 313 114 189 l 114 858 l 228 858 l 228 313 q 243 175 228 224 q 294 106 258 126 q 393 86 329 86 q 531 103 482 86 q 601 160 581 119 q 621 275 621 201 l 621 858 l 735 858 l 735 0 l 621 0 l 621 47 q 565 8 596 22 q 492 -13 533 -7 q 393 -19 450 -19 m 432 939 l 211 1132 l 288 1213 l 508 1021 l 432 939 z "},"ủ":{"ha":833,"x_min":114,"x_max":735,"o":"m 393 -19 q 227 12 289 -19 q 140 116 165 43 q 114 313 114 189 l 114 858 l 228 858 l 228 313 q 243 175 228 224 q 294 106 258 126 q 393 86 329 86 q 531 103 482 86 q 601 160 581 119 q 621 275 621 201 l 621 858 l 735 858 l 735 0 l 621 0 l 621 47 q 565 8 596 22 q 492 -13 533 -7 q 393 -19 450 -19 m 378 913 l 350 1015 q 419 1038 394 1022 q 444 1072 444 1053 q 433 1097 444 1088 q 404 1107 421 1107 q 344 1088 381 1107 q 275 1039 308 1068 l 275 1164 q 336 1200 300 1186 q 404 1214 372 1214 q 516 1178 474 1214 q 558 1081 558 1142 q 510 974 558 1021 q 378 913 461 928 z "},"ư":{"ha":833,"x_min":114,"x_max":954,"o":"m 393 -19 q 227 12 289 -19 q 140 116 165 43 q 114 313 114 189 l 114 858 l 228 858 l 228 313 q 243 175 228 224 q 294 106 258 126 q 393 86 329 86 q 531 103 482 86 q 601 160 581 119 q 621 275 621 201 l 621 858 l 735 858 l 735 0 l 621 0 l 621 47 q 565 8 596 22 q 492 -13 533 -7 q 393 -19 450 -19 m 783 700 q 722 715 754 700 q 669 751 690 729 l 669 858 q 727 815 697 824 q 774 806 757 806 q 823 828 807 806 q 839 890 839 851 l 839 1092 l 954 1092 l 954 890 q 907 753 954 806 q 783 700 860 700 z "},"ứ":{"ha":833,"x_min":114,"x_max":954,"o":"m 393 -19 q 227 12 289 -19 q 140 116 165 43 q 114 313 114 189 l 114 858 l 228 858 l 228 313 q 243 175 228 224 q 294 106 258 126 q 393 86 329 86 q 531 103 482 86 q 601 160 581 119 q 621 275 621 201 l 621 858 l 735 858 l 735 0 l 621 0 l 621 47 q 565 8 596 22 q 492 -13 533 -7 q 393 -19 450 -19 m 783 700 q 722 715 754 700 q 669 751 690 729 l 669 858 q 727 815 697 824 q 774 806 757 806 q 823 828 807 806 q 839 890 839 851 l 839 1092 l 954 1092 l 954 890 q 907 753 954 806 q 783 700 860 700 m 401 939 l 325 1021 l 546 1213 l 622 1132 l 401 939 z "},"ự":{"ha":833,"x_min":114,"x_max":954,"o":"m 393 -19 q 227 12 289 -19 q 140 116 165 43 q 114 313 114 189 l 114 858 l 228 858 l 228 313 q 243 175 228 224 q 294 106 258 126 q 393 86 329 86 q 531 103 482 86 q 601 160 581 119 q 621 275 621 201 l 621 858 l 735 858 l 735 0 l 621 0 l 621 47 q 565 8 596 22 q 492 -13 533 -7 q 393 -19 450 -19 m 783 700 q 722 715 754 700 q 669 751 690 729 l 669 858 q 727 815 697 824 q 774 806 757 806 q 823 828 807 806 q 839 890 839 851 l 839 1092 l 954 1092 l 954 890 q 907 753 954 806 q 783 700 860 700 m 417 -322 q 339 -302 360 -322 q 318 -229 318 -282 q 339 -155 318 -175 q 417 -135 360 -135 q 494 -155 474 -135 q 515 -229 515 -175 q 494 -302 515 -282 q 417 -322 474 -322 z "},"ừ":{"ha":833,"x_min":114,"x_max":954,"o":"m 393 -19 q 227 12 289 -19 q 140 116 165 43 q 114 313 114 189 l 114 858 l 228 858 l 228 313 q 243 175 228 224 q 294 106 258 126 q 393 86 329 86 q 531 103 482 86 q 601 160 581 119 q 621 275 621 201 l 621 858 l 735 858 l 735 0 l 621 0 l 621 47 q 565 8 596 22 q 492 -13 533 -7 q 393 -19 450 -19 m 783 700 q 722 715 754 700 q 669 751 690 729 l 669 858 q 727 815 697 824 q 774 806 757 806 q 823 828 807 806 q 839 890 839 851 l 839 1092 l 954 1092 l 954 890 q 907 753 954 806 q 783 700 860 700 m 432 939 l 211 1132 l 288 1213 l 508 1021 l 432 939 z "},"ử":{"ha":833,"x_min":114,"x_max":954,"o":"m 393 -19 q 227 12 289 -19 q 140 116 165 43 q 114 313 114 189 l 114 858 l 228 858 l 228 313 q 243 175 228 224 q 294 106 258 126 q 393 86 329 86 q 531 103 482 86 q 601 160 581 119 q 621 275 621 201 l 621 858 l 735 858 l 735 0 l 621 0 l 621 47 q 565 8 596 22 q 492 -13 533 -7 q 393 -19 450 -19 m 783 700 q 722 715 754 700 q 669 751 690 729 l 669 858 q 727 815 697 824 q 774 806 757 806 q 823 828 807 806 q 839 890 839 851 l 839 1092 l 954 1092 l 954 890 q 907 753 954 806 q 783 700 860 700 m 378 913 l 350 1015 q 419 1038 394 1022 q 444 1072 444 1053 q 433 1097 444 1088 q 404 1107 421 1107 q 344 1088 381 1107 q 275 1039 308 1068 l 275 1164 q 336 1200 300 1186 q 404 1214 372 1214 q 516 1178 474 1214 q 558 1081 558 1142 q 510 974 558 1021 q 378 913 461 928 z "},"ữ":{"ha":833,"x_min":114,"x_max":954,"o":"m 393 -19 q 227 12 289 -19 q 140 116 165 43 q 114 313 114 189 l 114 858 l 228 858 l 228 313 q 243 175 228 224 q 294 106 258 126 q 393 86 329 86 q 531 103 482 86 q 601 160 581 119 q 621 275 621 201 l 621 858 l 735 858 l 735 0 l 621 0 l 621 47 q 565 8 596 22 q 492 -13 533 -7 q 393 -19 450 -19 m 783 700 q 722 715 754 700 q 669 751 690 729 l 669 858 q 727 815 697 824 q 774 806 757 806 q 823 828 807 806 q 839 890 839 851 l 839 1092 l 954 1092 l 954 890 q 907 753 954 806 q 783 700 860 700 m 510 961 q 456 977 485 961 q 401 1015 428 993 q 353 1052 374 1036 q 324 1068 332 1068 q 304 1049 307 1068 q 307 997 301 1029 l 189 997 q 221 1125 183 1075 q 324 1175 258 1175 q 378 1159 350 1175 q 431 1122 406 1143 q 478 1084 457 1100 q 510 1068 499 1068 q 530 1086 528 1068 q 526 1135 532 1104 l 643 1135 q 613 1010 650 1058 q 510 961 576 961 z "},"ű":{"ha":833,"x_min":114,"x_max":735,"o":"m 393 -19 q 227 12 289 -19 q 140 116 165 43 q 114 313 114 189 l 114 858 l 228 858 l 228 313 q 243 175 228 224 q 294 106 258 126 q 393 86 329 86 q 531 103 482 86 q 601 160 581 119 q 621 275 621 201 l 621 858 l 735 858 l 735 0 l 621 0 l 621 47 q 565 8 596 22 q 492 -13 533 -7 q 393 -19 450 -19 m 496 924 l 419 1004 l 640 1197 l 717 1117 l 496 924 m 193 924 l 117 1004 l 338 1197 l 414 1117 l 193 924 z "},"ū":{"ha":833,"x_min":114,"x_max":735,"o":"m 393 -19 q 227 12 289 -19 q 140 116 165 43 q 114 313 114 189 l 114 858 l 228 858 l 228 313 q 243 175 228 224 q 294 106 258 126 q 393 86 329 86 q 531 103 482 86 q 601 160 581 119 q 621 275 621 201 l 621 858 l 735 858 l 735 0 l 621 0 l 621 47 q 565 8 596 22 q 492 -13 533 -7 q 393 -19 450 -19 m 204 985 l 204 1090 l 629 1090 l 629 985 l 204 985 z "},"ų":{"ha":833,"x_min":114,"x_max":754,"o":"m 393 -19 q 227 12 289 -19 q 140 116 165 43 q 114 313 114 189 l 114 858 l 228 858 l 228 313 q 243 175 228 224 q 294 106 258 126 q 393 86 329 86 q 531 103 482 86 q 601 160 581 119 q 621 275 621 201 l 621 858 l 735 858 l 735 0 l 621 0 l 621 47 q 565 8 596 22 q 492 -13 533 -7 q 393 -19 450 -19 m 606 -272 q 484 -241 531 -272 q 438 -156 438 -210 q 467 -84 438 -118 q 544 -24 496 -50 q 647 15 593 3 l 736 0 q 633 -51 675 -28 q 571 -92 592 -74 q 551 -132 550 -111 q 565 -157 551 -147 q 607 -167 578 -167 q 645 -158 626 -167 q 676 -139 664 -150 l 754 -214 q 690 -256 731 -240 q 606 -272 649 -272 z "},"ů":{"ha":833,"x_min":114,"x_max":735,"o":"m 393 -19 q 227 12 289 -19 q 140 116 165 43 q 114 313 114 189 l 114 858 l 228 858 l 228 313 q 243 175 228 224 q 294 106 258 126 q 393 86 329 86 q 531 103 482 86 q 601 160 581 119 q 621 275 621 201 l 621 858 l 735 858 l 735 0 l 621 0 l 621 47 q 565 8 596 22 q 492 -13 533 -7 q 393 -19 450 -19 m 417 963 q 265 1003 308 963 q 221 1143 221 1044 q 265 1284 221 1243 q 417 1325 308 1325 q 569 1285 525 1325 q 614 1143 614 1244 q 570 1003 614 1043 q 417 963 526 963 m 417 1069 q 483 1084 467 1069 q 499 1143 499 1099 q 483 1203 499 1189 q 417 1218 467 1218 q 352 1203 368 1218 q 336 1143 336 1189 q 352 1084 336 1099 q 417 1069 368 1069 z "},"ũ":{"ha":833,"x_min":114,"x_max":735,"o":"m 393 -19 q 227 12 289 -19 q 140 116 165 43 q 114 313 114 189 l 114 858 l 228 858 l 228 313 q 243 175 228 224 q 294 106 258 126 q 393 86 329 86 q 531 103 482 86 q 601 160 581 119 q 621 275 621 201 l 621 858 l 735 858 l 735 0 l 621 0 l 621 47 q 565 8 596 22 q 492 -13 533 -7 q 393 -19 450 -19 m 510 961 q 456 977 485 961 q 401 1015 428 993 q 353 1052 374 1036 q 324 1068 332 1068 q 304 1049 307 1068 q 307 997 301 1029 l 189 997 q 221 1125 183 1075 q 324 1175 258 1175 q 378 1159 350 1175 q 431 1122 406 1143 q 478 1084 457 1100 q 510 1068 499 1068 q 530 1086 528 1068 q 526 1135 532 1104 l 643 1135 q 613 1010 650 1058 q 510 961 576 961 z "},"v":{"ha":833,"x_min":64,"x_max":769,"o":"m 360 0 l 64 858 l 183 858 l 415 178 l 650 858 l 769 858 l 471 0 l 360 0 z "},"w":{"ha":833,"x_min":28,"x_max":806,"o":"m 181 0 l 28 858 l 144 858 l 251 233 l 364 601 l 469 601 l 581 235 l 689 858 l 806 858 l 651 0 l 544 0 l 417 400 l 288 0 l 181 0 z "},"ẃ":{"ha":833,"x_min":28,"x_max":806,"o":"m 181 0 l 28 858 l 144 858 l 251 233 l 364 601 l 469 601 l 581 235 l 689 858 l 806 858 l 651 0 l 544 0 l 417 400 l 288 0 l 181 0 m 401 939 l 325 1021 l 546 1213 l 622 1132 l 401 939 z "},"ŵ":{"ha":833,"x_min":28,"x_max":806,"o":"m 181 0 l 28 858 l 144 858 l 251 233 l 364 601 l 469 601 l 581 235 l 689 858 l 806 858 l 651 0 l 544 0 l 417 400 l 288 0 l 181 0 m 542 924 l 417 1038 l 290 926 l 203 994 l 417 1185 l 631 992 l 542 924 z "},"ẅ":{"ha":833,"x_min":28,"x_max":806,"o":"m 181 0 l 28 858 l 144 858 l 251 233 l 364 601 l 469 601 l 581 235 l 689 858 l 806 858 l 651 0 l 544 0 l 417 400 l 288 0 l 181 0 m 567 993 q 491 1014 514 993 q 468 1086 468 1035 q 491 1156 468 1135 q 567 1176 514 1176 q 643 1156 621 1176 q 665 1086 665 1135 q 643 1014 665 1035 q 567 993 621 993 m 267 993 q 191 1014 214 993 q 168 1086 168 1035 q 191 1156 168 1135 q 267 1176 214 1176 q 343 1156 321 1176 q 365 1086 365 1135 q 343 1014 365 1035 q 267 993 321 993 z "},"ẁ":{"ha":833,"x_min":28,"x_max":806,"o":"m 181 0 l 28 858 l 144 858 l 251 233 l 364 601 l 469 601 l 581 235 l 689 858 l 806 858 l 651 0 l 544 0 l 417 400 l 288 0 l 181 0 m 432 939 l 211 1132 l 288 1213 l 508 1021 l 432 939 z "},"x":{"ha":833,"x_min":79,"x_max":754,"o":"m 622 0 l 79 858 l 211 858 l 754 0 l 622 0 m 79 0 l 622 858 l 754 858 l 211 0 l 79 0 z "},"y":{"ha":833,"x_min":33,"x_max":796,"o":"m 186 -272 q 106 -261 139 -272 q 33 -224 72 -250 l 79 -126 q 140 -158 119 -150 q 186 -167 160 -167 q 276 -151 240 -167 q 339 -94 313 -135 q 389 17 365 -54 l 107 858 l 228 858 l 450 174 l 675 858 l 796 858 l 507 13 q 429 -156 471 -94 q 330 -245 388 -218 q 186 -272 272 -272 z "},"ý":{"ha":833,"x_min":33,"x_max":796,"o":"m 186 -272 q 106 -261 139 -272 q 33 -224 72 -250 l 79 -126 q 140 -158 119 -150 q 186 -167 160 -167 q 276 -151 240 -167 q 339 -94 313 -135 q 389 17 365 -54 l 107 858 l 228 858 l 450 174 l 675 858 l 796 858 l 507 13 q 429 -156 471 -94 q 330 -245 388 -218 q 186 -272 272 -272 m 401 939 l 325 1021 l 546 1213 l 622 1132 l 401 939 z "},"ŷ":{"ha":833,"x_min":33,"x_max":796,"o":"m 186 -272 q 106 -261 139 -272 q 33 -224 72 -250 l 79 -126 q 140 -158 119 -150 q 186 -167 160 -167 q 276 -151 240 -167 q 339 -94 313 -135 q 389 17 365 -54 l 107 858 l 228 858 l 450 174 l 675 858 l 796 858 l 507 13 q 429 -156 471 -94 q 330 -245 388 -218 q 186 -272 272 -272 m 542 924 l 417 1038 l 290 926 l 203 994 l 417 1185 l 631 992 l 542 924 z "},"ÿ":{"ha":833,"x_min":33,"x_max":796,"o":"m 186 -272 q 106 -261 139 -272 q 33 -224 72 -250 l 79 -126 q 140 -158 119 -150 q 186 -167 160 -167 q 276 -151 240 -167 q 339 -94 313 -135 q 389 17 365 -54 l 107 858 l 228 858 l 450 174 l 675 858 l 796 858 l 507 13 q 429 -156 471 -94 q 330 -245 388 -218 q 186 -272 272 -272 m 567 993 q 491 1014 514 993 q 468 1086 468 1035 q 491 1156 468 1135 q 567 1176 514 1176 q 643 1156 621 1176 q 665 1086 665 1135 q 643 1014 665 1035 q 567 993 621 993 m 267 993 q 191 1014 214 993 q 168 1086 168 1035 q 191 1156 168 1135 q 267 1176 214 1176 q 343 1156 321 1176 q 365 1086 365 1135 q 343 1014 365 1035 q 267 993 321 993 z "},"ỵ":{"ha":833,"x_min":33,"x_max":796,"o":"m 186 -272 q 106 -261 139 -272 q 33 -224 72 -250 l 79 -126 q 140 -158 119 -150 q 186 -167 160 -167 q 276 -151 240 -167 q 339 -94 313 -135 q 389 17 365 -54 l 107 858 l 228 858 l 450 174 l 675 858 l 796 858 l 507 13 q 429 -156 471 -94 q 330 -245 388 -218 q 186 -272 272 -272 m 643 -322 q 565 -302 586 -322 q 544 -229 544 -282 q 565 -155 544 -175 q 643 -135 586 -135 q 721 -155 700 -135 q 742 -229 742 -175 q 721 -302 742 -282 q 643 -322 700 -322 z "},"ỳ":{"ha":833,"x_min":33,"x_max":796,"o":"m 186 -272 q 106 -261 139 -272 q 33 -224 72 -250 l 79 -126 q 140 -158 119 -150 q 186 -167 160 -167 q 276 -151 240 -167 q 339 -94 313 -135 q 389 17 365 -54 l 107 858 l 228 858 l 450 174 l 675 858 l 796 858 l 507 13 q 429 -156 471 -94 q 330 -245 388 -218 q 186 -272 272 -272 m 432 939 l 211 1132 l 288 1213 l 508 1021 l 432 939 z "},"ỷ":{"ha":833,"x_min":33,"x_max":796,"o":"m 186 -272 q 106 -261 139 -272 q 33 -224 72 -250 l 79 -126 q 140 -158 119 -150 q 186 -167 160 -167 q 276 -151 240 -167 q 339 -94 313 -135 q 389 17 365 -54 l 107 858 l 228 858 l 450 174 l 675 858 l 796 858 l 507 13 q 429 -156 471 -94 q 330 -245 388 -218 q 186 -272 272 -272 m 378 913 l 350 1015 q 419 1038 394 1022 q 444 1072 444 1053 q 433 1097 444 1088 q 404 1107 421 1107 q 344 1088 381 1107 q 275 1039 308 1068 l 275 1164 q 336 1200 300 1186 q 404 1214 372 1214 q 516 1178 474 1214 q 558 1081 558 1142 q 510 974 558 1021 q 378 913 461 928 z "},"ỹ":{"ha":833,"x_min":33,"x_max":796,"o":"m 186 -272 q 106 -261 139 -272 q 33 -224 72 -250 l 79 -126 q 140 -158 119 -150 q 186 -167 160 -167 q 276 -151 240 -167 q 339 -94 313 -135 q 389 17 365 -54 l 107 858 l 228 858 l 450 174 l 675 858 l 796 858 l 507 13 q 429 -156 471 -94 q 330 -245 388 -218 q 186 -272 272 -272 m 510 961 q 456 977 485 961 q 401 1015 428 993 q 353 1052 374 1036 q 324 1068 332 1068 q 304 1049 307 1068 q 307 997 301 1029 l 189 997 q 221 1125 183 1075 q 324 1175 258 1175 q 378 1159 350 1175 q 431 1122 406 1143 q 478 1084 457 1100 q 510 1068 499 1068 q 530 1086 528 1068 q 526 1135 532 1104 l 643 1135 q 613 1010 650 1058 q 510 961 576 961 z "},"z":{"ha":833,"x_min":118,"x_max":714,"o":"m 118 0 l 118 69 l 557 753 l 119 753 l 119 858 l 713 858 l 713 789 l 274 106 l 714 106 l 714 0 l 118 0 z "},"ź":{"ha":833,"x_min":118,"x_max":714,"o":"m 118 0 l 118 69 l 557 753 l 119 753 l 119 858 l 713 858 l 713 789 l 274 106 l 714 106 l 714 0 l 118 0 m 401 939 l 325 1021 l 546 1213 l 622 1132 l 401 939 z "},"ž":{"ha":833,"x_min":118,"x_max":714,"o":"m 118 0 l 118 69 l 557 753 l 119 753 l 119 858 l 713 858 l 713 789 l 274 106 l 714 106 l 714 0 l 118 0 m 417 924 l 203 1114 l 290 1183 l 417 1071 l 542 1186 l 631 1117 l 417 924 z "},"ż":{"ha":833,"x_min":118,"x_max":714,"o":"m 118 0 l 118 69 l 557 753 l 119 753 l 119 858 l 713 858 l 713 789 l 274 106 l 714 106 l 714 0 l 118 0 m 417 1010 q 339 1030 360 1010 q 318 1103 318 1050 q 339 1177 318 1157 q 417 1197 360 1197 q 494 1177 474 1197 q 515 1103 515 1157 q 494 1030 515 1050 q 417 1010 474 1010 z "},"ª":{"ha":833,"x_min":151,"x_max":696,"o":"m 404 474 q 262 492 314 474 q 188 553 210 510 q 167 671 167 596 q 188 781 167 740 q 262 838 210 821 q 404 854 314 854 l 524 854 l 524 903 q 498 999 524 972 q 404 1025 472 1025 q 330 1004 354 1025 q 289 929 306 983 l 176 947 q 221 1058 194 1018 q 291 1114 247 1097 q 404 1131 335 1131 q 544 1110 493 1131 q 617 1040 596 1089 q 639 903 639 990 l 639 619 q 650 599 639 606 q 692 592 661 593 l 692 486 q 598 497 628 485 q 553 542 568 508 q 489 488 521 503 q 404 474 457 474 m 404 579 q 498 607 472 579 q 524 707 524 635 l 524 760 l 404 760 q 308 740 335 760 q 282 671 282 721 q 308 599 282 618 q 404 579 335 579 m 151 253 l 151 358 l 696 358 l 696 253 l 151 253 z "},"º":{"ha":833,"x_min":144,"x_max":689,"o":"m 417 474 q 266 503 321 474 q 188 606 211 533 q 165 803 165 678 q 188 999 165 928 q 266 1101 211 1071 q 417 1131 321 1131 q 567 1101 513 1131 q 645 999 622 1071 q 668 803 668 928 q 645 606 668 678 q 567 503 622 533 q 417 474 513 474 m 417 579 q 498 599 468 579 q 541 669 528 619 q 554 803 554 718 q 541 935 554 888 q 498 1004 528 983 q 417 1025 468 1025 q 335 1004 365 1025 q 292 935 306 983 q 279 803 279 888 q 292 669 279 718 q 335 599 306 619 q 417 579 365 579 m 144 253 l 144 358 l 689 358 l 689 253 l 144 253 z "}}}
